<svg xmlns="http://www.w3.org/2000/svg" width="31.923" height="32.003" viewBox="0 0 31.923 32.003">
  <path id="Rounded_Rectangle_522_copy_27" data-name="Rounded Rectangle 522 copy 27" d="M94.387,6165.914a2.462,2.462,0,0,1-1.8-3.022l2.043-7.412c-1.937-.7-3.135-1.718-2.46-4.172a6.251,6.251,0,0,1,7.45-4.579,6.044,6.044,0,0,1,4.1,7.589c-.666,2.416-2.191,2.746-4.181,2.432l-2.045,7.42a2.531,2.531,0,0,1-2.45,1.831A2.614,2.614,0,0,1,94.387,6165.914ZM78.5,6164.168l-2.045-7.42c-1.99.314-3.515-.016-4.181-2.432a6.043,6.043,0,0,1,4.1-7.589,6.25,6.25,0,0,1,7.448,4.579c.676,2.455-.521,3.476-2.459,4.172l2.043,7.413a2.464,2.464,0,0,1-1.794,3.022,2.624,2.624,0,0,1-.659.085A2.528,2.528,0,0,1,78.5,6164.168Zm6.984-.667v-17.08c-2.985-.151-5.129-.88-5.129-4.4a7.631,7.631,0,1,1,15.24,0c0,3.479-2.1,4.229-5.037,4.391V6163.5a2.538,2.538,0,0,1-5.074,0Z" transform="translate(-72.037 -6133.996)" fill="#ccc"/>
</svg>
