<?xml version="1.0" encoding="utf-8"?>
<!-- Generator: Adobe Illustrator 24.1.2, SVG Export Plug-In . SVG Version: 6.00 Build 0)  -->
<svg version="1.1" id="Layer_1" xmlns="http://www.w3.org/2000/svg" xmlns:xlink="http://www.w3.org/1999/xlink" x="0px" y="0px"
	 viewBox="0 0 72 72" style="enable-background:new 0 0 72 72;" xml:space="preserve">
<style type="text/css">
	.st0{fill-rule:evenodd;clip-rule:evenodd;fill:#FFFFFF;}
	.st1{fill:#E7EBEF;}
	.st2{fill:#B3B2B2;}
</style>
<path class="st0" d="M35.9997,4.0002c17.6732,0,32.0001,14.3269,32.0001,31.9996c0,17.673-14.3269,32-32.0001,32
	c-17.6729,0-31.9995-14.327-31.9995-32C4.0002,18.3271,18.3268,4.0002,35.9997,4.0002z"/>
<path class="st1" d="M35.9997,4.0002c17.6732,0,32.0001,14.3269,32.0001,31.9996c0,17.673-14.3269,32-32.0001,32
	c-17.6729,0-31.9995-14.327-31.9995-32C4.0002,18.3271,18.3268,4.0002,35.9997,4.0002 M35.9997,0.0002
	c-19.8502,0-35.9995,16.1493-35.9995,35.9996c0,19.8505,16.1493,36,35.9995,36c19.8505,0,36.0001-16.1495,36.0001-36
	C71.9998,16.1495,55.8502,0.0002,35.9997,0.0002L35.9997,0.0002z"/>
<g>
	<path class="st2" d="M34.7897,45.6825h3.631V31.1587h4.8413v14.5238h3.631l-6.0516,7.2619L34.7897,45.6825z"/>
	<path class="st2" d="M25.1071,26.3175h3.631v14.5238h4.8413V26.3175h3.631l-6.0516-7.2619L25.1071,26.3175z"/>
</g>
</svg>
