<?xml version="1.0" encoding="utf-8"?>
<!-- Generator: Adobe Illustrator 24.1.2, SVG Export Plug-In . SVG Version: 6.00 Build 0)  -->
<svg version="1.1" id="Layer_1" xmlns="http://www.w3.org/2000/svg" xmlns:xlink="http://www.w3.org/1999/xlink" x="0px" y="0px"
	 viewBox="0 0 72 72" style="enable-background:new 0 0 72 72;" xml:space="preserve">
<style type="text/css">
	.st0{fill-rule:evenodd;clip-rule:evenodd;fill:#FFFFFF;}
	.st1{fill:#E7EBEF;}
	.st2{fill:#B3B2B2;}
</style>
<path class="st0" d="M35.9997,4.0002c17.6732,0,32.0001,14.3269,32.0001,31.9996c0,17.673-14.3269,32-32.0001,32
	c-17.6729,0-31.9995-14.327-31.9995-32C4.0002,18.3271,18.3268,4.0002,35.9997,4.0002z"/>
<path class="st1" d="M35.9997,4.0002c17.6732,0,32.0001,14.3269,32.0001,31.9996c0,17.673-14.3269,32-32.0001,32
	c-17.6729,0-31.9995-14.327-31.9995-32C4.0002,18.3271,18.3268,4.0002,35.9997,4.0002 M35.9997,0.0002
	c-19.8502,0-35.9995,16.1493-35.9995,35.9996c0,19.8505,16.1493,36,35.9995,36c19.8505,0,36.0001-16.1495,36.0001-36
	C71.9998,16.1495,55.8502,0.0002,35.9997,0.0002L35.9997,0.0002z"/>
<g>
	<path class="st2" d="M44.3333,22.3175c2.6946,3.5163,4.0417,6.018,4.0417,7.506c0,2.2322-1.8095,4.0417-4.0417,4.0417
		s-4.0417-1.8095-4.0417-4.0417C40.2917,28.3355,41.6387,25.8337,44.3333,22.3175z"/>
	<path class="st2" d="M30.9583,26.5873c5.3893,7.0325,8.0833,12.0361,8.0833,15.0119c0,4.4643-3.619,8.0833-8.0833,8.0833
		s-8.0833-3.619-8.0833-8.0833C22.875,38.6234,25.5691,33.6198,30.9583,26.5873z"/>
</g>
</svg>
