<?xml version="1.0" encoding="utf-8"?>
<!-- Generator: Adobe Illustrator 24.1.2, SVG Export Plug-In . SVG Version: 6.00 Build 0)  -->
<svg version="1.1" id="Layer_1" xmlns="http://www.w3.org/2000/svg" xmlns:xlink="http://www.w3.org/1999/xlink" x="0px" y="0px"
	 viewBox="0 0 72 72" style="enable-background:new 0 0 72 72;" xml:space="preserve">
<style type="text/css">
	.st0{fill-rule:evenodd;clip-rule:evenodd;fill:#FFFFFF;}
	.st1{fill:#E7EBEF;}
	.st2{fill:#B3B2B2;}
</style>
<path class="st0" d="M35.9997,4.0002c17.6732,0,32.0001,14.3269,32.0001,31.9996c0,17.673-14.3269,32-32.0001,32
	c-17.6729,0-31.9995-14.327-31.9995-32C4.0002,18.3271,18.3268,4.0002,35.9997,4.0002z"/>
<path class="st1" d="M35.9997,4.0002c17.6732,0,32.0001,14.3269,32.0001,31.9996c0,17.673-14.3269,32-32.0001,32
	c-17.6729,0-31.9995-14.327-31.9995-32C4.0002,18.3271,18.3268,4.0002,35.9997,4.0002 M35.9997,0.0002
	c-19.8502,0-35.9995,16.1493-35.9995,35.9996c0,19.8505,16.1493,36,35.9995,36c19.8505,0,36.0001-16.1495,36.0001-36
	C71.9998,16.1495,55.8502,0.0002,35.9997,0.0002L35.9997,0.0002z"/>
<g>
	<g>
		<path class="st2" d="M29.5002,22.75h-2v6.5002h-3.5001v19.5001h3.5001v4.9996h2v-4.9996h3.9998V29.2502h-3.9998V22.75z
			 M43.9998,22.75v-4.4999h-1.9997V22.75h-3.4996v19.5h3.4996v8.4999h1.9997V42.25h4.0001v-19.5H43.9998z"/>
	</g>
</g>
</svg>
