<?xml version="1.0" encoding="utf-8"?>
<!-- Generator: Adobe Illustrator 24.1.2, SVG Export Plug-In . SVG Version: 6.00 Build 0)  -->
<svg version="1.1" id="Layer_1" xmlns="http://www.w3.org/2000/svg" xmlns:xlink="http://www.w3.org/1999/xlink" x="0px" y="0px"
	 viewBox="0 0 500 338" style="enable-background:new 0 0 500 338;" xml:space="preserve">
<style type="text/css">
	.st0{fill:#FFFFFF;}
	.st1{fill:#B1B0B1;}
	.st2{enable-background:new    ;}
	.st3{fill-rule:evenodd;clip-rule:evenodd;fill:#FFFFFF;}
	.st4{fill:#989898;}
</style>
<g id="scheme-2">
	<g id="Rounded_Rectangle_519_copy_4">
		<path class="st0" d="M130.213,1.1836h47.805c15.7164,0,28.457,12.7397,28.457,28.4551l0,0
			c0,15.7153-12.7407,28.4551-28.457,28.4551h-47.805c-15.7164,0-28.457-12.7397-28.457-28.4551l0,0
			C101.756,13.9233,114.4966,1.1836,130.213,1.1836z"/>
		<path class="st1" d="M178.0177,58.5937H130.213c-15.9668,0-28.957-12.9893-28.957-28.9551s12.9902-28.9551,28.957-28.9551h47.8047
			c15.9668,0,28.957,12.9893,28.957,28.9551S193.9845,58.5937,178.0177,58.5937z M130.213,1.6836
			c-15.4155,0-27.957,12.541-27.957,27.9551s12.5415,27.9551,27.957,27.9551h47.8047c15.4155,0,27.957-12.541,27.957-27.9551
			s-12.5415-27.9551-27.957-27.9551H130.213z"/>
	</g>
	<g id="USER_copy_4" class="st2">
		<path d="M140.4679,23.7617c0.1499,0.1621,0.2251,0.3691,0.2251,0.6211v6.9121c0,0.9482-0.21,1.7998-0.6299,2.5557
			c-0.4204,0.7559-0.999,1.3477-1.7373,1.7734c-0.7378,0.4258-1.5688,0.6387-2.4927,0.6387c-0.936,0-1.7764-0.2129-2.52-0.6387
			c-0.7441-0.4258-1.3262-1.0176-1.7461-1.7734c-0.4204-0.7559-0.6299-1.6074-0.6299-2.5557v-6.9121
			c0-0.252,0.0835-0.459,0.252-0.6211c0.168-0.1621,0.3838-0.2432,0.6479-0.2432c0.2275,0,0.4287,0.084,0.603,0.252
			c0.1738,0.168,0.2607,0.3721,0.2607,0.6123v6.9121c0,0.624,0.144,1.1846,0.4321,1.6826s0.6719,0.8857,1.1519,1.1611
			c0.48,0.2764,0.9961,0.4141,1.5483,0.4141c0.5757,0,1.1099-0.1377,1.6021-0.4141c0.4917-0.2754,0.8848-0.6631,1.1787-1.1611
			s0.4409-1.0586,0.4409-1.6826v-6.9121c0-0.252,0.0723-0.459,0.2163-0.6211s0.3418-0.2432,0.5938-0.2432
			S140.318,23.5996,140.4679,23.7617z"/>
		<path d="M144.9948,35.9473c-0.6719-0.2451-1.314-0.6445-1.9258-1.1963c-0.252-0.2158-0.3779-0.4619-0.3779-0.7383
			c0-0.2158,0.0835-0.4111,0.252-0.585c0.168-0.1738,0.3657-0.2607,0.5938-0.2607c0.2041,0,0.3784,0.0654,0.522,0.1973
			c0.48,0.4443,0.9751,0.7715,1.4854,0.9814c0.5098,0.21,1.0889,0.3154,1.7368,0.3154c0.7559,0,1.395-0.1738,1.917-0.5225
			c0.522-0.3477,0.7832-0.7861,0.7832-1.3135c-0.0122-0.624-0.2734-1.1074-0.7832-1.4492c-0.5103-0.3418-1.2871-0.627-2.3311-0.8555
			c-1.2358-0.252-2.187-0.666-2.853-1.2422c-0.666-0.5752-0.999-1.373-0.999-2.3936c0-0.708,0.186-1.3291,0.5581-1.8633
			c0.3721-0.5332,0.8882-0.9443,1.5479-1.2324c0.6602-0.2881,1.4043-0.4326,2.2324-0.4326c0.7437,0,1.4458,0.1201,2.106,0.3604
			c0.6597,0.2402,1.1938,0.5576,1.6021,0.9541c0.2759,0.2402,0.4136,0.498,0.4136,0.7734c0,0.2168-0.0806,0.4082-0.2427,0.5762
			s-0.3574,0.252-0.585,0.252c-0.1685,0-0.3062-0.0479-0.4141-0.1436c-0.3125-0.3125-0.7441-0.5762-1.2959-0.792
			c-0.5522-0.2158-1.0801-0.3242-1.584-0.3242c-0.8042,0-1.4434,0.165-1.917,0.4951c-0.4746,0.3301-0.7114,0.7646-0.7114,1.3047
			c0,0.5879,0.2368,1.0381,0.7114,1.3506c0.4736,0.3115,1.1787,0.5752,2.1147,0.792c0.936,0.2041,1.7012,0.4434,2.2949,0.7197
			c0.5942,0.2764,1.0532,0.6602,1.377,1.1523c0.3242,0.4922,0.4863,1.1338,0.4863,1.9258c0,0.6963-0.1953,1.3135-0.585,1.8535
			c-0.3901,0.54-0.9214,0.9609-1.5933,1.2607s-1.4102,0.4492-2.2139,0.4492C146.4411,36.3164,145.6667,36.1933,144.9948,35.9473z"/>
		<path d="M161.7257,34.7324c0.1616,0.1689,0.2427,0.3662,0.2427,0.5947c0,0.2402-0.0811,0.4346-0.2427,0.585
			c-0.1621,0.1494-0.3691,0.2246-0.6211,0.2246h-6.2642c-0.2402,0-0.4438-0.084-0.6118-0.252
			c-0.1685-0.168-0.252-0.3721-0.252-0.6123V24.4004c0-0.2393,0.0835-0.4434,0.252-0.6113c0.168-0.168,0.3716-0.252,0.6118-0.252
			h6.2642c0.252,0,0.459,0.0781,0.6211,0.2334c0.1616,0.1563,0.2427,0.3604,0.2427,0.6123c0,0.2402-0.0811,0.4346-0.2427,0.585
			c-0.1621,0.1504-0.3691,0.2246-0.6211,0.2246h-5.3462v3.6719h4.5361c0.252,0,0.459,0.0791,0.6211,0.2344
			c0.1621,0.1563,0.2427,0.3545,0.2427,0.5938c0,0.252-0.0806,0.4502-0.2427,0.5947c-0.1621,0.1436-0.3691,0.2158-0.6211,0.2158
			h-4.5361v3.9775h5.3462C161.3566,34.4805,161.5636,34.5644,161.7257,34.7324z"/>
		<path d="M174.1188,35.0117c0.0723,0.126,0.1084,0.2549,0.1084,0.3867c0,0.252-0.0811,0.4385-0.2432,0.5586
			s-0.3574,0.1797-0.585,0.1797c-0.2285,0-0.4209-0.0479-0.5762-0.1436c-0.3604-0.2041-0.6543-0.5342-0.8818-0.9902
			c-0.2285-0.4561-0.3418-1.1279-0.3418-2.0166c0-0.5996-0.1807-1.0439-0.54-1.332c-0.3604-0.2871-0.8281-0.4316-1.4043-0.4316
			h-3.6357v4.0498c0,0.252-0.0723,0.459-0.2168,0.6211c-0.1436,0.1621-0.3301,0.2432-0.5576,0.2432
			c-0.2764,0-0.5132-0.084-0.7109-0.252c-0.1982-0.168-0.2969-0.3721-0.2969-0.6123V24.4004c0-0.2393,0.0835-0.4434,0.252-0.6113
			c0.168-0.168,0.3716-0.252,0.6118-0.252h5.0581c0.6484,0,1.2422,0.1592,1.7822,0.4766c0.54,0.3184,0.9717,0.7559,1.2959,1.3145
			c0.3242,0.5576,0.4863,1.1846,0.4863,1.8809c0,0.6719-0.1807,1.2988-0.54,1.8809c-0.3604,0.582-0.8223,1.0166-1.3867,1.3047
			c0.4443,0.2285,0.7949,0.5459,1.0537,0.9541c0.2578,0.4082,0.3984,0.8818,0.4229,1.4219
			c0.0479,0.6846,0.1016,1.1494,0.1621,1.3955c0.0596,0.2461,0.1914,0.4229,0.3955,0.5303
			C173.9508,34.7812,174.0465,34.8857,174.1188,35.0117z M170.9782,29.3691c0.2695-0.2168,0.4883-0.5068,0.6563-0.873
			s0.252-0.7773,0.252-1.2334c0-0.5762-0.1768-1.0645-0.5303-1.4668c-0.3545-0.4023-0.7832-0.6035-1.2871-0.6035h-4.0498v4.5361
			h4.1035C170.4225,29.7051,170.7077,29.5849,170.9782,29.3691z"/>
	</g>
	<g>
		<g id="Rounded_Rectangle_519_copy_7">
			<path class="st3" d="M309.756,212.0937l-21.452,30.0801h68.7c26.3743-0.0586,47.8023,21.2749,47.8607,47.6489
				c0.0585,26.3745-21.2747,47.8022-47.649,47.8608c-0.0706,0-0.1412,0-0.2117,0H142.511
				c-26.3743,0.0586-47.8023-21.2749-47.8607-47.6489c-0.0585-26.3745,21.2747-47.8022,47.649-47.8608c0.0706,0,0.1412,0,0.2117,0
				h64.074l-20.829-30.0801"/>
			<path class="st1" d="M142.402,338.1836c-26.5576,0.001-48.1929-21.5752-48.252-48.1475
				c-0.0586-26.6074,21.5405-48.3027,48.1484-48.3623h63.332l-20.2856-29.2959l0.8223-0.5684l21.3726,30.8643h-65.2402
				c-26.0552,0.0576-47.207,21.3037-47.1494,47.3603c0.0576,26.0195,21.2466,47.1494,47.2529,47.1494c0.0366,0,0.0703,0,0.1069,0
				H357.216c26.0547-0.0576,47.2065-21.3037,47.1489-47.3604c-0.0576-26.0195-21.2466-47.1494-47.2529-47.1494
				c-0.0366,0-0.0703,0-0.1069,0h-69.6719l22.0156-30.8701l0.8145,0.5801l-20.8887,29.29h67.7295c0.0356,0,0.0732,0,0.1089,0
				c26.5576,0,48.1929,21.5752,48.252,48.1474c0.0586,26.6084-21.5405,48.3027-48.1479,48.3623H142.5109
				C142.4753,338.1836,142.4377,338.1836,142.402,338.1836z"/>
		</g>
		<g id="Exchange" class="st2">
			<path d="M207.1427,294.7353c0.1616,0.1689,0.2427,0.3662,0.2427,0.5947c0,0.2402-0.0811,0.4346-0.2427,0.585
				c-0.1621,0.1494-0.3691,0.2246-0.6211,0.2246h-6.2642c-0.2402,0-0.4438-0.084-0.6118-0.252
				c-0.1685-0.168-0.252-0.3721-0.252-0.6123v-10.8721c0-0.2393,0.0835-0.4434,0.252-0.6113c0.168-0.168,0.3716-0.252,0.6118-0.252
				h6.2642c0.252,0,0.459,0.0781,0.6211,0.2334c0.1616,0.1563,0.2427,0.3604,0.2427,0.6123c0,0.2402-0.0811,0.4346-0.2427,0.585
				c-0.1621,0.1504-0.3691,0.2246-0.6211,0.2246h-5.3462v3.6719h4.5361c0.252,0,0.459,0.0791,0.6211,0.2344
				c0.1621,0.1563,0.2427,0.3545,0.2427,0.5938c0,0.252-0.0806,0.4502-0.2427,0.5947c-0.1621,0.1436-0.3691,0.2158-0.6211,0.2158
				h-4.5361v3.9775h5.3462C206.7736,294.4834,206.9806,294.5674,207.1427,294.7353z"/>
			<path d="M220.4718,294.8437c0.1079,0.1436,0.1616,0.3184,0.1616,0.5215c0,0.252-0.0869,0.457-0.2607,0.6123
				c-0.1743,0.1563-0.3691,0.2344-0.585,0.2344c-0.3003,0-0.5342-0.1201-0.7021-0.3604l-3.4922-4.6797l-3.4199,4.6621
				c-0.1797,0.252-0.4141,0.3779-0.7017,0.3779c-0.2163,0-0.3994-0.0752-0.5493-0.2256c-0.1499-0.1494-0.2251-0.3203-0.2251-0.5127
				c0-0.2041,0.0723-0.4023,0.2163-0.5938l3.6899-5.0225l-3.708-4.9854c-0.1201-0.1563-0.1802-0.3301-0.1802-0.5225
				c0-0.2402,0.0869-0.4434,0.2612-0.6123c0.1738-0.168,0.375-0.252,0.603-0.252c0.1318,0,0.2607,0.0303,0.3867,0.0898
				c0.126,0.0605,0.231,0.1504,0.3149,0.2705l3.4561,4.6436l3.4204-4.5898c0.2036-0.2637,0.4316-0.3955,0.6836-0.3955
				c0.2163,0,0.4053,0.0811,0.5674,0.2432c0.1616,0.1611,0.2427,0.3447,0.2427,0.5488c0,0.1797-0.0601,0.3535-0.1797,0.5215
				l-3.7441,5.0039L220.4718,294.8437z"/>
			<path d="M233.5934,284.998c0,0.2158-0.0723,0.4141-0.2163,0.5938c-0.144,0.1924-0.3418,0.2881-0.5938,0.2881
				c-0.1685,0-0.3306-0.042-0.4863-0.126c-0.7441-0.4199-1.5479-0.6299-2.4116-0.6299c-0.9004,0-1.6953,0.1973-2.3853,0.5938
				c-0.6899,0.3955-1.2271,0.9512-1.6108,1.665c-0.3843,0.7139-0.5762,1.5332-0.5762,2.457c0,0.9961,0.1982,1.8535,0.5942,2.5742
				c0.396,0.7197,0.9419,1.2686,1.6377,1.6465s1.4761,0.5674,2.3403,0.5674c0.8877,0,1.6919-0.2158,2.4116-0.6484
				c0.144-0.0723,0.2998-0.1074,0.4683-0.1074c0.2637,0,0.4736,0.1016,0.6299,0.3057c0.144,0.1797,0.2158,0.3721,0.2158,0.5762
				c0,0.1436-0.0391,0.2783-0.1167,0.4043c-0.0781,0.126-0.1831,0.2256-0.3149,0.2979c-0.4683,0.2637-0.9932,0.4736-1.5752,0.6299
				c-0.582,0.1553-1.1553,0.2334-1.7188,0.2334c-1.1641,0-2.2354-0.2578-3.2134-0.7734s-1.7578-1.2666-2.3398-2.25
				c-0.582-0.9844-0.873-2.1357-0.873-3.4561c0-1.2119,0.2793-2.3066,0.8369-3.2852c0.5581-0.9775,1.3262-1.7461,2.3042-2.3037
				c0.978-0.5586,2.0728-0.8369,3.2852-0.8369c1.1636,0,2.2559,0.2871,3.2759,0.8633
				C233.4494,284.4336,233.5934,284.6738,233.5934,284.998z"/>
			<path d="M247.1828,283.7822c0.168,0.1621,0.252,0.3691,0.252,0.6211v10.8545c-0.0117,0.252-0.1021,0.4619-0.27,0.6299
				s-0.3838,0.252-0.6479,0.252c-0.2402,0-0.4473-0.084-0.6211-0.252s-0.2607-0.3779-0.2607-0.6299v-4.6621h-6.3901v4.6621
				c0,0.252-0.0898,0.4619-0.27,0.6299c-0.1797,0.168-0.3901,0.252-0.6299,0.252c-0.2642,0-0.4771-0.084-0.6392-0.252
				c-0.1616-0.168-0.2427-0.3779-0.2427-0.6299v-10.8545c0-0.2393,0.0835-0.4434,0.252-0.6113
				c0.168-0.168,0.3838-0.252,0.6479-0.252c0.2397,0,0.4468,0.084,0.6211,0.252c0.1738,0.168,0.2607,0.3721,0.2607,0.6113v4.5361
				h6.3901v-4.5361c0-0.2393,0.0898-0.4434,0.27-0.6113s0.3896-0.252,0.6299-0.252
				C246.7985,283.54,247.0148,283.6211,247.1828,283.7822z"/>
			<path d="M261.943,295.3652c0,0.2402-0.0811,0.4385-0.2432,0.5947c-0.1616,0.1563-0.3506,0.2334-0.5669,0.2334
				c-0.168,0-0.3213-0.0508-0.459-0.1523c-0.1382-0.1025-0.249-0.2432-0.333-0.4238l-1.1157-2.6455h-5.562l-1.0981,2.6641
				c-0.0601,0.1797-0.1592,0.3184-0.2969,0.4141c-0.1382,0.0957-0.291,0.1436-0.459,0.1436c-0.252,0-0.4443-0.0654-0.5762-0.1973
				c-0.1323-0.1328-0.1978-0.3125-0.1978-0.54c0-0.0479,0.0117-0.1445,0.0356-0.2881l4.5903-11.124
				c0.0835-0.1924,0.2007-0.3389,0.3506-0.4414c0.1499-0.1016,0.3213-0.1406,0.5132-0.1172c0.1802,0,0.3418,0.0488,0.4858,0.1445
				s0.2461,0.2334,0.3062,0.4141l4.5723,10.9795C261.925,295.1318,261.943,295.2461,261.943,295.3652z M254.3473,291.334h4.1938
				l-2.106-5.04L254.3473,291.334z"/>
			<path d="M275.5329,283.7646c0.144,0.1504,0.2163,0.3389,0.2163,0.5674v10.9258c0,0.252-0.0811,0.4619-0.2432,0.6299
				s-0.3691,0.252-0.6211,0.252c-0.1318,0-0.2607-0.0205-0.3867-0.0635c-0.126-0.041-0.2251-0.1045-0.2974-0.1885l-7.0737-9.2158
				v8.6758c0,0.2285-0.0752,0.417-0.2251,0.5674c-0.1504,0.1494-0.3394,0.2246-0.5669,0.2246c-0.228,0-0.4141-0.0752-0.5581-0.2246
				c-0.144-0.1504-0.2158-0.3389-0.2158-0.5674v-10.9443c0-0.252,0.0811-0.459,0.2427-0.6211
				c0.1621-0.1611,0.3628-0.2422,0.603-0.2422c0.144,0,0.2817,0.0264,0.4141,0.0811c0.1318,0.0537,0.2339,0.1289,0.3062,0.2246
				l7.0562,9.2344v-8.748c0-0.2285,0.0747-0.417,0.2246-0.5674s0.3389-0.2246,0.5674-0.2246
				C275.2028,283.54,275.3888,283.6142,275.5329,283.7646z"/>
			<path d="M290.3908,289.7675c0.1621,0.168,0.2441,0.3721,0.2441,0.6123v4.0498c0,0.3242-0.1445,0.5762-0.4316,0.7559
				c-0.5527,0.3604-1.1582,0.6387-1.8184,0.8369s-1.3379,0.2969-2.0342,0.2969c-1.2002,0-2.3013-0.2881-3.3032-0.8633
				c-1.002-0.5762-1.791-1.3594-2.3667-2.3496c-0.5762-0.9902-0.8643-2.0791-0.8643-3.2666c0-1.1885,0.2881-2.2773,0.8643-3.2676
				c0.5757-0.9893,1.3647-1.7725,2.3667-2.3486s2.103-0.8643,3.3032-0.8643c0.5996,0,1.1787,0.0664,1.7373,0.1982
				c0.5566,0.1318,1.0586,0.3301,1.502,0.5938c0.1445,0.084,0.252,0.1865,0.3242,0.3066s0.1094,0.252,0.1094,0.3955
				c0,0.2402-0.082,0.4473-0.2441,0.6211s-0.3574,0.2607-0.584,0.2607c-0.1816,0-0.3379-0.042-0.4688-0.126
				c-0.7793-0.3594-1.5723-0.54-2.376-0.54c-0.8643,0-1.6533,0.21-2.3672,0.6299c-0.7139,0.4209-1.2778,0.9971-1.6919,1.7285
				c-0.4141,0.7324-0.6211,1.5361-0.6211,2.4121s0.207,1.6768,0.6211,2.4023c0.4141,0.7266,0.978,1.3027,1.6919,1.7285
				s1.5029,0.6387,2.3672,0.6387c0.4072,0,0.8369-0.0479,1.2861-0.1436c0.4512-0.0957,0.8379-0.2217,1.1621-0.3779v-2.8623h-2.1782
				c-0.2402,0-0.4443-0.0811-0.6123-0.2432s-0.252-0.3623-0.252-0.6025c0-0.252,0.084-0.459,0.252-0.6211
				s0.3721-0.2432,0.6123-0.2432h3.1685C290.0294,289.5156,290.2287,289.5996,290.3908,289.7675z"/>
			<path d="M302.5959,294.7353c0.1621,0.1689,0.2432,0.3662,0.2432,0.5947c0,0.2402-0.0811,0.4346-0.2432,0.585
				c-0.1621,0.1494-0.3691,0.2246-0.6211,0.2246h-6.2637c-0.2402,0-0.4443-0.084-0.6123-0.252s-0.252-0.3721-0.252-0.6123v-10.8721
				c0-0.2393,0.084-0.4434,0.252-0.6113s0.3721-0.252,0.6123-0.252h6.2637c0.252,0,0.459,0.0781,0.6211,0.2334
				c0.1621,0.1563,0.2432,0.3604,0.2432,0.6123c0,0.2402-0.0811,0.4346-0.2432,0.585s-0.3691,0.2246-0.6211,0.2246h-5.3457v3.6719
				h4.5352c0.2529,0,0.46,0.0791,0.6211,0.2344c0.1621,0.1563,0.2432,0.3545,0.2432,0.5938c0,0.252-0.0811,0.4502-0.2432,0.5947
				c-0.1611,0.1436-0.3682,0.2158-0.6211,0.2158h-4.5352v3.9775h5.3457C302.2267,294.4834,302.4337,294.5674,302.5959,294.7353z"/>
		</g>
	</g>
	<g id="Rounded_Rectangle_519_copy_4-2">
		<path class="st0" d="M225.213,1.1836h47.8049c15.7164,0,28.457,12.7397,28.457,28.4551l0,0
			c0,15.7153-12.7407,28.4551-28.457,28.4551H225.213c-15.7164,0-28.457-12.7397-28.457-28.4551l0,0
			C196.756,13.9233,209.4967,1.1836,225.213,1.1836z"/>
		<path class="st1" d="M273.0177,58.5937H225.213c-15.9668,0-28.957-12.9893-28.957-28.9551s12.9902-28.9551,28.957-28.9551h47.8047
			c15.9668,0,28.957,12.9893,28.957,28.9551S288.9845,58.5937,273.0177,58.5937z M225.213,1.6836
			c-15.4155,0-27.957,12.541-27.957,27.9551s12.5415,27.9551,27.957,27.9551h47.8047c15.4155,0,27.957-12.541,27.957-27.9551
			s-12.5415-27.9551-27.957-27.9551H225.213z"/>
	</g>
	<g id="USER_copy_4-2" class="st2">
		<path d="M235.4679,23.7617c0.1499,0.1621,0.2251,0.3691,0.2251,0.6211v6.9121c0,0.9482-0.21,1.7998-0.6299,2.5557
			c-0.4204,0.7559-0.999,1.3477-1.7373,1.7734c-0.7378,0.4258-1.5688,0.6387-2.4927,0.6387c-0.936,0-1.7764-0.2129-2.52-0.6387
			c-0.7441-0.4258-1.3262-1.0176-1.7461-1.7734c-0.4204-0.7559-0.6299-1.6074-0.6299-2.5557v-6.9121
			c0-0.252,0.0835-0.459,0.252-0.6211c0.168-0.1621,0.3838-0.2432,0.6479-0.2432c0.2275,0,0.4287,0.084,0.603,0.252
			c0.1738,0.168,0.2607,0.3721,0.2607,0.6123v6.9121c0,0.624,0.144,1.1846,0.4321,1.6826s0.6719,0.8857,1.1519,1.1611
			c0.48,0.2764,0.9961,0.4141,1.5483,0.4141c0.5757,0,1.1099-0.1377,1.6021-0.4141c0.4917-0.2754,0.8848-0.6631,1.1787-1.1611
			s0.4409-1.0586,0.4409-1.6826v-6.9121c0-0.252,0.0723-0.459,0.2163-0.6211s0.3418-0.2432,0.5938-0.2432
			S235.318,23.5996,235.4679,23.7617z"/>
		<path d="M239.9948,35.9473c-0.6719-0.2451-1.314-0.6445-1.9258-1.1963c-0.252-0.2158-0.3779-0.4619-0.3779-0.7383
			c0-0.2158,0.0835-0.4111,0.252-0.585c0.168-0.1738,0.3657-0.2607,0.5938-0.2607c0.2041,0,0.3784,0.0654,0.522,0.1973
			c0.48,0.4443,0.9751,0.7715,1.4854,0.9814c0.5098,0.21,1.0889,0.3154,1.7368,0.3154c0.7559,0,1.395-0.1738,1.917-0.5225
			c0.522-0.3477,0.7832-0.7861,0.7832-1.3135c-0.0122-0.624-0.2734-1.1074-0.7832-1.4492c-0.5103-0.3418-1.2871-0.627-2.3311-0.8555
			c-1.2358-0.252-2.187-0.666-2.853-1.2422c-0.666-0.5752-0.999-1.373-0.999-2.3936c0-0.708,0.186-1.3291,0.5581-1.8633
			c0.3721-0.5332,0.8882-0.9443,1.5479-1.2324c0.6602-0.2881,1.4043-0.4326,2.2324-0.4326c0.7437,0,1.4458,0.1201,2.106,0.3604
			c0.6597,0.2402,1.1938,0.5576,1.6021,0.9541c0.2759,0.2402,0.4136,0.498,0.4136,0.7734c0,0.2168-0.0806,0.4082-0.2427,0.5762
			s-0.3574,0.252-0.585,0.252c-0.1685,0-0.3062-0.0479-0.4141-0.1436c-0.3125-0.3125-0.7441-0.5762-1.2959-0.792
			c-0.5522-0.2158-1.0801-0.3242-1.584-0.3242c-0.8042,0-1.4434,0.165-1.917,0.4951c-0.4746,0.3301-0.7114,0.7646-0.7114,1.3047
			c0,0.5879,0.2368,1.0381,0.7114,1.3506c0.4736,0.3115,1.1787,0.5752,2.1147,0.792c0.936,0.2041,1.7012,0.4434,2.2949,0.7197
			c0.5942,0.2764,1.0532,0.6602,1.377,1.1523c0.3242,0.4922,0.4863,1.1338,0.4863,1.9258c0,0.6963-0.1953,1.3135-0.585,1.8535
			c-0.3901,0.54-0.9214,0.9609-1.5933,1.2607s-1.4102,0.4492-2.2139,0.4492C241.4411,36.3164,240.6667,36.1933,239.9948,35.9473z"/>
		<path d="M256.7257,34.7324c0.1616,0.1689,0.2427,0.3662,0.2427,0.5947c0,0.2402-0.0811,0.4346-0.2427,0.585
			c-0.1621,0.1494-0.3691,0.2246-0.6211,0.2246h-6.2642c-0.2402,0-0.4438-0.084-0.6118-0.252
			c-0.1685-0.168-0.252-0.3721-0.252-0.6123V24.4004c0-0.2393,0.0835-0.4434,0.252-0.6113c0.168-0.168,0.3716-0.252,0.6118-0.252
			h6.2642c0.252,0,0.459,0.0781,0.6211,0.2334c0.1616,0.1563,0.2427,0.3604,0.2427,0.6123c0,0.2402-0.0811,0.4346-0.2427,0.585
			c-0.1621,0.1504-0.3691,0.2246-0.6211,0.2246h-5.3462v3.6719h4.5361c0.252,0,0.459,0.0791,0.6211,0.2344
			c0.1621,0.1563,0.2427,0.3545,0.2427,0.5938c0,0.252-0.0806,0.4502-0.2427,0.5947c-0.1621,0.1436-0.3691,0.2158-0.6211,0.2158
			h-4.5361v3.9775h5.3462C256.3566,34.4805,256.5636,34.5644,256.7257,34.7324z"/>
		<path d="M269.1188,35.0117c0.0723,0.126,0.1084,0.2549,0.1084,0.3867c0,0.252-0.0811,0.4385-0.2432,0.5586
			s-0.3574,0.1797-0.585,0.1797c-0.2285,0-0.4209-0.0479-0.5762-0.1436c-0.3604-0.2041-0.6543-0.5342-0.8818-0.9902
			c-0.2285-0.4561-0.3418-1.1279-0.3418-2.0166c0-0.5996-0.1807-1.0439-0.54-1.332c-0.3604-0.2871-0.8281-0.4316-1.4043-0.4316
			h-3.6357v4.0498c0,0.252-0.0723,0.459-0.2168,0.6211c-0.1436,0.1621-0.3301,0.2432-0.5576,0.2432
			c-0.2764,0-0.5132-0.084-0.7109-0.252c-0.1982-0.168-0.2969-0.3721-0.2969-0.6123V24.4004c0-0.2393,0.0835-0.4434,0.252-0.6113
			c0.168-0.168,0.3716-0.252,0.6118-0.252h5.0581c0.6484,0,1.2422,0.1592,1.7822,0.4766c0.54,0.3184,0.9717,0.7559,1.2959,1.3145
			c0.3242,0.5576,0.4863,1.1846,0.4863,1.8809c0,0.6719-0.1807,1.2988-0.54,1.8809c-0.3604,0.582-0.8223,1.0166-1.3867,1.3047
			c0.4443,0.2285,0.7949,0.5459,1.0537,0.9541c0.2578,0.4082,0.3984,0.8818,0.4229,1.4219
			c0.0479,0.6846,0.1016,1.1494,0.1621,1.3955c0.0596,0.2461,0.1914,0.4229,0.3955,0.5303
			C268.9508,34.7812,269.0465,34.8857,269.1188,35.0117z M265.9782,29.3691c0.2695-0.2168,0.4883-0.5068,0.6563-0.873
			s0.252-0.7773,0.252-1.2334c0-0.5762-0.1768-1.0645-0.5303-1.4668c-0.3545-0.4023-0.7832-0.6035-1.2871-0.6035h-4.0498v4.5361
			h4.1035C265.4225,29.7051,265.7077,29.5849,265.9782,29.3691z"/>
	</g>
	<g id="Rounded_Rectangle_519_copy_16">
		<path class="st0" d="M35.213,1.1836h47.805c15.7164,0,28.457,12.7397,28.457,28.4551l0,0
			c0,15.7153-12.7406,28.4551-28.457,28.4551H35.213c-15.7164,0-28.457-12.7397-28.457-28.4551l0,0
			C6.756,13.9233,19.4966,1.1836,35.213,1.1836z"/>
		<path class="st1" d="M83.0182,58.5937H35.213c-15.9668,0-28.957-12.9893-28.957-28.9551S19.2462,0.6836,35.213,0.6836h47.8052
			c15.9668,0,28.9565,12.9893,28.9565,28.9551S98.985,58.5937,83.0182,58.5937z M35.213,1.6836
			c-15.4155,0-27.957,12.541-27.957,27.9551s12.5415,27.9551,27.957,27.9551h47.8052c15.4155,0,27.9565-12.541,27.9565-27.9551
			S98.4337,1.6836,83.0182,1.6836H35.213z"/>
	</g>
	<g id="USER_copy_12" class="st2">
		<path d="M45.4709,23.7617c0.1499,0.1621,0.2251,0.3691,0.2251,0.6211v6.9121c0,0.9482-0.21,1.7998-0.6299,2.5557
			c-0.4204,0.7559-0.999,1.3477-1.7373,1.7734c-0.7378,0.4258-1.5688,0.6387-2.4927,0.6387c-0.936,0-1.7764-0.2129-2.52-0.6387
			c-0.7441-0.4258-1.3262-1.0176-1.7461-1.7734c-0.4204-0.7559-0.6299-1.6074-0.6299-2.5557v-6.9121
			c0-0.252,0.0835-0.459,0.252-0.6211c0.168-0.1621,0.3838-0.2432,0.6479-0.2432c0.2275,0,0.4287,0.084,0.603,0.252
			c0.1738,0.168,0.2607,0.3721,0.2607,0.6123v6.9121c0,0.624,0.144,1.1846,0.4321,1.6826s0.6719,0.8857,1.1519,1.1611
			c0.48,0.2764,0.9961,0.4141,1.5483,0.4141c0.5757,0,1.1099-0.1377,1.6021-0.4141c0.4917-0.2754,0.8848-0.6631,1.1787-1.1611
			s0.4409-1.0586,0.4409-1.6826v-6.9121c0-0.252,0.0723-0.459,0.2163-0.6211s0.3418-0.2432,0.5938-0.2432
			S45.3209,23.5996,45.4709,23.7617z"/>
		<path d="M49.9977,35.9473c-0.6719-0.2451-1.314-0.6445-1.9258-1.1963c-0.252-0.2158-0.3779-0.4619-0.3779-0.7383
			c0-0.2158,0.0835-0.4111,0.252-0.585c0.168-0.1738,0.3657-0.2607,0.5938-0.2607c0.2041,0,0.3784,0.0654,0.522,0.1973
			c0.48,0.4443,0.9751,0.7715,1.4854,0.9814c0.5098,0.21,1.0889,0.3154,1.7368,0.3154c0.7559,0,1.395-0.1738,1.917-0.5225
			c0.522-0.3477,0.7832-0.7861,0.7832-1.3135c-0.0122-0.624-0.2734-1.1074-0.7832-1.4492c-0.5103-0.3418-1.2871-0.627-2.3311-0.8555
			c-1.2358-0.252-2.187-0.666-2.853-1.2422c-0.666-0.5752-0.999-1.373-0.999-2.3936c0-0.708,0.186-1.3291,0.5581-1.8633
			c0.3721-0.5332,0.8882-0.9443,1.5479-1.2324c0.6602-0.2881,1.4043-0.4326,2.2324-0.4326c0.7437,0,1.4458,0.1201,2.106,0.3604
			c0.6597,0.2402,1.1938,0.5576,1.6021,0.9541c0.2759,0.2402,0.4136,0.498,0.4136,0.7734c0,0.2168-0.0806,0.4082-0.2427,0.5762
			s-0.3574,0.252-0.585,0.252c-0.1685,0-0.3062-0.0479-0.4141-0.1436c-0.3125-0.3125-0.7441-0.5762-1.2959-0.792
			c-0.5522-0.2158-1.0801-0.3242-1.584-0.3242c-0.8042,0-1.4434,0.165-1.917,0.4951c-0.4746,0.3301-0.7114,0.7646-0.7114,1.3047
			c0,0.5879,0.2368,1.0381,0.7114,1.3506c0.4736,0.3115,1.1787,0.5752,2.1147,0.792c0.936,0.2041,1.7012,0.4434,2.2949,0.7197
			c0.5942,0.2764,1.0532,0.6602,1.377,1.1523c0.3242,0.4922,0.4863,1.1338,0.4863,1.9258c0,0.6963-0.1953,1.3135-0.585,1.8535
			c-0.3901,0.54-0.9214,0.9609-1.5933,1.2607s-1.4102,0.4492-2.2139,0.4492C51.444,36.3164,50.6696,36.1933,49.9977,35.9473z"/>
		<path d="M66.7287,34.7324c0.1616,0.1689,0.2427,0.3662,0.2427,0.5947c0,0.2402-0.0811,0.4346-0.2427,0.585
			c-0.1621,0.1494-0.3691,0.2246-0.6211,0.2246h-6.2642c-0.2402,0-0.4438-0.084-0.6118-0.252
			c-0.1685-0.168-0.252-0.3721-0.252-0.6123V24.4004c0-0.2393,0.0835-0.4434,0.252-0.6113c0.168-0.168,0.3716-0.252,0.6118-0.252
			h6.2642c0.252,0,0.459,0.0781,0.6211,0.2334c0.1616,0.1563,0.2427,0.3604,0.2427,0.6123c0,0.2402-0.0811,0.4346-0.2427,0.585
			c-0.1621,0.1504-0.3691,0.2246-0.6211,0.2246h-5.3462v3.6719h4.5361c0.252,0,0.459,0.0791,0.6211,0.2344
			c0.1621,0.1563,0.2427,0.3545,0.2427,0.5938c0,0.252-0.0806,0.4502-0.2427,0.5947c-0.1621,0.1436-0.3691,0.2158-0.6211,0.2158
			h-4.5361v3.9775h5.3462C66.3595,34.4805,66.5666,34.5644,66.7287,34.7324z"/>
		<path d="M79.1217,35.0117c0.0723,0.126,0.1084,0.2549,0.1084,0.3867c0,0.252-0.0811,0.4385-0.2432,0.5586
			s-0.3574,0.1797-0.585,0.1797c-0.2285,0-0.4209-0.0479-0.5762-0.1436c-0.3604-0.2041-0.6543-0.5342-0.8818-0.9902
			c-0.2285-0.4561-0.3418-1.1279-0.3418-2.0166c0-0.5996-0.1807-1.0439-0.54-1.332c-0.3604-0.2871-0.8281-0.4316-1.4043-0.4316
			h-3.6357v4.0498c0,0.252-0.0723,0.459-0.2168,0.6211c-0.1436,0.1621-0.3301,0.2432-0.5576,0.2432
			c-0.2764,0-0.5132-0.084-0.7109-0.252c-0.1982-0.168-0.2969-0.3721-0.2969-0.6123V24.4004c0-0.2393,0.0835-0.4434,0.252-0.6113
			c0.168-0.168,0.3716-0.252,0.6118-0.252h5.0581c0.6484,0,1.2422,0.1592,1.7822,0.4766c0.54,0.3184,0.9717,0.7559,1.2959,1.3145
			c0.3242,0.5576,0.4863,1.1846,0.4863,1.8809c0,0.6719-0.1807,1.2988-0.54,1.8809c-0.3604,0.582-0.8223,1.0166-1.3867,1.3047
			c0.4443,0.2285,0.7949,0.5459,1.0537,0.9541c0.2578,0.4082,0.3984,0.8818,0.4229,1.4219
			c0.0479,0.6846,0.1016,1.1494,0.1621,1.3955c0.0596,0.2461,0.1914,0.4229,0.3955,0.5303
			C78.9538,34.7812,79.0495,34.8857,79.1217,35.0117z M75.9811,29.3691c0.2695-0.2168,0.4883-0.5068,0.6563-0.873
			s0.252-0.7773,0.252-1.2334c0-0.5762-0.1768-1.0645-0.5303-1.4668c-0.3545-0.4023-0.7832-0.6035-1.2871-0.6035h-4.0498v4.5361
			h4.1035C75.4254,29.7051,75.7106,29.5849,75.9811,29.3691z"/>
	</g>
	<g id="Rounded_Rectangle_519_copy_6">
		<path class="st0" d="M226.213,138.1836h47.8049c15.7164,0,28.457,12.7397,28.457,28.4551l0,0
			c0,15.7153-12.7407,28.4551-28.457,28.4551H226.213c-15.7164,0-28.457-12.7397-28.457-28.4551l0,0
			C197.756,150.9233,210.4967,138.1836,226.213,138.1836z"/>
		<path class="st1" d="M274.0177,195.5937H226.213c-15.9668,0-28.957-12.9893-28.957-28.9551s12.9902-28.9551,28.957-28.9551
			h47.8047c15.9668,0,28.957,12.9893,28.957,28.9551S289.9845,195.5937,274.0177,195.5937z M226.213,138.6836
			c-15.4155,0-27.957,12.541-27.957,27.9551s12.5415,27.9551,27.957,27.9551h47.8047c15.4155,0,27.957-12.541,27.957-27.9551
			s-12.5415-27.9551-27.957-27.9551H226.213z"/>
	</g>
	<g id="USER_copy_6" class="st2">
		<path d="M236.4699,160.7656c0.1499,0.1621,0.2251,0.3691,0.2251,0.6211v6.9121c0,0.9482-0.21,1.7998-0.6299,2.5557
			c-0.4204,0.7559-0.999,1.3477-1.7373,1.7734c-0.7378,0.4258-1.5688,0.6387-2.4927,0.6387c-0.936,0-1.7764-0.2129-2.52-0.6387
			c-0.7441-0.4258-1.3262-1.0176-1.7461-1.7734c-0.4204-0.7559-0.6299-1.6074-0.6299-2.5557v-6.9121
			c0-0.252,0.0835-0.459,0.252-0.6211c0.168-0.1621,0.3838-0.2432,0.6479-0.2432c0.2275,0,0.4287,0.084,0.603,0.252
			c0.1738,0.168,0.2607,0.3721,0.2607,0.6123v6.9121c0,0.624,0.144,1.1846,0.4321,1.6826s0.6719,0.8857,1.1519,1.1611
			c0.48,0.2764,0.9961,0.4141,1.5483,0.4141c0.5757,0,1.1099-0.1377,1.6021-0.4141c0.4917-0.2754,0.8848-0.6631,1.1787-1.1611
			s0.4409-1.0586,0.4409-1.6826v-6.9121c0-0.252,0.0723-0.459,0.2163-0.6211s0.3418-0.2432,0.5938-0.2432
			S236.32,160.6035,236.4699,160.7656z"/>
		<path d="M240.9967,172.9512c-0.6719-0.2451-1.314-0.6445-1.9258-1.1963c-0.252-0.2158-0.3779-0.4619-0.3779-0.7383
			c0-0.2158,0.0835-0.4111,0.252-0.585c0.168-0.1738,0.3657-0.2607,0.5938-0.2607c0.2041,0,0.3784,0.0654,0.522,0.1973
			c0.48,0.4443,0.9751,0.7715,1.4854,0.9814c0.5098,0.21,1.0889,0.3154,1.7368,0.3154c0.7559,0,1.395-0.1738,1.917-0.5225
			c0.522-0.3477,0.7832-0.7861,0.7832-1.3135c-0.0122-0.624-0.2734-1.1074-0.7832-1.4492c-0.5103-0.3418-1.2871-0.627-2.3311-0.8555
			c-1.2358-0.252-2.187-0.666-2.853-1.2422c-0.666-0.5752-0.999-1.373-0.999-2.3936c0-0.708,0.186-1.3291,0.5581-1.8633
			c0.3721-0.5332,0.8882-0.9443,1.5479-1.2324c0.6602-0.2881,1.4043-0.4326,2.2324-0.4326c0.7437,0,1.4458,0.1201,2.106,0.3604
			c0.6597,0.2402,1.1938,0.5576,1.6021,0.9541c0.2759,0.2402,0.4136,0.498,0.4136,0.7734c0,0.2168-0.0806,0.4082-0.2427,0.5762
			s-0.3574,0.252-0.585,0.252c-0.1685,0-0.3062-0.0479-0.4141-0.1436c-0.3125-0.3125-0.7441-0.5762-1.2959-0.792
			c-0.5522-0.2158-1.0801-0.3242-1.584-0.3242c-0.8042,0-1.4434,0.165-1.917,0.4951c-0.4746,0.3301-0.7114,0.7646-0.7114,1.3047
			c0,0.5879,0.2368,1.0381,0.7114,1.3506c0.4736,0.3115,1.1787,0.5752,2.1147,0.792c0.936,0.2041,1.7012,0.4434,2.2949,0.7197
			c0.5942,0.2764,1.0532,0.6602,1.377,1.1523c0.3242,0.4922,0.4863,1.1338,0.4863,1.9258c0,0.6963-0.1953,1.3135-0.585,1.8535
			c-0.3901,0.54-0.9214,0.9609-1.5933,1.2607s-1.4102,0.4492-2.2139,0.4492C242.443,173.3203,241.6686,173.1973,240.9967,172.9512z"
			/>
		<path d="M257.7277,171.7363c0.1616,0.1689,0.2427,0.3662,0.2427,0.5947c0,0.2402-0.0811,0.4346-0.2427,0.585
			c-0.1621,0.1494-0.3691,0.2246-0.6211,0.2246h-6.2642c-0.2402,0-0.4438-0.084-0.6118-0.252
			c-0.1685-0.168-0.252-0.3721-0.252-0.6123v-10.8721c0-0.2393,0.0835-0.4434,0.252-0.6113c0.168-0.168,0.3716-0.252,0.6118-0.252
			h6.2642c0.252,0,0.459,0.0781,0.6211,0.2334c0.1616,0.1563,0.2427,0.3604,0.2427,0.6123c0,0.2402-0.0811,0.4346-0.2427,0.585
			c-0.1621,0.1504-0.3691,0.2246-0.6211,0.2246h-5.3462v3.6719h4.5361c0.252,0,0.459,0.0791,0.6211,0.2344
			c0.1621,0.1563,0.2427,0.3545,0.2427,0.5938c0,0.252-0.0806,0.4502-0.2427,0.5947c-0.1621,0.1436-0.3691,0.2158-0.6211,0.2158
			h-4.5361v3.9775h5.3462C257.3586,171.4844,257.5656,171.5683,257.7277,171.7363z"/>
		<path d="M270.1208,172.0156c0.0723,0.126,0.1084,0.2549,0.1084,0.3867c0,0.252-0.0811,0.4385-0.2432,0.5586
			s-0.3574,0.1797-0.585,0.1797c-0.2285,0-0.4209-0.0479-0.5762-0.1436c-0.3604-0.2041-0.6543-0.5342-0.8818-0.9902
			c-0.2285-0.4561-0.3418-1.1279-0.3418-2.0166c0-0.5996-0.1807-1.0439-0.54-1.332c-0.3604-0.2871-0.8281-0.4316-1.4043-0.4316
			h-3.6357v4.0498c0,0.252-0.0723,0.459-0.2168,0.6211c-0.1436,0.1621-0.3301,0.2432-0.5576,0.2432
			c-0.2764,0-0.5132-0.084-0.7109-0.252c-0.1982-0.168-0.2969-0.3721-0.2969-0.6123v-10.8721c0-0.2393,0.0835-0.4434,0.252-0.6113
			c0.168-0.168,0.3716-0.252,0.6118-0.252h5.0581c0.6484,0,1.2422,0.1592,1.7822,0.4766c0.54,0.3184,0.9717,0.7559,1.2959,1.3145
			c0.3242,0.5576,0.4863,1.1846,0.4863,1.8809c0,0.6719-0.1807,1.2988-0.54,1.8809c-0.3604,0.582-0.8223,1.0166-1.3867,1.3047
			c0.4443,0.2285,0.7949,0.5459,1.0537,0.9541c0.2578,0.4082,0.3984,0.8818,0.4229,1.4219
			c0.0479,0.6846,0.1016,1.1494,0.1621,1.3955c0.0596,0.2461,0.1914,0.4229,0.3955,0.5303
			C269.9528,171.7851,270.0485,171.8896,270.1208,172.0156z M266.9801,166.373c0.2695-0.2168,0.4883-0.5068,0.6563-0.873
			s0.252-0.7773,0.252-1.2334c0-0.5762-0.1768-1.0645-0.5303-1.4668c-0.3545-0.4023-0.7832-0.6035-1.2871-0.6035h-4.0498v4.5361
			h4.1035C266.4245,166.709,266.7096,166.5889,266.9801,166.373z"/>
	</g>
	<g id="Rounded_Rectangle_519_copy_4-3">
		<path class="st0" d="M321.213,1.1836h47.8049c15.7164,0,28.457,12.7397,28.457,28.4551l0,0
			c0,15.7153-12.7407,28.4551-28.457,28.4551H321.213c-15.7164,0-28.457-12.7397-28.457-28.4551l0,0
			C292.756,13.9233,305.4967,1.1836,321.213,1.1836z"/>
		<path class="st1" d="M369.0177,58.5937H321.213c-15.9668,0-28.957-12.9893-28.957-28.9551s12.9902-28.9551,28.957-28.9551h47.8047
			c15.9668,0,28.957,12.9893,28.957,28.9551S384.9845,58.5937,369.0177,58.5937z M321.213,1.6836
			c-15.4155,0-27.957,12.541-27.957,27.9551s12.5415,27.9551,27.957,27.9551h47.8047c15.4155,0,27.957-12.541,27.957-27.9551
			s-12.5415-27.9551-27.957-27.9551H321.213z"/>
	</g>
	<g id="USER_copy_4-3" class="st2">
		<path d="M331.4699,23.7617c0.1499,0.1621,0.2251,0.3691,0.2251,0.6211v6.9121c0,0.9482-0.21,1.7998-0.6299,2.5557
			c-0.4204,0.7559-0.999,1.3477-1.7373,1.7734c-0.7378,0.4258-1.5688,0.6387-2.4927,0.6387c-0.936,0-1.7764-0.2129-2.52-0.6387
			c-0.7441-0.4258-1.3262-1.0176-1.7461-1.7734c-0.4204-0.7559-0.6299-1.6074-0.6299-2.5557v-6.9121
			c0-0.252,0.0835-0.459,0.252-0.6211c0.168-0.1621,0.3838-0.2432,0.6479-0.2432c0.2275,0,0.4287,0.084,0.603,0.252
			c0.1738,0.168,0.2607,0.3721,0.2607,0.6123v6.9121c0,0.624,0.144,1.1846,0.4321,1.6826s0.6719,0.8857,1.1519,1.1611
			c0.48,0.2764,0.9961,0.4141,1.5483,0.4141c0.5757,0,1.1099-0.1377,1.6021-0.4141c0.4917-0.2754,0.8848-0.6631,1.1787-1.1611
			s0.4409-1.0586,0.4409-1.6826v-6.9121c0-0.252,0.0723-0.459,0.2163-0.6211s0.3418-0.2432,0.5938-0.2432
			S331.32,23.5996,331.4699,23.7617z"/>
		<path d="M335.9967,35.9473c-0.6719-0.2451-1.314-0.6445-1.9258-1.1963c-0.252-0.2158-0.3779-0.4619-0.3779-0.7383
			c0-0.2158,0.0835-0.4111,0.252-0.585c0.168-0.1738,0.3657-0.2607,0.5938-0.2607c0.2041,0,0.3784,0.0654,0.522,0.1973
			c0.48,0.4443,0.9751,0.7715,1.4854,0.9814c0.5098,0.21,1.0889,0.3154,1.7368,0.3154c0.7559,0,1.395-0.1738,1.917-0.5225
			c0.522-0.3477,0.7832-0.7861,0.7832-1.3135c-0.0122-0.624-0.2734-1.1074-0.7832-1.4492c-0.5103-0.3418-1.2871-0.627-2.3311-0.8555
			c-1.2358-0.252-2.187-0.666-2.853-1.2422c-0.666-0.5752-0.999-1.373-0.999-2.3936c0-0.708,0.186-1.3291,0.5581-1.8633
			c0.3721-0.5332,0.8882-0.9443,1.5479-1.2324c0.6602-0.2881,1.4043-0.4326,2.2324-0.4326c0.7437,0,1.4458,0.1201,2.106,0.3604
			c0.6597,0.2402,1.1938,0.5576,1.6021,0.9541c0.2759,0.2402,0.4136,0.498,0.4136,0.7734c0,0.2168-0.0806,0.4082-0.2427,0.5762
			s-0.3574,0.252-0.585,0.252c-0.1685,0-0.3062-0.0479-0.4141-0.1436c-0.3125-0.3125-0.7441-0.5762-1.2959-0.792
			c-0.5522-0.2158-1.0801-0.3242-1.584-0.3242c-0.8042,0-1.4434,0.165-1.917,0.4951c-0.4746,0.3301-0.7114,0.7646-0.7114,1.3047
			c0,0.5879,0.2368,1.0381,0.7114,1.3506c0.4736,0.3115,1.1787,0.5752,2.1147,0.792c0.936,0.2041,1.7012,0.4434,2.2949,0.7197
			c0.5942,0.2764,1.0532,0.6602,1.377,1.1523c0.3242,0.4922,0.4863,1.1338,0.4863,1.9258c0,0.6963-0.1953,1.3135-0.585,1.8535
			c-0.3901,0.54-0.9214,0.9609-1.5933,1.2607s-1.4102,0.4492-2.2139,0.4492C337.443,36.3164,336.6686,36.1933,335.9967,35.9473z"/>
		<path d="M352.7277,34.7324c0.1616,0.1689,0.2427,0.3662,0.2427,0.5947c0,0.2402-0.0811,0.4346-0.2427,0.585
			c-0.1621,0.1494-0.3691,0.2246-0.6211,0.2246h-6.2642c-0.2402,0-0.4438-0.084-0.6118-0.252
			c-0.1685-0.168-0.252-0.3721-0.252-0.6123V24.4004c0-0.2393,0.0835-0.4434,0.252-0.6113c0.168-0.168,0.3716-0.252,0.6118-0.252
			h6.2642c0.252,0,0.459,0.0781,0.6211,0.2334c0.1616,0.1563,0.2427,0.3604,0.2427,0.6123c0,0.2402-0.0811,0.4346-0.2427,0.585
			c-0.1621,0.1504-0.3691,0.2246-0.6211,0.2246h-5.3462v3.6719h4.5361c0.252,0,0.459,0.0791,0.6211,0.2344
			c0.1621,0.1563,0.2427,0.3545,0.2427,0.5938c0,0.252-0.0806,0.4502-0.2427,0.5947c-0.1621,0.1436-0.3691,0.2158-0.6211,0.2158
			h-4.5361v3.9775h5.3462C352.3586,34.4805,352.5656,34.5644,352.7277,34.7324z"/>
		<path d="M365.1208,35.0117c0.0723,0.126,0.1084,0.2549,0.1084,0.3867c0,0.252-0.0811,0.4385-0.2432,0.5586
			s-0.3574,0.1797-0.585,0.1797c-0.2285,0-0.4209-0.0479-0.5762-0.1436c-0.3604-0.2041-0.6543-0.5342-0.8818-0.9902
			c-0.2285-0.4561-0.3418-1.1279-0.3418-2.0166c0-0.5996-0.1807-1.0439-0.54-1.332c-0.3604-0.2871-0.8281-0.4316-1.4043-0.4316
			h-3.6357v4.0498c0,0.252-0.0723,0.459-0.2168,0.6211c-0.1436,0.1621-0.3301,0.2432-0.5576,0.2432
			c-0.2764,0-0.5132-0.084-0.7109-0.252c-0.1982-0.168-0.2969-0.3721-0.2969-0.6123V24.4004c0-0.2393,0.0835-0.4434,0.252-0.6113
			c0.168-0.168,0.3716-0.252,0.6118-0.252h5.0581c0.6484,0,1.2422,0.1592,1.7822,0.4766c0.54,0.3184,0.9717,0.7559,1.2959,1.3145
			c0.3242,0.5576,0.4863,1.1846,0.4863,1.8809c0,0.6719-0.1807,1.2988-0.54,1.8809c-0.3604,0.582-0.8223,1.0166-1.3867,1.3047
			c0.4443,0.2285,0.7949,0.5459,1.0537,0.9541c0.2578,0.4082,0.3984,0.8818,0.4229,1.4219
			c0.0479,0.6846,0.1016,1.1494,0.1621,1.3955c0.0596,0.2461,0.1914,0.4229,0.3955,0.5303
			C364.9528,34.7812,365.0485,34.8857,365.1208,35.0117z M361.9801,29.3691c0.2695-0.2168,0.4883-0.5068,0.6563-0.873
			s0.252-0.7773,0.252-1.2334c0-0.5762-0.1768-1.0645-0.5303-1.4668c-0.3545-0.4023-0.7832-0.6035-1.2871-0.6035h-4.0498v4.5361
			h4.1035C361.4245,29.7051,361.7096,29.5849,361.9801,29.3691z"/>
	</g>
	<g>
		<g id="Rounded_Rectangle_519_copy_5">
			<path class="st0" d="M178.213,71.1836h47.8049c15.7164,0,28.457,12.7397,28.457,28.4551l0,0
				c0,15.7153-12.7407,28.4551-28.457,28.4551H178.213c-15.7164,0-28.457-12.7397-28.457-28.4551l0,0
				C149.756,83.9233,162.4967,71.1836,178.213,71.1836z"/>
			<path class="st1" d="M226.0177,128.5937H178.213c-15.9668,0-28.957-12.9893-28.957-28.9551s12.9902-28.9551,28.957-28.9551
				h47.8047c15.9668,0,28.957,12.9893,28.957,28.9551S241.9845,128.5937,226.0177,128.5937z M178.213,71.6836
				c-15.4155,0-27.957,12.541-27.957,27.9551s12.5415,27.9551,27.957,27.9551h47.8047c15.4155,0,27.957-12.541,27.957-27.9551
				s-12.5415-27.9551-27.957-27.9551H178.213z"/>
		</g>
		<g id="USER_copy_5" class="st2">
			<path d="M188.4709,93.7617c0.1499,0.1621,0.2251,0.3691,0.2251,0.6211v6.9121c0,0.9482-0.21,1.7998-0.6299,2.5557
				c-0.4204,0.7559-0.999,1.3477-1.7373,1.7734c-0.7378,0.4258-1.5688,0.6387-2.4927,0.6387c-0.936,0-1.7764-0.2129-2.52-0.6387
				c-0.7441-0.4258-1.3262-1.0176-1.7461-1.7734c-0.4204-0.7559-0.6299-1.6074-0.6299-2.5557v-6.9121
				c0-0.252,0.0835-0.459,0.252-0.6211c0.168-0.1621,0.3838-0.2432,0.6479-0.2432c0.2275,0,0.4287,0.084,0.603,0.252
				c0.1738,0.168,0.2607,0.3721,0.2607,0.6123v6.9121c0,0.624,0.144,1.1846,0.4321,1.6826s0.6719,0.8857,1.1519,1.1611
				c0.48,0.2764,0.9961,0.4141,1.5483,0.4141c0.5757,0,1.1099-0.1377,1.6021-0.4141c0.4917-0.2754,0.8848-0.6631,1.1787-1.1611
				s0.4409-1.0586,0.4409-1.6826v-6.9121c0-0.252,0.0723-0.459,0.2163-0.6211s0.3418-0.2432,0.5938-0.2432
				S188.321,93.5996,188.4709,93.7617z"/>
			<path d="M192.9977,105.9473c-0.6719-0.2451-1.314-0.6445-1.9258-1.1963c-0.252-0.2158-0.3779-0.4619-0.3779-0.7383
				c0-0.2158,0.0835-0.4111,0.252-0.585c0.168-0.1738,0.3657-0.2607,0.5938-0.2607c0.2041,0,0.3784,0.0654,0.522,0.1973
				c0.48,0.4443,0.9751,0.7715,1.4854,0.9814c0.5098,0.21,1.0889,0.3154,1.7368,0.3154c0.7559,0,1.395-0.1738,1.917-0.5225
				c0.522-0.3477,0.7832-0.7861,0.7832-1.3135c-0.0122-0.624-0.2734-1.1074-0.7832-1.4492
				c-0.5103-0.3418-1.2871-0.627-2.3311-0.8555c-1.2358-0.252-2.187-0.666-2.853-1.2422c-0.666-0.5752-0.999-1.373-0.999-2.3936
				c0-0.708,0.186-1.3291,0.5581-1.8633c0.3721-0.5332,0.8882-0.9443,1.5479-1.2324c0.6602-0.2881,1.4043-0.4326,2.2324-0.4326
				c0.7437,0,1.4458,0.1201,2.106,0.3604c0.6597,0.2402,1.1938,0.5576,1.6021,0.9541c0.2759,0.2402,0.4136,0.498,0.4136,0.7734
				c0,0.2168-0.0806,0.4082-0.2427,0.5762s-0.3574,0.252-0.585,0.252c-0.1685,0-0.3062-0.0479-0.4141-0.1436
				c-0.3125-0.3125-0.7441-0.5762-1.2959-0.792c-0.5522-0.2158-1.0801-0.3242-1.584-0.3242c-0.8042,0-1.4434,0.165-1.917,0.4951
				c-0.4746,0.3301-0.7114,0.7646-0.7114,1.3047c0,0.5879,0.2368,1.0381,0.7114,1.3506c0.4736,0.3115,1.1787,0.5752,2.1147,0.792
				c0.936,0.2041,1.7012,0.4434,2.2949,0.7197c0.5942,0.2764,1.0532,0.6602,1.377,1.1523c0.3242,0.4922,0.4863,1.1338,0.4863,1.9258
				c0,0.6963-0.1953,1.3135-0.585,1.8535c-0.3901,0.54-0.9214,0.9609-1.5933,1.2607s-1.4102,0.4492-2.2139,0.4492
				C194.444,106.3164,193.6696,106.1933,192.9977,105.9473z"/>
			<path d="M209.7287,104.7324c0.1616,0.1689,0.2427,0.3662,0.2427,0.5947c0,0.2402-0.0811,0.4346-0.2427,0.585
				c-0.1621,0.1494-0.3691,0.2246-0.6211,0.2246h-6.2642c-0.2402,0-0.4438-0.084-0.6118-0.252
				c-0.1685-0.168-0.252-0.3721-0.252-0.6123V94.4004c0-0.2393,0.0835-0.4434,0.252-0.6113c0.168-0.168,0.3716-0.252,0.6118-0.252
				h6.2642c0.252,0,0.459,0.0781,0.6211,0.2334c0.1616,0.1563,0.2427,0.3604,0.2427,0.6123c0,0.2402-0.0811,0.4346-0.2427,0.585
				c-0.1621,0.1504-0.3691,0.2246-0.6211,0.2246h-5.3462v3.6719h4.5361c0.252,0,0.459,0.0791,0.6211,0.2344
				c0.1621,0.1563,0.2427,0.3545,0.2427,0.5938c0,0.252-0.0806,0.4502-0.2427,0.5947c-0.1621,0.1436-0.3691,0.2158-0.6211,0.2158
				h-4.5361v3.9775h5.3462C209.3595,104.4805,209.5666,104.5644,209.7287,104.7324z"/>
			<path d="M222.1217,105.0117c0.0723,0.126,0.1084,0.2549,0.1084,0.3867c0,0.252-0.0811,0.4385-0.2432,0.5586
				s-0.3574,0.1797-0.585,0.1797c-0.2285,0-0.4209-0.0479-0.5762-0.1436c-0.3604-0.2041-0.6543-0.5342-0.8818-0.9902
				c-0.2285-0.4561-0.3418-1.1279-0.3418-2.0166c0-0.5996-0.1807-1.0439-0.54-1.332c-0.3604-0.2871-0.8281-0.4316-1.4043-0.4316
				h-3.6357v4.0498c0,0.252-0.0723,0.459-0.2168,0.6211c-0.1436,0.1621-0.3301,0.2432-0.5576,0.2432
				c-0.2764,0-0.5132-0.084-0.7109-0.252c-0.1982-0.168-0.2969-0.3721-0.2969-0.6123V94.4004c0-0.2393,0.0835-0.4434,0.252-0.6113
				c0.168-0.168,0.3716-0.252,0.6118-0.252h5.0581c0.6484,0,1.2422,0.1592,1.7822,0.4766c0.54,0.3184,0.9717,0.7559,1.2959,1.3145
				c0.3242,0.5576,0.4863,1.1846,0.4863,1.8809c0,0.6719-0.1807,1.2988-0.54,1.8809c-0.3604,0.582-0.8223,1.0166-1.3867,1.3047
				c0.4443,0.2285,0.7949,0.5459,1.0537,0.9541c0.2578,0.4082,0.3984,0.8818,0.4229,1.4219
				c0.0479,0.6846,0.1016,1.1494,0.1621,1.3955c0.0596,0.2461,0.1914,0.4229,0.3955,0.5303
				C221.9538,104.7812,222.0495,104.8857,222.1217,105.0117z M218.9811,99.3691c0.2695-0.2168,0.4883-0.5068,0.6563-0.873
				s0.252-0.7773,0.252-1.2334c0-0.5762-0.1768-1.0645-0.5303-1.4668c-0.3545-0.4023-0.7832-0.6035-1.2871-0.6035h-4.0498v4.5361
				h4.1035C218.4254,99.7051,218.7106,99.5849,218.9811,99.3691z"/>
		</g>
		<g id="Rounded_Rectangle_519_copy_16-2">
			<path class="st0" d="M83.213,71.1836h47.805c15.7163,0,28.457,12.7397,28.457,28.4551l0,0
				c0,15.7153-12.7407,28.4551-28.457,28.4551H83.213c-15.7164,0-28.457-12.7397-28.457-28.4551l0,0
				C54.756,83.9233,67.4966,71.1836,83.213,71.1836z"/>
			<path class="st1" d="M131.0182,128.5937H83.213c-15.9668,0-28.957-12.9893-28.957-28.9551s12.9902-28.9551,28.957-28.9551
				h47.8052c15.9668,0,28.9565,12.9893,28.9565,28.9551S146.985,128.5937,131.0182,128.5937z M83.213,71.6836
				c-15.4155,0-27.957,12.541-27.957,27.9551s12.5415,27.9551,27.957,27.9551h47.8052c15.4155,0,27.9565-12.541,27.9565-27.9551
				s-12.541-27.9551-27.9565-27.9551H83.213z"/>
		</g>
		<g id="USER_copy_12-2" class="st2">
			<path d="M93.4709,93.7617c0.1499,0.1621,0.2251,0.3691,0.2251,0.6211v6.9121c0,0.9482-0.21,1.7998-0.6299,2.5557
				c-0.4204,0.7559-0.999,1.3477-1.7373,1.7734c-0.7378,0.4258-1.5688,0.6387-2.4927,0.6387c-0.936,0-1.7764-0.2129-2.52-0.6387
				c-0.7441-0.4258-1.3262-1.0176-1.7461-1.7734c-0.4204-0.7559-0.6299-1.6074-0.6299-2.5557v-6.9121
				c0-0.252,0.0835-0.459,0.252-0.6211c0.168-0.1621,0.3838-0.2432,0.6479-0.2432c0.2275,0,0.4287,0.084,0.603,0.252
				c0.1738,0.168,0.2607,0.3721,0.2607,0.6123v6.9121c0,0.624,0.144,1.1846,0.4321,1.6826s0.6719,0.8857,1.1519,1.1611
				c0.48,0.2764,0.9961,0.4141,1.5483,0.4141c0.5757,0,1.1099-0.1377,1.6021-0.4141c0.4917-0.2754,0.8848-0.6631,1.1787-1.1611
				s0.4409-1.0586,0.4409-1.6826v-6.9121c0-0.252,0.0723-0.459,0.2163-0.6211s0.3418-0.2432,0.5938-0.2432
				S93.321,93.5996,93.4709,93.7617z"/>
			<path d="M97.9977,105.9473c-0.6719-0.2451-1.314-0.6445-1.9258-1.1963c-0.252-0.2158-0.3779-0.4619-0.3779-0.7383
				c0-0.2158,0.0835-0.4111,0.252-0.585c0.168-0.1738,0.3657-0.2607,0.5938-0.2607c0.2041,0,0.3784,0.0654,0.522,0.1973
				c0.48,0.4443,0.9751,0.7715,1.4854,0.9814c0.5098,0.21,1.0889,0.3154,1.7368,0.3154c0.7559,0,1.395-0.1738,1.917-0.5225
				c0.522-0.3477,0.7832-0.7861,0.7832-1.3135c-0.0122-0.624-0.2734-1.1074-0.7832-1.4492
				c-0.5103-0.3418-1.2871-0.627-2.3311-0.8555c-1.2358-0.252-2.187-0.666-2.853-1.2422c-0.666-0.5752-0.999-1.373-0.999-2.3936
				c0-0.708,0.186-1.3291,0.5581-1.8633c0.3721-0.5332,0.8882-0.9443,1.5479-1.2324c0.6602-0.2881,1.4043-0.4326,2.2324-0.4326
				c0.7437,0,1.4458,0.1201,2.106,0.3604c0.6597,0.2402,1.1938,0.5576,1.6021,0.9541c0.2759,0.2402,0.4136,0.498,0.4136,0.7734
				c0,0.2168-0.0806,0.4082-0.2427,0.5762s-0.3574,0.252-0.585,0.252c-0.1685,0-0.3062-0.0479-0.4141-0.1436
				c-0.3125-0.3125-0.7441-0.5762-1.2959-0.792c-0.5522-0.2158-1.0801-0.3242-1.584-0.3242c-0.8042,0-1.4434,0.165-1.917,0.4951
				c-0.4746,0.3301-0.7114,0.7646-0.7114,1.3047c0,0.5879,0.2368,1.0381,0.7114,1.3506c0.4736,0.3115,1.1787,0.5752,2.1147,0.792
				c0.936,0.2041,1.7012,0.4434,2.2949,0.7197c0.5942,0.2764,1.0532,0.6602,1.377,1.1523c0.3242,0.4922,0.4863,1.1338,0.4863,1.9258
				c0,0.6963-0.1953,1.3135-0.585,1.8535c-0.3901,0.54-0.9214,0.9609-1.5933,1.2607s-1.4102,0.4492-2.2139,0.4492
				C99.444,106.3164,98.6696,106.1933,97.9977,105.9473z"/>
			<path d="M114.7287,104.7324c0.1616,0.1689,0.2427,0.3662,0.2427,0.5947c0,0.2402-0.0811,0.4346-0.2427,0.585
				c-0.1621,0.1494-0.3691,0.2246-0.6211,0.2246h-6.2642c-0.2402,0-0.4438-0.084-0.6118-0.252
				c-0.1685-0.168-0.252-0.3721-0.252-0.6123V94.4004c0-0.2393,0.0835-0.4434,0.252-0.6113c0.168-0.168,0.3716-0.252,0.6118-0.252
				h6.2642c0.252,0,0.459,0.0781,0.6211,0.2334c0.1616,0.1563,0.2427,0.3604,0.2427,0.6123c0,0.2402-0.0811,0.4346-0.2427,0.585
				c-0.1621,0.1504-0.3691,0.2246-0.6211,0.2246h-5.3462v3.6719h4.5361c0.252,0,0.459,0.0791,0.6211,0.2344
				c0.1621,0.1563,0.2427,0.3545,0.2427,0.5938c0,0.252-0.0806,0.4502-0.2427,0.5947c-0.1621,0.1436-0.3691,0.2158-0.6211,0.2158
				h-4.5361v3.9775h5.3462C114.3595,104.4805,114.5666,104.5644,114.7287,104.7324z"/>
			<path d="M127.1217,105.0117c0.0723,0.126,0.1084,0.2549,0.1084,0.3867c0,0.252-0.0811,0.4385-0.2432,0.5586
				s-0.3574,0.1797-0.585,0.1797c-0.2285,0-0.4209-0.0479-0.5762-0.1436c-0.3604-0.2041-0.6543-0.5342-0.8818-0.9902
				c-0.2285-0.4561-0.3418-1.1279-0.3418-2.0166c0-0.5996-0.1807-1.0439-0.54-1.332c-0.3604-0.2871-0.8281-0.4316-1.4043-0.4316
				h-3.6357v4.0498c0,0.252-0.0723,0.459-0.2168,0.6211c-0.1436,0.1621-0.3301,0.2432-0.5576,0.2432
				c-0.2764,0-0.5132-0.084-0.7109-0.252c-0.1982-0.168-0.2969-0.3721-0.2969-0.6123V94.4004c0-0.2393,0.0835-0.4434,0.252-0.6113
				c0.168-0.168,0.3716-0.252,0.6118-0.252h5.0581c0.6484,0,1.2422,0.1592,1.7822,0.4766c0.54,0.3184,0.9717,0.7559,1.2959,1.3145
				c0.3242,0.5576,0.4863,1.1846,0.4863,1.8809c0,0.6719-0.1807,1.2988-0.54,1.8809c-0.3604,0.582-0.8223,1.0166-1.3867,1.3047
				c0.4443,0.2285,0.7949,0.5459,1.0537,0.9541c0.2578,0.4082,0.3984,0.8818,0.4229,1.4219
				c0.0479,0.6846,0.1016,1.1494,0.1621,1.3955c0.0596,0.2461,0.1914,0.4229,0.3955,0.5303
				C126.9538,104.7812,127.0495,104.8857,127.1217,105.0117z M123.9811,99.3691c0.2695-0.2168,0.4883-0.5068,0.6563-0.873
				s0.252-0.7773,0.252-1.2334c0-0.5762-0.1768-1.0645-0.5303-1.4668c-0.3545-0.4023-0.7832-0.6035-1.2871-0.6035h-4.0498v4.5361
				h4.1035C123.4254,99.7051,123.7106,99.5849,123.9811,99.3691z"/>
		</g>
		<g id="Rounded_Rectangle_519_copy_5-2">
			<path class="st0" d="M273.213,71.1836h47.8049c15.7164,0,28.457,12.7397,28.457,28.4551l0,0
				c0,15.7153-12.7407,28.4551-28.457,28.4551H273.213c-15.7164,0-28.457-12.7397-28.457-28.4551l0,0
				C244.756,83.9233,257.4967,71.1836,273.213,71.1836z"/>
			<path class="st1" d="M321.0177,128.5937H273.213c-15.9668,0-28.957-12.9893-28.957-28.9551s12.9902-28.9551,28.957-28.9551
				h47.8047c15.9668,0,28.957,12.9893,28.957,28.9551S336.9845,128.5937,321.0177,128.5937z M273.213,71.6836
				c-15.4155,0-27.957,12.541-27.957,27.9551s12.5415,27.9551,27.957,27.9551h47.8047c15.4155,0,27.957-12.541,27.957-27.9551
				s-12.5415-27.9551-27.957-27.9551H273.213z"/>
		</g>
		<g id="USER_copy_5-2" class="st2">
			<path d="M283.4709,93.7617c0.1499,0.1621,0.2251,0.3691,0.2251,0.6211v6.9121c0,0.9482-0.21,1.7998-0.6299,2.5557
				c-0.4204,0.7559-0.999,1.3477-1.7373,1.7734c-0.7378,0.4258-1.5688,0.6387-2.4927,0.6387c-0.936,0-1.7764-0.2129-2.52-0.6387
				c-0.7441-0.4258-1.3262-1.0176-1.7461-1.7734c-0.4204-0.7559-0.6299-1.6074-0.6299-2.5557v-6.9121
				c0-0.252,0.0835-0.459,0.252-0.6211c0.168-0.1621,0.3838-0.2432,0.6479-0.2432c0.2275,0,0.4287,0.084,0.603,0.252
				c0.1738,0.168,0.2607,0.3721,0.2607,0.6123v6.9121c0,0.624,0.144,1.1846,0.4321,1.6826s0.6719,0.8857,1.1519,1.1611
				c0.48,0.2764,0.9961,0.4141,1.5483,0.4141c0.5757,0,1.1099-0.1377,1.6021-0.4141c0.4917-0.2754,0.8848-0.6631,1.1787-1.1611
				s0.4409-1.0586,0.4409-1.6826v-6.9121c0-0.252,0.0723-0.459,0.2163-0.6211s0.3418-0.2432,0.5938-0.2432
				S283.321,93.5996,283.4709,93.7617z"/>
			<path d="M287.9977,105.9473c-0.6719-0.2451-1.314-0.6445-1.9258-1.1963c-0.252-0.2158-0.3779-0.4619-0.3779-0.7383
				c0-0.2158,0.0835-0.4111,0.252-0.585c0.168-0.1738,0.3657-0.2607,0.5938-0.2607c0.2041,0,0.3784,0.0654,0.522,0.1973
				c0.48,0.4443,0.9751,0.7715,1.4854,0.9814c0.5098,0.21,1.0889,0.3154,1.7368,0.3154c0.7559,0,1.395-0.1738,1.917-0.5225
				c0.522-0.3477,0.7832-0.7861,0.7832-1.3135c-0.0122-0.624-0.2734-1.1074-0.7832-1.4492
				c-0.5103-0.3418-1.2871-0.627-2.3311-0.8555c-1.2358-0.252-2.187-0.666-2.853-1.2422c-0.666-0.5752-0.999-1.373-0.999-2.3936
				c0-0.708,0.186-1.3291,0.5581-1.8633c0.3721-0.5332,0.8882-0.9443,1.5479-1.2324c0.6602-0.2881,1.4043-0.4326,2.2324-0.4326
				c0.7437,0,1.4458,0.1201,2.106,0.3604c0.6597,0.2402,1.1938,0.5576,1.6021,0.9541c0.2759,0.2402,0.4136,0.498,0.4136,0.7734
				c0,0.2168-0.0806,0.4082-0.2427,0.5762s-0.3574,0.252-0.585,0.252c-0.1685,0-0.3062-0.0479-0.4141-0.1436
				c-0.3125-0.3125-0.7441-0.5762-1.2959-0.792c-0.5522-0.2158-1.0801-0.3242-1.584-0.3242c-0.8042,0-1.4434,0.165-1.917,0.4951
				c-0.4746,0.3301-0.7114,0.7646-0.7114,1.3047c0,0.5879,0.2368,1.0381,0.7114,1.3506c0.4736,0.3115,1.1787,0.5752,2.1147,0.792
				c0.936,0.2041,1.7012,0.4434,2.2949,0.7197c0.5942,0.2764,1.0532,0.6602,1.377,1.1523c0.3242,0.4922,0.4863,1.1338,0.4863,1.9258
				c0,0.6963-0.1953,1.3135-0.585,1.8535c-0.3901,0.54-0.9214,0.9609-1.5933,1.2607s-1.4102,0.4492-2.2139,0.4492
				C289.444,106.3164,288.6696,106.1933,287.9977,105.9473z"/>
			<path d="M304.7287,104.7324c0.1616,0.1689,0.2427,0.3662,0.2427,0.5947c0,0.2402-0.0811,0.4346-0.2427,0.585
				c-0.1621,0.1494-0.3691,0.2246-0.6211,0.2246h-6.2642c-0.2402,0-0.4438-0.084-0.6118-0.252
				c-0.1685-0.168-0.252-0.3721-0.252-0.6123V94.4004c0-0.2393,0.0835-0.4434,0.252-0.6113c0.168-0.168,0.3716-0.252,0.6118-0.252
				h6.2642c0.252,0,0.459,0.0781,0.6211,0.2334c0.1616,0.1563,0.2427,0.3604,0.2427,0.6123c0,0.2402-0.0811,0.4346-0.2427,0.585
				c-0.1621,0.1504-0.3691,0.2246-0.6211,0.2246h-5.3462v3.6719h4.5361c0.252,0,0.459,0.0791,0.6211,0.2344
				c0.1621,0.1563,0.2427,0.3545,0.2427,0.5938c0,0.252-0.0806,0.4502-0.2427,0.5947c-0.1621,0.1436-0.3691,0.2158-0.6211,0.2158
				h-4.5361v3.9775h5.3462C304.3595,104.4805,304.5666,104.5644,304.7287,104.7324z"/>
			<path d="M317.1217,105.0117c0.0723,0.126,0.1084,0.2549,0.1084,0.3867c0,0.252-0.0811,0.4385-0.2432,0.5586
				s-0.3574,0.1797-0.585,0.1797c-0.2285,0-0.4209-0.0479-0.5762-0.1436c-0.3604-0.2041-0.6543-0.5342-0.8818-0.9902
				c-0.2285-0.4561-0.3418-1.1279-0.3418-2.0166c0-0.5996-0.1807-1.0439-0.54-1.332c-0.3604-0.2871-0.8281-0.4316-1.4043-0.4316
				h-3.6357v4.0498c0,0.252-0.0723,0.459-0.2168,0.6211c-0.1436,0.1621-0.3301,0.2432-0.5576,0.2432
				c-0.2764,0-0.5132-0.084-0.7109-0.252c-0.1982-0.168-0.2969-0.3721-0.2969-0.6123V94.4004c0-0.2393,0.0835-0.4434,0.252-0.6113
				c0.168-0.168,0.3716-0.252,0.6118-0.252h5.0581c0.6484,0,1.2422,0.1592,1.7822,0.4766c0.54,0.3184,0.9717,0.7559,1.2959,1.3145
				c0.3242,0.5576,0.4863,1.1846,0.4863,1.8809c0,0.6719-0.1807,1.2988-0.54,1.8809c-0.3604,0.582-0.8223,1.0166-1.3867,1.3047
				c0.4443,0.2285,0.7949,0.5459,1.0537,0.9541c0.2578,0.4082,0.3984,0.8818,0.4229,1.4219
				c0.0479,0.6846,0.1016,1.1494,0.1621,1.3955c0.0596,0.2461,0.1914,0.4229,0.3955,0.5303
				C316.9538,104.7812,317.0495,104.8857,317.1217,105.0117z M313.9811,99.3691c0.2695-0.2168,0.4883-0.5068,0.6563-0.873
				s0.252-0.7773,0.252-1.2334c0-0.5762-0.1768-1.0645-0.5303-1.4668c-0.3545-0.4023-0.7832-0.6035-1.2871-0.6035h-4.0498v4.5361
				h4.1035C313.4254,99.7051,313.7106,99.5849,313.9811,99.3691z"/>
		</g>
		<g id="Rounded_Rectangle_519_copy_17">
			<path class="st0" d="M368.213,71.1836h47.8049c15.7164,0,28.457,12.7397,28.457,28.4551l0,0
				c0,15.7153-12.7407,28.4551-28.457,28.4551H368.213c-15.7164,0-28.457-12.7397-28.457-28.4551l0,0
				C339.756,83.9233,352.4967,71.1836,368.213,71.1836z"/>
			<path class="st1" d="M416.0177,128.5937H368.213c-15.9668,0-28.957-12.9893-28.957-28.9551s12.9902-28.9551,28.957-28.9551
				h47.8047c15.9668,0,28.957,12.9893,28.957,28.9551S431.9845,128.5937,416.0177,128.5937z M368.213,71.6836
				c-15.4155,0-27.957,12.541-27.957,27.9551s12.5415,27.9551,27.957,27.9551h47.8047c15.4155,0,27.957-12.541,27.957-27.9551
				s-12.5415-27.9551-27.957-27.9551H368.213z"/>
		</g>
		<g id="USER_copy_13" class="st2">
			<path d="M378.4709,93.7617c0.1499,0.1621,0.2251,0.3691,0.2251,0.6211v6.9121c0,0.9482-0.21,1.7998-0.6299,2.5557
				c-0.4204,0.7559-0.999,1.3477-1.7373,1.7734c-0.7378,0.4258-1.5688,0.6387-2.4927,0.6387c-0.936,0-1.7764-0.2129-2.52-0.6387
				c-0.7441-0.4258-1.3262-1.0176-1.7461-1.7734c-0.4204-0.7559-0.6299-1.6074-0.6299-2.5557v-6.9121
				c0-0.252,0.0835-0.459,0.252-0.6211c0.168-0.1621,0.3838-0.2432,0.6479-0.2432c0.2275,0,0.4287,0.084,0.603,0.252
				c0.1738,0.168,0.2607,0.3721,0.2607,0.6123v6.9121c0,0.624,0.144,1.1846,0.4321,1.6826s0.6719,0.8857,1.1519,1.1611
				c0.48,0.2764,0.9961,0.4141,1.5483,0.4141c0.5757,0,1.1099-0.1377,1.6021-0.4141c0.4917-0.2754,0.8848-0.6631,1.1787-1.1611
				s0.4409-1.0586,0.4409-1.6826v-6.9121c0-0.252,0.0723-0.459,0.2163-0.6211s0.3418-0.2432,0.5938-0.2432
				S378.321,93.5996,378.4709,93.7617z"/>
			<path d="M382.9977,105.9473c-0.6719-0.2451-1.314-0.6445-1.9258-1.1963c-0.252-0.2158-0.3779-0.4619-0.3779-0.7383
				c0-0.2158,0.0835-0.4111,0.252-0.585c0.168-0.1738,0.3657-0.2607,0.5938-0.2607c0.2041,0,0.3784,0.0654,0.522,0.1973
				c0.48,0.4443,0.9751,0.7715,1.4854,0.9814c0.5098,0.21,1.0889,0.3154,1.7368,0.3154c0.7559,0,1.395-0.1738,1.917-0.5225
				c0.522-0.3477,0.7832-0.7861,0.7832-1.3135c-0.0122-0.624-0.2734-1.1074-0.7832-1.4492
				c-0.5103-0.3418-1.2871-0.627-2.3311-0.8555c-1.2358-0.252-2.187-0.666-2.853-1.2422c-0.666-0.5752-0.999-1.373-0.999-2.3936
				c0-0.708,0.186-1.3291,0.5581-1.8633c0.3721-0.5332,0.8882-0.9443,1.5479-1.2324c0.6602-0.2881,1.4043-0.4326,2.2324-0.4326
				c0.7437,0,1.4458,0.1201,2.106,0.3604c0.6597,0.2402,1.1938,0.5576,1.6021,0.9541c0.2759,0.2402,0.4136,0.498,0.4136,0.7734
				c0,0.2168-0.0806,0.4082-0.2427,0.5762s-0.3574,0.252-0.585,0.252c-0.1685,0-0.3062-0.0479-0.4141-0.1436
				c-0.3125-0.3125-0.7441-0.5762-1.2959-0.792c-0.5522-0.2158-1.0801-0.3242-1.584-0.3242c-0.8042,0-1.4434,0.165-1.917,0.4951
				c-0.4746,0.3301-0.7114,0.7646-0.7114,1.3047c0,0.5879,0.2368,1.0381,0.7114,1.3506c0.4736,0.3115,1.1787,0.5752,2.1147,0.792
				c0.936,0.2041,1.7012,0.4434,2.2949,0.7197c0.5942,0.2764,1.0532,0.6602,1.377,1.1523c0.3242,0.4922,0.4863,1.1338,0.4863,1.9258
				c0,0.6963-0.1953,1.3135-0.585,1.8535c-0.3901,0.54-0.9214,0.9609-1.5933,1.2607s-1.4102,0.4492-2.2139,0.4492
				C384.444,106.3164,383.6696,106.1933,382.9977,105.9473z"/>
			<path d="M399.7287,104.7324c0.1616,0.1689,0.2427,0.3662,0.2427,0.5947c0,0.2402-0.0811,0.4346-0.2427,0.585
				c-0.1621,0.1494-0.3691,0.2246-0.6211,0.2246h-6.2642c-0.2402,0-0.4438-0.084-0.6118-0.252
				c-0.1685-0.168-0.252-0.3721-0.252-0.6123V94.4004c0-0.2393,0.0835-0.4434,0.252-0.6113c0.168-0.168,0.3716-0.252,0.6118-0.252
				h6.2642c0.252,0,0.459,0.0781,0.6211,0.2334c0.1616,0.1563,0.2427,0.3604,0.2427,0.6123c0,0.2402-0.0811,0.4346-0.2427,0.585
				c-0.1621,0.1504-0.3691,0.2246-0.6211,0.2246h-5.3462v3.6719h4.5361c0.252,0,0.459,0.0791,0.6211,0.2344
				c0.1621,0.1563,0.2427,0.3545,0.2427,0.5938c0,0.252-0.0806,0.4502-0.2427,0.5947c-0.1621,0.1436-0.3691,0.2158-0.6211,0.2158
				h-4.5361v3.9775h5.3462C399.3595,104.4805,399.5666,104.5644,399.7287,104.7324z"/>
			<path d="M412.1217,105.0117c0.0723,0.126,0.1084,0.2549,0.1084,0.3867c0,0.252-0.0811,0.4385-0.2432,0.5586
				s-0.3574,0.1797-0.585,0.1797c-0.2285,0-0.4209-0.0479-0.5762-0.1436c-0.3604-0.2041-0.6543-0.5342-0.8818-0.9902
				c-0.2285-0.4561-0.3418-1.1279-0.3418-2.0166c0-0.5996-0.1807-1.0439-0.54-1.332c-0.3604-0.2871-0.8281-0.4316-1.4043-0.4316
				h-3.6357v4.0498c0,0.252-0.0723,0.459-0.2168,0.6211c-0.1436,0.1621-0.3301,0.2432-0.5576,0.2432
				c-0.2764,0-0.5132-0.084-0.7109-0.252c-0.1982-0.168-0.2969-0.3721-0.2969-0.6123V94.4004c0-0.2393,0.0835-0.4434,0.252-0.6113
				c0.168-0.168,0.3716-0.252,0.6118-0.252h5.0581c0.6484,0,1.2422,0.1592,1.7822,0.4766c0.54,0.3184,0.9717,0.7559,1.2959,1.3145
				c0.3242,0.5576,0.4863,1.1846,0.4863,1.8809c0,0.6719-0.1807,1.2988-0.54,1.8809c-0.3604,0.582-0.8223,1.0166-1.3867,1.3047
				c0.4443,0.2285,0.7949,0.5459,1.0537,0.9541c0.2578,0.4082,0.3984,0.8818,0.4229,1.4219
				c0.0479,0.6846,0.1016,1.1494,0.1621,1.3955c0.0596,0.2461,0.1914,0.4229,0.3955,0.5303
				C411.9538,104.7812,412.0495,104.8857,412.1217,105.0117z M408.9811,99.3691c0.2695-0.2168,0.4883-0.5068,0.6563-0.873
				s0.252-0.7773,0.252-1.2334c0-0.5762-0.1768-1.0645-0.5303-1.4668c-0.3545-0.4023-0.7832-0.6035-1.2871-0.6035h-4.0498v4.5361
				h4.1035C408.4254,99.7051,408.7106,99.5849,408.9811,99.3691z"/>
		</g>
	</g>
	<g id="Rounded_Rectangle_519_copy_17-2">
		<path class="st0" d="M416.213,1.1836h47.8049c15.7164,0,28.457,12.7397,28.457,28.4551l0,0
			c0,15.7153-12.7407,28.4551-28.457,28.4551H416.213c-15.7164,0-28.457-12.7397-28.457-28.4551l0,0
			C387.756,13.9233,400.4967,1.1836,416.213,1.1836z"/>
		<path class="st1" d="M464.0177,58.5937H416.213c-15.9668,0-28.957-12.9893-28.957-28.9551s12.9902-28.9551,28.957-28.9551h47.8047
			c15.9668,0,28.957,12.9893,28.957,28.9551S479.9845,58.5937,464.0177,58.5937z M416.213,1.6836
			c-15.4155,0-27.957,12.541-27.957,27.9551s12.5415,27.9551,27.957,27.9551h47.8047c15.4155,0,27.957-12.541,27.957-27.9551
			s-12.5415-27.9551-27.957-27.9551H416.213z"/>
	</g>
	<g id="USER_copy_13-2" class="st2">
		<path d="M426.4699,23.7617c0.1499,0.1621,0.2251,0.3691,0.2251,0.6211v6.9121c0,0.9482-0.21,1.7998-0.6299,2.5557
			c-0.4204,0.7559-0.999,1.3477-1.7373,1.7734c-0.7378,0.4258-1.5688,0.6387-2.4927,0.6387c-0.936,0-1.7764-0.2129-2.52-0.6387
			c-0.7441-0.4258-1.3262-1.0176-1.7461-1.7734c-0.4204-0.7559-0.6299-1.6074-0.6299-2.5557v-6.9121
			c0-0.252,0.0835-0.459,0.252-0.6211c0.168-0.1621,0.3838-0.2432,0.6479-0.2432c0.2275,0,0.4287,0.084,0.603,0.252
			c0.1738,0.168,0.2607,0.3721,0.2607,0.6123v6.9121c0,0.624,0.144,1.1846,0.4321,1.6826s0.6719,0.8857,1.1519,1.1611
			c0.48,0.2764,0.9961,0.4141,1.5483,0.4141c0.5757,0,1.1099-0.1377,1.6021-0.4141c0.4917-0.2754,0.8848-0.6631,1.1787-1.1611
			s0.4409-1.0586,0.4409-1.6826v-6.9121c0-0.252,0.0723-0.459,0.2163-0.6211s0.3418-0.2432,0.5938-0.2432
			S426.32,23.5996,426.4699,23.7617z"/>
		<path d="M430.9967,35.9473c-0.6719-0.2451-1.314-0.6445-1.9258-1.1963c-0.252-0.2158-0.3779-0.4619-0.3779-0.7383
			c0-0.2158,0.0835-0.4111,0.252-0.585c0.168-0.1738,0.3657-0.2607,0.5938-0.2607c0.2041,0,0.3784,0.0654,0.522,0.1973
			c0.48,0.4443,0.9751,0.7715,1.4854,0.9814c0.5098,0.21,1.0889,0.3154,1.7368,0.3154c0.7559,0,1.395-0.1738,1.917-0.5225
			c0.522-0.3477,0.7832-0.7861,0.7832-1.3135c-0.0122-0.624-0.2734-1.1074-0.7832-1.4492c-0.5103-0.3418-1.2871-0.627-2.3311-0.8555
			c-1.2358-0.252-2.187-0.666-2.853-1.2422c-0.666-0.5752-0.999-1.373-0.999-2.3936c0-0.708,0.186-1.3291,0.5581-1.8633
			c0.3721-0.5332,0.8882-0.9443,1.5479-1.2324c0.6602-0.2881,1.4043-0.4326,2.2324-0.4326c0.7437,0,1.4458,0.1201,2.106,0.3604
			c0.6597,0.2402,1.1938,0.5576,1.6021,0.9541c0.2759,0.2402,0.4136,0.498,0.4136,0.7734c0,0.2168-0.0806,0.4082-0.2427,0.5762
			s-0.3574,0.252-0.585,0.252c-0.1685,0-0.3062-0.0479-0.4141-0.1436c-0.3125-0.3125-0.7441-0.5762-1.2959-0.792
			c-0.5522-0.2158-1.0801-0.3242-1.584-0.3242c-0.8042,0-1.4434,0.165-1.917,0.4951c-0.4746,0.3301-0.7114,0.7646-0.7114,1.3047
			c0,0.5879,0.2368,1.0381,0.7114,1.3506c0.4736,0.3115,1.1787,0.5752,2.1147,0.792c0.936,0.2041,1.7012,0.4434,2.2949,0.7197
			c0.5942,0.2764,1.0532,0.6602,1.377,1.1523c0.3242,0.4922,0.4863,1.1338,0.4863,1.9258c0,0.6963-0.1953,1.3135-0.585,1.8535
			c-0.3901,0.54-0.9214,0.9609-1.5933,1.2607s-1.4102,0.4492-2.2139,0.4492C432.443,36.3164,431.6686,36.1933,430.9967,35.9473z"/>
		<path d="M447.7277,34.7324c0.1616,0.1689,0.2427,0.3662,0.2427,0.5947c0,0.2402-0.0811,0.4346-0.2427,0.585
			c-0.1621,0.1494-0.3691,0.2246-0.6211,0.2246h-6.2642c-0.2402,0-0.4438-0.084-0.6118-0.252
			c-0.1685-0.168-0.252-0.3721-0.252-0.6123V24.4004c0-0.2393,0.0835-0.4434,0.252-0.6113c0.168-0.168,0.3716-0.252,0.6118-0.252
			h6.2642c0.252,0,0.459,0.0781,0.6211,0.2334c0.1616,0.1563,0.2427,0.3604,0.2427,0.6123c0,0.2402-0.0811,0.4346-0.2427,0.585
			c-0.1621,0.1504-0.3691,0.2246-0.6211,0.2246h-5.3462v3.6719h4.5361c0.252,0,0.459,0.0791,0.6211,0.2344
			c0.1621,0.1563,0.2427,0.3545,0.2427,0.5938c0,0.252-0.0806,0.4502-0.2427,0.5947c-0.1621,0.1436-0.3691,0.2158-0.6211,0.2158
			h-4.5361v3.9775h5.3462C447.3586,34.4805,447.5656,34.5644,447.7277,34.7324z"/>
		<path d="M460.1208,35.0117c0.0723,0.126,0.1084,0.2549,0.1084,0.3867c0,0.252-0.0811,0.4385-0.2432,0.5586
			s-0.3574,0.1797-0.585,0.1797c-0.2285,0-0.4209-0.0479-0.5762-0.1436c-0.3604-0.2041-0.6543-0.5342-0.8818-0.9902
			c-0.2285-0.4561-0.3418-1.1279-0.3418-2.0166c0-0.5996-0.1807-1.0439-0.54-1.332c-0.3604-0.2871-0.8281-0.4316-1.4043-0.4316
			h-3.6357v4.0498c0,0.252-0.0723,0.459-0.2168,0.6211c-0.1436,0.1621-0.3301,0.2432-0.5576,0.2432
			c-0.2764,0-0.5132-0.084-0.7109-0.252c-0.1982-0.168-0.2969-0.3721-0.2969-0.6123V24.4004c0-0.2393,0.0835-0.4434,0.252-0.6113
			c0.168-0.168,0.3716-0.252,0.6118-0.252h5.0581c0.6484,0,1.2422,0.1592,1.7822,0.4766c0.54,0.3184,0.9717,0.7559,1.2959,1.3145
			c0.3242,0.5576,0.4863,1.1846,0.4863,1.8809c0,0.6719-0.1807,1.2988-0.54,1.8809c-0.3604,0.582-0.8223,1.0166-1.3867,1.3047
			c0.4443,0.2285,0.7949,0.5459,1.0537,0.9541c0.2578,0.4082,0.3984,0.8818,0.4229,1.4219
			c0.0479,0.6846,0.1016,1.1494,0.1621,1.3955c0.0596,0.2461,0.1914,0.4229,0.3955,0.5303
			C459.9528,34.7812,460.0485,34.8857,460.1208,35.0117z M456.9801,29.3691c0.2695-0.2168,0.4883-0.5068,0.6563-0.873
			s0.252-0.7773,0.252-1.2334c0-0.5762-0.1768-1.0645-0.5303-1.4668c-0.3545-0.4023-0.7832-0.6035-1.2871-0.6035h-4.0498v4.5361
			h4.1035C456.4245,29.7051,456.7096,29.5849,456.9801,29.3691z"/>
	</g>
	<g>
		<rect x="250.256" y="195.0937" class="st4" width="1" height="36"/>
	</g>
	<g>
		<path class="st3" d="M244.756,225.0937l6,6l6-6"/>
		<polygon class="st4" points="250.756,231.8008 244.4025,225.4473 245.1095,224.7402 250.756,230.3867 256.4025,224.7402 
			257.1095,225.4473 		"/>
	</g>
</g>
</svg>
