<?xml version="1.0" encoding="utf-8"?>
<!-- Generator: Adobe Illustrator 24.1.2, SVG Export Plug-In . SVG Version: 6.00 Build 0)  -->
<svg version="1.1" id="Layer_1" xmlns="http://www.w3.org/2000/svg" xmlns:xlink="http://www.w3.org/1999/xlink" x="0px" y="0px"
	 viewBox="0 0 500 338" style="enable-background:new 0 0 500 338;" xml:space="preserve">
<style type="text/css">
	.st0{fill-rule:evenodd;clip-rule:evenodd;fill:#FFFFFF;}
	.st1{fill:#B1B0B1;}
	.st2{enable-background:new    ;}
	.st3{fill:#989898;}
	.st4{fill:#FFFFFF;}
</style>
<g id="scheme">
	<g id="Rounded_Rectangle_519_copy_8">
		<path class="st0" d="M330.5,211.6597l-21.45,30.0801h48.7c26.3743,0.0586,47.7075,21.4863,47.649,47.8608
			c-0.0583,26.2915-21.3574,47.5908-47.649,47.6489H143.26c-26.3743,0.0586-47.8022-21.2749-47.8607-47.6489
			c-0.0585-26.3745,21.2747-47.8022,47.649-47.8608c0.0706,0,0.1411,0,0.2117,0H187.33l-20.83-30.0801"/>
		<path class="st1" d="M143.1504,337.7495c-26.5566,0.001-48.1924-21.5752-48.251-48.1475
			c-0.0596-26.6074,21.54-48.3027,48.1484-48.3623h43.3281l-20.2871-29.2959l0.8223-0.5684l21.373,30.8643h-45.2354
			c-26.0557,0.0576-47.207,21.3037-47.1494,47.3604c0.0576,26.0195,21.2461,47.1494,47.2529,47.1494c0.0361,0,0.0693,0,0.1064,0
			H357.75c25.9404-0.0576,47.0918-21.209,47.1494-47.1494c0.0566-26.0566-21.0947-47.3027-47.1504-47.3604h-49.6699l22.0137-30.8701
			l0.8145,0.5801l-20.8867,29.29H357.75c26.6084,0.0596,48.208,21.7549,48.1494,48.3623
			c-0.0586,26.4893-21.6582,48.0889-48.1484,48.1475H143.2598C143.2236,337.7495,143.1865,337.7495,143.1504,337.7495z"/>
	</g>
	<g id="Exchange_copy" class="st2">
		<path d="M205.2461,294.3013c0.1621,0.1689,0.2432,0.3662,0.2432,0.5947c0,0.2402-0.0811,0.4346-0.2432,0.585
			c-0.1621,0.1494-0.3691,0.2246-0.6211,0.2246h-6.2637c-0.2402,0-0.4443-0.084-0.6123-0.252s-0.252-0.3721-0.252-0.6123v-10.8721
			c0-0.2393,0.084-0.4434,0.252-0.6113s0.3721-0.252,0.6123-0.252h6.2637c0.252,0,0.459,0.0781,0.6211,0.2334
			c0.1621,0.1563,0.2432,0.3604,0.2432,0.6123c0,0.2402-0.0811,0.4346-0.2432,0.585s-0.3691,0.2246-0.6211,0.2246h-5.3457v3.6719
			h4.5361c0.252,0,0.459,0.0791,0.6211,0.2344c0.1621,0.1563,0.2422,0.3545,0.2422,0.5938c0,0.252-0.0801,0.4502-0.2422,0.5947
			c-0.1621,0.1436-0.3691,0.2158-0.6211,0.2158h-4.5361v3.9775h5.3457C204.877,294.0493,205.084,294.1333,205.2461,294.3013z"/>
		<path d="M218.5752,294.4097c0.1084,0.1436,0.1621,0.3184,0.1621,0.5215c0,0.252-0.0869,0.457-0.2607,0.6123
			c-0.1748,0.1563-0.3691,0.2344-0.585,0.2344c-0.3008,0-0.5342-0.1201-0.7021-0.3604l-3.4922-4.6797l-3.4199,4.6621
			c-0.1797,0.252-0.4141,0.3779-0.7021,0.3779c-0.2158,0-0.3994-0.0752-0.5488-0.2256c-0.1504-0.1494-0.2256-0.3203-0.2256-0.5127
			c0-0.2041,0.0723-0.4023,0.2168-0.5938l3.6895-5.0225l-3.708-4.9854c-0.1201-0.1563-0.1797-0.3301-0.1797-0.5225
			c0-0.2402,0.0869-0.4434,0.2607-0.6123c0.1738-0.168,0.375-0.252,0.6035-0.252c0.1318,0,0.2607,0.0303,0.3867,0.0898
			c0.126,0.0605,0.2305,0.1504,0.3145,0.2705l3.4561,4.6436l3.4209-4.5898c0.2031-0.2637,0.4316-0.3955,0.6836-0.3955
			c0.2158,0,0.4053,0.0811,0.5674,0.2432c0.1611,0.1611,0.2422,0.3447,0.2422,0.5488c0,0.1797-0.0596,0.3535-0.1797,0.5215
			l-3.7441,5.0039L218.5752,294.4097z"/>
		<path d="M231.6973,284.564c0,0.2158-0.0723,0.4141-0.2168,0.5938c-0.1436,0.1924-0.3418,0.2881-0.5938,0.2881
			c-0.168,0-0.3301-0.042-0.4863-0.126c-0.7441-0.4199-1.5479-0.6299-2.4111-0.6299c-0.9004,0-1.6953,0.1973-2.3857,0.5938
			c-0.6895,0.3955-1.2266,0.9512-1.6104,1.665c-0.3848,0.7139-0.5762,1.5332-0.5762,2.457c0,0.9961,0.1982,1.8535,0.5938,2.5742
			c0.3965,0.7197,0.9424,1.2686,1.6377,1.6465c0.6963,0.3779,1.4766,0.5674,2.3408,0.5674c0.8877,0,1.6914-0.2158,2.4111-0.6484
			c0.1445-0.0723,0.2998-0.1074,0.4688-0.1074c0.2637,0,0.4736,0.1016,0.6299,0.3057c0.1436,0.1797,0.2158,0.3721,0.2158,0.5762
			c0,0.1436-0.0391,0.2783-0.1172,0.4043s-0.1826,0.2256-0.3145,0.2979c-0.4688,0.2637-0.9932,0.4736-1.5752,0.6299
			c-0.582,0.1553-1.1553,0.2334-1.7188,0.2334c-1.1641,0-2.2354-0.2578-3.2139-0.7734c-0.9775-0.5156-1.7578-1.2666-2.3398-2.25
			c-0.582-0.9844-0.873-2.1357-0.873-3.4561c0-1.2119,0.2793-2.3066,0.8369-3.2852c0.5586-0.9775,1.3262-1.7461,2.3047-2.3037
			c0.9775-0.5586,2.0723-0.8369,3.2852-0.8369c1.1631,0,2.2559,0.2871,3.2754,0.8633
			C231.5527,283.9995,231.6973,284.2397,231.6973,284.564z"/>
		<path d="M245.2861,283.3481c0.168,0.1621,0.252,0.3691,0.252,0.6211v10.8545c-0.0117,0.252-0.1016,0.4619-0.2695,0.6299
			s-0.3838,0.252-0.6484,0.252c-0.2402,0-0.4473-0.084-0.6211-0.252s-0.2607-0.3779-0.2607-0.6299v-4.6621h-6.3896v4.6621
			c0,0.252-0.0898,0.4619-0.2705,0.6299c-0.1797,0.168-0.3896,0.252-0.6299,0.252c-0.2637,0-0.4766-0.084-0.6387-0.252
			s-0.2432-0.3779-0.2432-0.6299v-10.8545c0-0.2393,0.084-0.4434,0.252-0.6113s0.3838-0.252,0.6484-0.252
			c0.2393,0,0.4463,0.084,0.6211,0.252c0.1738,0.168,0.2607,0.3721,0.2607,0.6113v4.5361h6.3896v-4.5361
			c0-0.2393,0.0898-0.4434,0.2705-0.6113c0.1797-0.168,0.3896-0.252,0.6299-0.252
			C244.9023,283.106,245.1182,283.187,245.2861,283.3481z"/>
		<path d="M260.0469,294.9312c0,0.2402-0.0811,0.4385-0.2432,0.5947s-0.3506,0.2334-0.5674,0.2334
			c-0.168,0-0.3213-0.0508-0.459-0.1523c-0.1377-0.1025-0.249-0.2432-0.333-0.4238l-1.1152-2.6455h-5.5625l-1.0977,2.6641
			c-0.0605,0.1797-0.1592,0.3184-0.2969,0.4141c-0.1387,0.0957-0.291,0.1436-0.459,0.1436c-0.252,0-0.4443-0.0654-0.5762-0.1973
			c-0.1328-0.1328-0.1982-0.3125-0.1982-0.54c0-0.0479,0.0117-0.1445,0.0361-0.2881l4.5898-11.124
			c0.084-0.1924,0.2012-0.3389,0.3506-0.4414c0.1504-0.1016,0.3213-0.1406,0.5137-0.1172c0.1797,0,0.3418,0.0488,0.4854,0.1445
			c0.1445,0.0957,0.2461,0.2334,0.3066,0.4141l4.5723,10.9795C260.0283,294.6978,260.0469,294.812,260.0469,294.9312z
			 M252.4512,290.8999h4.1934l-2.1055-5.04L252.4512,290.8999z"/>
		<path d="M273.6367,283.3306c0.1436,0.1504,0.2158,0.3389,0.2158,0.5674v10.9258c0,0.252-0.0811,0.4619-0.2432,0.6299
			s-0.3691,0.252-0.6211,0.252c-0.1318,0-0.2607-0.0205-0.3867-0.0635c-0.126-0.041-0.2246-0.1045-0.2969-0.1885l-7.0742-9.2158
			v8.6758c0,0.2285-0.0752,0.417-0.2246,0.5674c-0.1504,0.1494-0.3398,0.2246-0.5674,0.2246s-0.4141-0.0752-0.5576-0.2246
			c-0.1445-0.1504-0.2158-0.3389-0.2158-0.5674v-10.9443c0-0.252,0.0811-0.459,0.2422-0.6211
			c0.1621-0.1611,0.3633-0.2422,0.6035-0.2422c0.1436,0,0.2813,0.0264,0.4141,0.0811c0.1318,0.0537,0.2334,0.1289,0.3057,0.2246
			l7.0566,9.2344v-8.748c0-0.2285,0.0742-0.417,0.2246-0.5674c0.1494-0.1504,0.3389-0.2246,0.5674-0.2246
			C273.3066,283.106,273.4922,283.1802,273.6367,283.3306z"/>
		<path d="M288.4941,289.3335c0.1621,0.168,0.2441,0.3721,0.2441,0.6123v4.0498c0,0.3242-0.1445,0.5762-0.4316,0.7559
			c-0.5527,0.3604-1.1582,0.6387-1.8184,0.8369s-1.3379,0.2969-2.0342,0.2969c-1.2002,0-2.3008-0.2881-3.3027-0.8633
			c-1.002-0.5762-1.791-1.3594-2.3672-2.3496s-0.8643-2.0791-0.8643-3.2666c0-1.1885,0.2881-2.2773,0.8643-3.2676
			c0.5762-0.9893,1.3652-1.7725,2.3672-2.3486s2.1025-0.8643,3.3027-0.8643c0.5996,0,1.1787,0.0664,1.7373,0.1982
			c0.5566,0.1318,1.0586,0.3301,1.502,0.5938c0.1445,0.084,0.252,0.1865,0.3242,0.3066s0.1094,0.252,0.1094,0.3955
			c0,0.2402-0.082,0.4473-0.2441,0.6211s-0.3574,0.2607-0.584,0.2607c-0.1816,0-0.3379-0.042-0.4688-0.126
			c-0.7793-0.3594-1.5723-0.54-2.376-0.54c-0.8643,0-1.6533,0.21-2.3672,0.6299c-0.7139,0.4209-1.2773,0.9971-1.6914,1.7285
			c-0.4141,0.7324-0.6211,1.5361-0.6211,2.4121s0.207,1.6768,0.6211,2.4023c0.4141,0.7266,0.9775,1.3027,1.6914,1.7285
			s1.5029,0.6387,2.3672,0.6387c0.4072,0,0.8369-0.0479,1.2861-0.1436c0.4512-0.0957,0.8379-0.2217,1.1621-0.3779v-2.8623h-2.1777
			c-0.2402,0-0.4443-0.0811-0.6123-0.2432s-0.252-0.3623-0.252-0.6025c0-0.252,0.084-0.459,0.252-0.6211
			s0.3721-0.2432,0.6123-0.2432h3.168C288.1328,289.0815,288.332,289.1655,288.4941,289.3335z"/>
		<path d="M300.6992,294.3013c0.1621,0.1689,0.2432,0.3662,0.2432,0.5947c0,0.2402-0.0811,0.4346-0.2432,0.585
			c-0.1621,0.1494-0.3691,0.2246-0.6211,0.2246h-6.2637c-0.2402,0-0.4443-0.084-0.6123-0.252s-0.252-0.3721-0.252-0.6123v-10.8721
			c0-0.2393,0.084-0.4434,0.252-0.6113s0.3721-0.252,0.6123-0.252h6.2637c0.252,0,0.459,0.0781,0.6211,0.2334
			c0.1621,0.1563,0.2432,0.3604,0.2432,0.6123c0,0.2402-0.0811,0.4346-0.2432,0.585s-0.3691,0.2246-0.6211,0.2246h-5.3457v3.6719
			h4.5352c0.2529,0,0.46,0.0791,0.6211,0.2344c0.1621,0.1563,0.2432,0.3545,0.2432,0.5938c0,0.252-0.0811,0.4502-0.2432,0.5947
			c-0.1611,0.1436-0.3682,0.2158-0.6211,0.2158h-4.5352v3.9775h5.3457C300.3301,294.0493,300.5371,294.1333,300.6992,294.3013z"/>
	</g>
	<g id="Shape_536_copy_6">
		<polygon class="st3" points="288,230.6597 287,230.6597 287,184.1597 422,184.1597 422,161.6597 423,161.6597 423,185.1597 
			288,185.1597 		"/>
	</g>
	<g id="Shape_537_copy_6">
		<path class="st0" d="M281.5,224.6597l6,6l6-6"/>
		<polygon class="st3" points="287.5,231.3667 281.1465,225.0132 281.8535,224.3062 287.5,229.9526 293.1465,224.3062 
			293.8535,225.0132 		"/>
	</g>
	<g id="Shape_536_copy_7">
		<polygon class="st3" points="213,230.6597 212,230.6597 212,185.1597 77,185.1597 77,161.6597 78,161.6597 78,184.1597 
			213,184.1597 		"/>
	</g>
	<g id="Shape_537_copy_8">
		<path class="st0" d="M206.5,224.6597l6,6l6-6"/>
		<polygon class="st3" points="212.5,231.3667 206.1465,225.0132 206.8535,224.3062 212.5,229.9526 218.1465,224.3062 
			218.8535,225.0132 		"/>
	</g>
	<g>
		<g id="Rounded_Rectangle_519_copy_9">
			<path class="st4" d="M189.957,104.7495h117.8059c15.7163,0,28.457,12.7397,28.457,28.4551l0,0
				c0,15.7153-12.7407,28.4551-28.457,28.4551H189.957c-15.7163,0-28.457-12.7397-28.457-28.4551l0,0
				C161.5,117.4893,174.2407,104.7495,189.957,104.7495z"/>
			<path class="st1" d="M307.7627,162.1597H189.957c-15.9668,0-28.957-12.9893-28.957-28.9551s12.9902-28.9551,28.957-28.9551
				h117.8057c15.9668,0,28.957,12.9893,28.957,28.9551S323.7295,162.1597,307.7627,162.1597z M189.957,105.2495
				c-15.416,0-27.957,12.541-27.957,27.9551s12.541,27.9551,27.957,27.9551h117.8057c15.416,0,27.957-12.541,27.957-27.9551
				s-12.541-27.9551-27.957-27.9551H189.957z"/>
		</g>
		<g id="BROKER" class="st2">
			<path d="M222.5479,133.9556c0.4258,0.5225,0.6396,1.2031,0.6396,2.043c0,1.332-0.3877,2.2832-1.1611,2.8525
				c-0.7744,0.5703-1.7188,0.8555-2.835,0.8555h-4.626c-0.2402,0-0.4443-0.084-0.6123-0.252s-0.252-0.3721-0.252-0.6123v-10.8721
				c0-0.2393,0.084-0.4434,0.252-0.6113s0.3721-0.252,0.6123-0.252h4.626c1.0918,0,1.9229,0.2695,2.4932,0.8096
				c0.5693,0.54,0.8545,1.3203,0.8545,2.3398c0,0.5762-0.1377,1.0889-0.4141,1.5391s-0.6777,0.7949-1.2061,1.0352
				C221.5791,133.0591,222.1221,133.4331,222.5479,133.9556z M220.2266,129.2397c-0.3066-0.2939-0.7354-0.4414-1.2871-0.4414
				h-3.4023v3.5098h3.4385c0.4912-0.0117,0.8994-0.1709,1.2236-0.4766s0.4863-0.7412,0.4863-1.3047
				C220.6855,129.9624,220.5322,129.5337,220.2266,129.2397z M220.7568,137.5376c0.3965-0.3418,0.5947-0.8555,0.5947-1.5391
				c0-1.332-0.7559-1.998-2.2686-1.998h-3.5459v4.0498h3.6357C219.833,138.0503,220.3613,137.8794,220.7568,137.5376z"/>
			<path d="M235.3369,138.5815c0.0723,0.126,0.1084,0.2549,0.1084,0.3867c0,0.252-0.0811,0.4385-0.2432,0.5586
				s-0.3574,0.1797-0.585,0.1797c-0.2285,0-0.4199-0.0479-0.5762-0.1436c-0.3594-0.2041-0.6543-0.5342-0.8818-0.9902
				c-0.2285-0.4561-0.3418-1.1279-0.3418-2.0166c0-0.5996-0.1807-1.0439-0.54-1.332c-0.3604-0.2871-0.8281-0.4316-1.4043-0.4316
				h-3.6357v4.0498c0,0.252-0.0723,0.459-0.2158,0.6211c-0.1445,0.1621-0.3301,0.2432-0.5586,0.2432
				c-0.2764,0-0.5127-0.084-0.7109-0.252s-0.2969-0.3721-0.2969-0.6123v-10.8721c0-0.2393,0.084-0.4434,0.252-0.6113
				s0.3721-0.252,0.6123-0.252h5.0576c0.6484,0,1.2422,0.1592,1.7822,0.4766c0.54,0.3184,0.9717,0.7559,1.2959,1.3145
				c0.3242,0.5576,0.4863,1.1846,0.4863,1.8809c0,0.6719-0.1807,1.2988-0.54,1.8809c-0.3604,0.582-0.8223,1.0166-1.3857,1.3047
				c0.4434,0.2285,0.7939,0.5459,1.0527,0.9541c0.2578,0.4082,0.3984,0.8818,0.4229,1.4219
				c0.0479,0.6846,0.1016,1.1494,0.1621,1.3955c0.0596,0.2461,0.1914,0.4229,0.3955,0.5303
				C235.1689,138.3511,235.2656,138.4556,235.3369,138.5815z M232.1963,132.939c0.2695-0.2168,0.4883-0.5068,0.6572-0.873
				c0.168-0.3662,0.252-0.7773,0.252-1.2334c0-0.5762-0.1777-1.0645-0.5313-1.4668c-0.3545-0.4023-0.7832-0.6035-1.2871-0.6035
				h-4.0498v4.5361h4.1035C231.6406,133.2749,231.9258,133.1548,232.1963,132.939z"/>
			<path d="M248.1807,136.7007c-0.5225,0.9844-1.2451,1.7607-2.1689,2.3311c-0.9248,0.5703-1.9688,0.8545-3.1328,0.8545
				s-2.208-0.2842-3.1318-0.8545s-1.6465-1.3467-2.1689-2.3311c-0.5215-0.9844-0.7832-2.082-0.7832-3.2939
				s0.2617-2.3105,0.7832-3.2939c0.5225-0.9844,1.2451-1.7607,2.1689-2.3311s1.9678-0.8555,3.1318-0.8555
				s2.208,0.2852,3.1328,0.8555c0.9238,0.5703,1.6465,1.3467,2.1689,2.3311c0.5215,0.9834,0.7822,2.082,0.7822,3.2939
				S248.7021,135.7163,248.1807,136.7007z M246.5693,130.9673c-0.3604-0.7256-0.8613-1.2959-1.5029-1.71
				c-0.6426-0.4141-1.3711-0.6211-2.1875-0.6211c-0.8154,0-1.5449,0.2041-2.1865,0.6123c-0.6426,0.4082-1.1436,0.9756-1.5029,1.7012
				c-0.3604,0.7256-0.54,1.5449-0.54,2.457c0,0.8994,0.1797,1.7129,0.54,2.4385c0.3594,0.7266,0.8604,1.2959,1.5029,1.71
				c0.6416,0.4141,1.3711,0.6211,2.1865,0.6211c0.8164,0,1.5449-0.207,2.1875-0.6211c0.6416-0.4141,1.1426-0.9834,1.5029-1.71
				c0.3604-0.7256,0.54-1.5391,0.54-2.4385C247.1094,132.5063,246.9297,131.6938,246.5693,130.9673z"/>
			<path d="M261.0049,138.8423c0,0.2646-0.0986,0.4805-0.2969,0.6484c-0.1973,0.168-0.4229,0.252-0.6748,0.252
				c-0.2402,0-0.4502-0.1084-0.6299-0.3242l-4.374-5.6338l-2.0156,1.9082v3.1318c0,0.252-0.084,0.4619-0.252,0.6299
				c-0.1689,0.168-0.3848,0.252-0.6484,0.252s-0.4766-0.084-0.6387-0.252s-0.2432-0.3779-0.2432-0.6299v-10.8545
				c0-0.2393,0.084-0.4434,0.252-0.6113s0.3838-0.252,0.6475-0.252c0.2646,0,0.4775,0.0811,0.6396,0.2422
				c0.1621,0.1621,0.2432,0.3691,0.2432,0.6211v5.5986l6.3896-6.1924c0.2275-0.2041,0.4561-0.3057,0.6836-0.3057
				c0.2168,0,0.4023,0.0898,0.5586,0.2695c0.1553,0.1807,0.2334,0.3721,0.2334,0.5762c0,0.1797-0.084,0.3662-0.252,0.5576
				l-4.2656,4.0322l4.4463,5.7422C260.9395,138.4165,261.0049,138.6147,261.0049,138.8423z"/>
			<path d="M270.9141,138.3022c0.1621,0.1689,0.2432,0.3662,0.2432,0.5947c0,0.2402-0.0811,0.4346-0.2432,0.585
				c-0.1621,0.1494-0.3691,0.2246-0.6211,0.2246h-6.2637c-0.2402,0-0.4443-0.084-0.6123-0.252s-0.252-0.3721-0.252-0.6123v-10.8721
				c0-0.2393,0.084-0.4434,0.252-0.6113s0.3721-0.252,0.6123-0.252h6.2637c0.252,0,0.459,0.0781,0.6211,0.2334
				c0.1621,0.1563,0.2432,0.3604,0.2432,0.6123c0,0.2402-0.0811,0.4346-0.2432,0.585s-0.3691,0.2246-0.6211,0.2246h-5.3457v3.6719
				h4.5352c0.2529,0,0.46,0.0791,0.6211,0.2344c0.1621,0.1563,0.2432,0.3545,0.2432,0.5938c0,0.252-0.0811,0.4502-0.2432,0.5947
				c-0.1611,0.1436-0.3682,0.2158-0.6211,0.2158h-4.5352v3.9775h5.3457C270.5449,138.0503,270.752,138.1343,270.9141,138.3022z"/>
			<path d="M283.3066,138.5815c0.0723,0.126,0.1084,0.2549,0.1084,0.3867c0,0.252-0.0811,0.4385-0.2432,0.5586
				s-0.3574,0.1797-0.585,0.1797c-0.2285,0-0.4209-0.0479-0.5762-0.1436c-0.3604-0.2041-0.6543-0.5342-0.8818-0.9902
				c-0.2285-0.4561-0.3418-1.1279-0.3418-2.0166c0-0.5996-0.1807-1.0439-0.54-1.332c-0.3604-0.2871-0.8281-0.4316-1.4043-0.4316
				h-3.6357v4.0498c0,0.252-0.0723,0.459-0.2168,0.6211c-0.1436,0.1621-0.3301,0.2432-0.5576,0.2432
				c-0.2764,0-0.5127-0.084-0.7109-0.252s-0.2969-0.3721-0.2969-0.6123v-10.8721c0-0.2393,0.084-0.4434,0.252-0.6113
				s0.3721-0.252,0.6123-0.252h5.0576c0.6484,0,1.2422,0.1592,1.7822,0.4766c0.54,0.3184,0.9717,0.7559,1.2959,1.3145
				c0.3242,0.5576,0.4863,1.1846,0.4863,1.8809c0,0.6719-0.1807,1.2988-0.54,1.8809c-0.3604,0.582-0.8223,1.0166-1.3867,1.3047
				c0.4443,0.2285,0.7949,0.5459,1.0537,0.9541c0.2578,0.4082,0.3984,0.8818,0.4229,1.4219
				c0.0479,0.6846,0.1016,1.1494,0.1621,1.3955c0.0596,0.2461,0.1914,0.4229,0.3955,0.5303
				C283.1387,138.3511,283.2344,138.4556,283.3066,138.5815z M280.166,132.939c0.2695-0.2168,0.4883-0.5068,0.6563-0.873
				s0.252-0.7773,0.252-1.2334c0-0.5762-0.1768-1.0645-0.5303-1.4668c-0.3545-0.4023-0.7832-0.6035-1.2871-0.6035h-4.0498v4.5361
				h4.1035C279.6104,133.2749,279.8955,133.1548,280.166,132.939z"/>
		</g>
		<g id="Rounded_Rectangle_519_copy_10">
			<path class="st4" d="M161,12.6597h34c12.4264,0,22.5,10.0737,22.5,22.5l0,0c0,12.4263-10.0736,22.5-22.5,22.5h-34
				c-12.4264,0-22.5-10.0737-22.5-22.5l0,0C138.5,22.7334,148.5736,12.6597,161,12.6597z"/>
			<path class="st1" d="M195,58.1597h-34c-12.6826,0-23-10.3174-23-23s10.3174-23,23-23h34c12.6826,0,23,10.3174,23,23
				S207.6826,58.1597,195,58.1597z M161,13.1597c-12.1309,0-22,9.8691-22,22s9.8691,22,22,22h34c12.1309,0,22-9.8691,22-22
				s-9.8691-22-22-22H161z"/>
		</g>
		<g id="USER_copy_8" class="st2">
			<path d="M167.7031,30.5112c0.1133,0.1289,0.1699,0.292,0.1699,0.4912v5.4678c0,0.75-0.1582,1.4238-0.4746,2.0215
				c-0.3174,0.5986-0.7539,1.0664-1.3096,1.4023c-0.5566,0.3379-1.1836,0.5059-1.8799,0.5059c-0.7061,0-1.3398-0.168-1.9004-0.5059
				c-0.5615-0.3359-1-0.8037-1.3164-1.4023c-0.3164-0.5977-0.4746-1.2715-0.4746-2.0215v-5.4678
				c0-0.1992,0.0625-0.3623,0.1895-0.4912c0.127-0.1279,0.2891-0.1914,0.4883-0.1914c0.1719,0,0.3242,0.0664,0.4551,0.1992
				s0.1963,0.2939,0.1963,0.4834v5.4678c0,0.4941,0.1094,0.9375,0.3262,1.3311c0.2168,0.3945,0.5068,0.7002,0.8682,0.9189
				c0.3623,0.2178,0.751,0.3271,1.168,0.3271c0.4336,0,0.8369-0.1094,1.208-0.3271c0.3701-0.2188,0.667-0.5244,0.8887-0.9189
				c0.2217-0.3936,0.332-0.8369,0.332-1.3311v-5.4678c0-0.1992,0.0547-0.3623,0.1631-0.4912
				c0.1084-0.1279,0.2578-0.1914,0.4482-0.1914C167.4385,30.3198,167.5898,30.3833,167.7031,30.5112z"/>
			<path d="M171.1172,40.1509c-0.5068-0.1943-0.9912-0.5098-1.4521-0.9473c-0.1904-0.1709-0.2852-0.3652-0.2852-0.583
				c0-0.1709,0.0635-0.3252,0.1904-0.4629c0.126-0.1377,0.2754-0.207,0.4473-0.207c0.1543,0,0.2852,0.0527,0.3936,0.1572
				c0.3623,0.3506,0.7354,0.6094,1.1201,0.7754s0.8213,0.249,1.3096,0.249c0.5703,0,1.0518-0.1367,1.4453-0.4121
				s0.5908-0.6221,0.5908-1.04c-0.0098-0.4932-0.2061-0.875-0.5908-1.1455s-0.9707-0.4961-1.7578-0.6768
				c-0.9316-0.1992-1.6484-0.5264-2.1504-0.9824c-0.5029-0.4551-0.7539-1.0869-0.7539-1.8936c0-0.5596,0.1406-1.0508,0.4209-1.4736
				c0.2803-0.4219,0.6699-0.7471,1.167-0.9756c0.498-0.2275,1.0586-0.3418,1.6836-0.3418c0.5605,0,1.0898,0.0957,1.5879,0.2852
				c0.4971,0.1904,0.8994,0.4414,1.208,0.7549c0.208,0.1895,0.3115,0.3936,0.3115,0.6123c0,0.1709-0.0605,0.3223-0.1826,0.4551
				s-0.2695,0.1992-0.4414,0.1992c-0.127,0-0.2305-0.0371-0.3125-0.1133c-0.2354-0.2471-0.5605-0.4561-0.9766-0.627
				c-0.417-0.1709-0.8145-0.2559-1.1943-0.2559c-0.6064,0-1.0889,0.1299-1.4453,0.3916c-0.3584,0.2607-0.5361,0.6045-0.5361,1.0322
				c0,0.4648,0.1777,0.8213,0.5361,1.0674c0.3564,0.2471,0.8887,0.4561,1.5938,0.627c0.7061,0.1611,1.2832,0.3506,1.7305,0.5693
				c0.4482,0.2188,0.7939,0.5225,1.0391,0.9111c0.2441,0.3896,0.3662,0.8975,0.3662,1.5234c0,0.5508-0.1475,1.0391-0.4414,1.4668
				c-0.2939,0.4268-0.6943,0.7588-1.2012,0.9961s-1.0635,0.3564-1.6689,0.3564C172.207,40.4429,171.624,40.3452,171.1172,40.1509z"
				/>
			<path d="M183.7314,39.1899c0.123,0.1328,0.1836,0.2891,0.1836,0.4697c0,0.1895-0.0605,0.3438-0.1836,0.4629
				c-0.1221,0.1182-0.2773,0.1777-0.4678,0.1777h-4.7227c-0.1816,0-0.335-0.0664-0.4619-0.1992s-0.1895-0.2939-0.1895-0.4844
				v-8.5996c0-0.1895,0.0625-0.3506,0.1895-0.4844c0.127-0.1328,0.2803-0.1992,0.4619-0.1992h4.7227
				c0.1904,0,0.3457,0.0625,0.4678,0.1855c0.123,0.123,0.1836,0.2842,0.1836,0.4834c0,0.1904-0.0605,0.3447-0.1836,0.4629
				c-0.1221,0.1191-0.2773,0.1787-0.4678,0.1787h-4.0313v2.9043h3.4209c0.1895,0,0.3457,0.0615,0.4678,0.1846
				c0.1221,0.124,0.1836,0.2803,0.1836,0.4697c0,0.2002-0.0615,0.3564-0.1836,0.4707c-0.1221,0.1133-0.2783,0.1709-0.4678,0.1709
				h-3.4209v3.1465h4.0313C183.4541,38.9907,183.6094,39.0571,183.7314,39.1899z"/>
			<path d="M193.0752,39.4106c0.0547,0.0996,0.082,0.2012,0.082,0.3057c0,0.1992-0.0615,0.3467-0.1836,0.4414
				s-0.2695,0.1426-0.4414,0.1426s-0.3164-0.0381-0.4336-0.1143c-0.2715-0.1611-0.4932-0.4219-0.665-0.7832
				c-0.1719-0.3604-0.2578-0.8916-0.2578-1.5938c0-0.4746-0.1357-0.8262-0.4072-1.0537c-0.2715-0.2285-0.625-0.3418-1.0586-0.3418
				h-2.7422v3.2031c0,0.1992-0.0537,0.3633-0.1621,0.4912c-0.1094,0.1279-0.249,0.1924-0.4209,0.1924
				c-0.208,0-0.3867-0.0664-0.5361-0.1992s-0.2236-0.2939-0.2236-0.4844v-8.5996c0-0.1895,0.0625-0.3506,0.1895-0.4844
				c0.127-0.1328,0.2803-0.1992,0.4619-0.1992h3.8135c0.4883,0,0.9365,0.126,1.3438,0.3779
				c0.4072,0.251,0.7324,0.5977,0.9766,1.0391c0.2451,0.4414,0.3672,0.9375,0.3672,1.4873c0,0.5322-0.1357,1.0283-0.4072,1.4883
				c-0.2715,0.4609-0.6201,0.8047-1.0449,1.0322c0.334,0.1807,0.5986,0.4316,0.7939,0.7549
				c0.1943,0.3223,0.2998,0.6973,0.3184,1.125c0.0361,0.541,0.0771,0.9082,0.1221,1.1035c0.0459,0.1943,0.1445,0.334,0.2988,0.4199
				C192.9492,39.228,193.0215,39.311,193.0752,39.4106z M190.707,34.9468c0.2041-0.1709,0.3691-0.4004,0.4951-0.6904
				c0.127-0.2891,0.1904-0.6143,0.1904-0.9756c0-0.4551-0.1338-0.8418-0.4004-1.1602s-0.5898-0.4766-0.9707-0.4766h-3.0537v3.5879
				h3.0947C190.2891,35.2124,190.5039,35.1177,190.707,34.9468z"/>
		</g>
		<g id="Rounded_Rectangle_519_copy_12">
			<path class="st4" d="M303,12.6597h34c12.4264,0,22.5,10.0737,22.5,22.5l0,0c0,12.4263-10.0736,22.5-22.5,22.5h-34
				c-12.4264,0-22.5-10.0737-22.5-22.5l0,0C280.5,22.7334,290.5736,12.6597,303,12.6597z"/>
			<path class="st1" d="M337,58.1597h-34c-12.6826,0-23-10.3174-23-23s10.3174-23,23-23h34c12.6826,0,23,10.3174,23,23
				S349.6826,58.1597,337,58.1597z M303,13.1597c-12.1309,0-22,9.8691-22,22s9.8691,22,22,22h34c12.1309,0,22-9.8691,22-22
				s-9.8691-22-22-22H303z"/>
		</g>
		<g id="USER_copy_10" class="st2">
			<path d="M309.7002,30.5112c0.1133,0.1289,0.1699,0.292,0.1699,0.4912v5.4678c0,0.75-0.1582,1.4238-0.4746,2.0215
				c-0.3174,0.5986-0.7539,1.0664-1.3096,1.4023c-0.5566,0.3379-1.1836,0.5059-1.8799,0.5059c-0.7061,0-1.3398-0.168-1.9004-0.5059
				c-0.5615-0.3359-1-0.8037-1.3164-1.4023c-0.3164-0.5977-0.4746-1.2715-0.4746-2.0215v-5.4678
				c0-0.1992,0.0625-0.3623,0.1895-0.4912c0.127-0.1279,0.2891-0.1914,0.4883-0.1914c0.1719,0,0.3242,0.0664,0.4551,0.1992
				s0.1963,0.2939,0.1963,0.4834v5.4678c0,0.4941,0.1094,0.9375,0.3262,1.3311c0.2168,0.3945,0.5068,0.7002,0.8682,0.9189
				c0.3623,0.2178,0.751,0.3271,1.168,0.3271c0.4336,0,0.8369-0.1094,1.208-0.3271c0.3701-0.2188,0.667-0.5244,0.8887-0.9189
				c0.2217-0.3936,0.332-0.8369,0.332-1.3311v-5.4678c0-0.1992,0.0547-0.3623,0.1631-0.4912
				c0.1084-0.1279,0.2578-0.1914,0.4482-0.1914C309.4355,30.3198,309.5869,30.3833,309.7002,30.5112z"/>
			<path d="M313.1143,40.1509c-0.5068-0.1943-0.9912-0.5098-1.4521-0.9473c-0.1904-0.1709-0.2852-0.3652-0.2852-0.583
				c0-0.1709,0.0635-0.3252,0.1904-0.4629c0.126-0.1377,0.2754-0.207,0.4473-0.207c0.1543,0,0.2852,0.0527,0.3936,0.1572
				c0.3623,0.3506,0.7354,0.6094,1.1201,0.7754s0.8213,0.249,1.3096,0.249c0.5703,0,1.0518-0.1367,1.4453-0.4121
				s0.5908-0.6221,0.5908-1.04c-0.0098-0.4932-0.2061-0.875-0.5908-1.1455s-0.9707-0.4961-1.7578-0.6768
				c-0.9316-0.1992-1.6484-0.5264-2.1504-0.9824c-0.5029-0.4551-0.7539-1.0869-0.7539-1.8936c0-0.5596,0.1406-1.0508,0.4209-1.4736
				c0.2803-0.4219,0.6699-0.7471,1.167-0.9756c0.498-0.2275,1.0586-0.3418,1.6836-0.3418c0.5605,0,1.0898,0.0957,1.5879,0.2852
				c0.4971,0.1904,0.8994,0.4414,1.208,0.7549c0.208,0.1895,0.3115,0.3936,0.3115,0.6123c0,0.1709-0.0605,0.3223-0.1826,0.4551
				s-0.2695,0.1992-0.4414,0.1992c-0.127,0-0.2305-0.0371-0.3125-0.1133c-0.2354-0.2471-0.5605-0.4561-0.9766-0.627
				c-0.417-0.1709-0.8145-0.2559-1.1943-0.2559c-0.6064,0-1.0889,0.1299-1.4453,0.3916c-0.3584,0.2607-0.5361,0.6045-0.5361,1.0322
				c0,0.4648,0.1777,0.8213,0.5361,1.0674c0.3564,0.2471,0.8887,0.4561,1.5938,0.627c0.7061,0.1611,1.2832,0.3506,1.7305,0.5693
				c0.4482,0.2188,0.7939,0.5225,1.0391,0.9111c0.2441,0.3896,0.3662,0.8975,0.3662,1.5234c0,0.5508-0.1475,1.0391-0.4414,1.4668
				c-0.2939,0.4268-0.6943,0.7588-1.2012,0.9961s-1.0635,0.3564-1.6689,0.3564C314.2041,40.4429,313.6211,40.3452,313.1143,40.1509z
				"/>
			<path d="M325.7285,39.1899c0.123,0.1328,0.1836,0.2891,0.1836,0.4697c0,0.1895-0.0605,0.3438-0.1836,0.4629
				c-0.1221,0.1182-0.2773,0.1777-0.4678,0.1777h-4.7227c-0.1816,0-0.335-0.0664-0.4619-0.1992s-0.1895-0.2939-0.1895-0.4844
				v-8.5996c0-0.1895,0.0625-0.3506,0.1895-0.4844c0.127-0.1328,0.2803-0.1992,0.4619-0.1992h4.7227
				c0.1904,0,0.3457,0.0625,0.4678,0.1855c0.123,0.123,0.1836,0.2842,0.1836,0.4834c0,0.1904-0.0605,0.3447-0.1836,0.4629
				c-0.1221,0.1191-0.2773,0.1787-0.4678,0.1787h-4.0313v2.9043h3.4209c0.1895,0,0.3457,0.0615,0.4678,0.1846
				c0.1221,0.124,0.1836,0.2803,0.1836,0.4697c0,0.2002-0.0615,0.3564-0.1836,0.4707c-0.1221,0.1133-0.2783,0.1709-0.4678,0.1709
				h-3.4209v3.1465h4.0313C325.4512,38.9907,325.6064,39.0571,325.7285,39.1899z"/>
			<path d="M335.0723,39.4106c0.0547,0.0996,0.082,0.2012,0.082,0.3057c0,0.1992-0.0615,0.3467-0.1836,0.4414
				s-0.2695,0.1426-0.4414,0.1426s-0.3164-0.0381-0.4336-0.1143c-0.2715-0.1611-0.4932-0.4219-0.665-0.7832
				c-0.1719-0.3604-0.2578-0.8916-0.2578-1.5938c0-0.4746-0.1357-0.8262-0.4072-1.0537c-0.2715-0.2285-0.625-0.3418-1.0586-0.3418
				h-2.7422v3.2031c0,0.1992-0.0537,0.3633-0.1621,0.4912c-0.1094,0.1279-0.249,0.1924-0.4209,0.1924
				c-0.208,0-0.3867-0.0664-0.5361-0.1992s-0.2236-0.2939-0.2236-0.4844v-8.5996c0-0.1895,0.0625-0.3506,0.1895-0.4844
				c0.127-0.1328,0.2803-0.1992,0.4619-0.1992h3.8135c0.4883,0,0.9365,0.126,1.3438,0.3779
				c0.4072,0.251,0.7324,0.5977,0.9766,1.0391c0.2451,0.4414,0.3672,0.9375,0.3672,1.4873c0,0.5322-0.1357,1.0283-0.4072,1.4883
				c-0.2715,0.4609-0.6201,0.8047-1.0449,1.0322c0.334,0.1807,0.5986,0.4316,0.7939,0.7549
				c0.1943,0.3223,0.2998,0.6973,0.3184,1.125c0.0361,0.541,0.0771,0.9082,0.1221,1.1035c0.0459,0.1943,0.1445,0.334,0.2988,0.4199
				C334.9463,39.228,335.0186,39.311,335.0723,39.4106z M332.7041,34.9468c0.2041-0.1709,0.3691-0.4004,0.4951-0.6904
				c0.127-0.2891,0.1904-0.6143,0.1904-0.9756c0-0.4551-0.1338-0.8418-0.4004-1.1602s-0.5898-0.4766-0.9707-0.4766h-3.0537v3.5879
				h3.0947C332.2861,35.2124,332.501,35.1177,332.7041,34.9468z"/>
		</g>
		<g id="Shape_536_copy_3">
			<rect x="189" y="60.6597" class="st3" width="1" height="40"/>
		</g>
		<g id="Shape_537_copy_3">
			<path class="st0" d="M182.5,97.6597l6,6l6-6"/>
			<polygon class="st3" points="188.5,104.3667 182.1465,98.0132 182.8535,97.3062 188.5,102.9526 194.1465,97.3062 
				194.8535,98.0132 			"/>
		</g>
		<g id="Shape_537_copy_5">
			<path class="st0" d="M183.1899,64.6597L189,58.9897l5.8,5.6699"/>
			<polygon class="st3" points="183.5391,65.0171 182.8398,64.3022 189,58.2905 195.1494,64.3022 194.4502,65.0171 189,59.689 			
				"/>
		</g>
		<g id="Shape_536_copy_9">
			<rect x="307" y="60.6597" class="st3" width="1" height="39"/>
		</g>
		<g id="Shape_537_copy_11">
			<path class="st0" d="M300.5,97.6597l6,6l6-6"/>
			<polygon class="st3" points="306.5,104.3667 300.1465,98.0132 300.8535,97.3062 306.5,102.9526 312.1465,97.3062 
				312.8535,98.0132 			"/>
		</g>
		<g id="Shape_537_copy_11-2">
			<path class="st0" d="M301.1899,64.6597L307,58.9897l5.8,5.6699"/>
			<polygon class="st3" points="301.5391,65.0171 300.8398,64.3022 307,58.2905 313.1494,64.3022 312.4502,65.0171 307,59.689 			
				"/>
		</g>
		<g id="Rounded_Rectangle_519_copy_11">
			<path class="st4" d="M224.957,0.7495h47.8059c15.7163,0,28.457,12.7397,28.457,28.4551l0,0
				c0,15.7153-12.7407,28.4551-28.457,28.4551H224.957c-15.7163,0-28.457-12.7397-28.457-28.4551l0,0
				C196.5,13.4893,209.2407,0.7495,224.957,0.7495z"/>
			<path class="st1" d="M272.7627,58.1597H224.957c-15.9668,0-28.957-12.9893-28.957-28.9551s12.9902-28.9551,28.957-28.9551
				h47.8057c15.9668,0,28.957,12.9893,28.957,28.9551S288.7295,58.1597,272.7627,58.1597z M224.957,1.2495
				c-15.416,0-27.957,12.541-27.957,27.9551s12.541,27.9551,27.957,27.9551h47.8057c15.416,0,27.957-12.541,27.957-27.9551
				s-12.541-27.9551-27.957-27.9551H224.957z"/>
		</g>
		<g id="USER_copy_9" class="st2">
			<path d="M235.2148,23.3276c0.1504,0.1621,0.2246,0.3691,0.2246,0.6211v6.9121c0,0.9482-0.209,1.7998-0.6289,2.5557
				c-0.4209,0.7559-1,1.3477-1.7383,1.7734c-0.7373,0.4258-1.5684,0.6387-2.4922,0.6387c-0.9355,0-1.7764-0.2129-2.5195-0.6387
				c-0.7441-0.4258-1.3262-1.0176-1.7461-1.7734c-0.4209-0.7559-0.6309-1.6074-0.6309-2.5557v-6.9121
				c0-0.252,0.084-0.459,0.252-0.6211s0.3848-0.2432,0.6484-0.2432c0.2275,0,0.4287,0.084,0.6035,0.252
				c0.1738,0.168,0.2598,0.3721,0.2598,0.6123v6.9121c0,0.624,0.1445,1.1846,0.4326,1.6826s0.6719,0.8857,1.1514,1.1611
				c0.4805,0.2764,0.9961,0.4141,1.5488,0.4141c0.5762,0,1.1094-0.1377,1.6016-0.4141c0.4922-0.2754,0.8848-0.6631,1.1797-1.1611
				c0.293-0.498,0.4404-1.0586,0.4404-1.6826v-6.9121c0-0.252,0.0723-0.459,0.2158-0.6211
				c0.1445-0.1621,0.3418-0.2432,0.5938-0.2432S235.0645,23.1655,235.2148,23.3276z"/>
			<path d="M239.7422,35.5132c-0.6719-0.2451-1.3145-0.6445-1.9258-1.1963c-0.252-0.2158-0.3789-0.4619-0.3789-0.7383
				c0-0.2158,0.084-0.4111,0.252-0.585s0.3662-0.2607,0.5938-0.2607c0.2051,0,0.3789,0.0654,0.5225,0.1973
				c0.4795,0.4443,0.9756,0.7715,1.4854,0.9814s1.0889,0.3154,1.7363,0.3154c0.7559,0,1.3955-0.1738,1.918-0.5225
				c0.5215-0.3477,0.7832-0.7861,0.7832-1.3135c-0.0127-0.624-0.2734-1.1074-0.7832-1.4492
				c-0.5107-0.3418-1.2871-0.627-2.332-0.8555c-1.2354-0.252-2.1865-0.666-2.8525-1.2422c-0.666-0.5752-0.999-1.373-0.999-2.3936
				c0-0.708,0.1855-1.3291,0.5586-1.8633c0.3711-0.5332,0.8877-0.9443,1.5469-1.2324c0.6602-0.2881,1.4043-0.4326,2.2324-0.4326
				c0.7441,0,1.4463,0.1201,2.1064,0.3604c0.6592,0.2402,1.1943,0.5576,1.6025,0.9541c0.2754,0.2402,0.4131,0.498,0.4131,0.7734
				c0,0.2168-0.0811,0.4082-0.2432,0.5762s-0.3574,0.252-0.584,0.252c-0.1689,0-0.3066-0.0479-0.4141-0.1436
				c-0.3125-0.3125-0.7441-0.5762-1.2969-0.792c-0.5518-0.2158-1.0801-0.3242-1.584-0.3242c-0.8037,0-1.4434,0.165-1.916,0.4951
				c-0.4746,0.3301-0.7119,0.7646-0.7119,1.3047c0,0.5879,0.2373,1.0381,0.7119,1.3506c0.4727,0.3115,1.1777,0.5752,2.1143,0.792
				c0.9365,0.2041,1.7012,0.4434,2.2949,0.7197c0.5947,0.2764,1.0537,0.6602,1.377,1.1523
				c0.3242,0.4922,0.4863,1.1338,0.4863,1.9258c0,0.6963-0.1953,1.3135-0.585,1.8535c-0.3906,0.54-0.9219,0.9609-1.5938,1.2607
				s-1.4102,0.4492-2.2129,0.4492C241.1875,35.8823,240.4141,35.7593,239.7422,35.5132z"/>
			<path d="M256.4727,34.2983c0.1621,0.1689,0.2422,0.3662,0.2422,0.5947c0,0.2402-0.0801,0.4346-0.2422,0.585
				c-0.1621,0.1494-0.3691,0.2246-0.6211,0.2246h-6.2637c-0.2402,0-0.4443-0.084-0.6123-0.252
				c-0.1689-0.168-0.252-0.3721-0.252-0.6123V23.9663c0-0.2393,0.083-0.4434,0.252-0.6113c0.168-0.168,0.3721-0.252,0.6123-0.252
				h6.2637c0.252,0,0.459,0.0781,0.6211,0.2334c0.1621,0.1563,0.2422,0.3604,0.2422,0.6123c0,0.2402-0.0801,0.4346-0.2422,0.585
				s-0.3691,0.2246-0.6211,0.2246h-5.3457v3.6719h4.5352c0.252,0,0.459,0.0791,0.6211,0.2344
				c0.1621,0.1563,0.2432,0.3545,0.2432,0.5938c0,0.252-0.0811,0.4502-0.2432,0.5947c-0.1621,0.1436-0.3691,0.2158-0.6211,0.2158
				h-4.5352v3.9775h5.3457C256.1035,34.0464,256.3105,34.1304,256.4727,34.2983z"/>
			<path d="M268.8652,34.5776c0.0723,0.126,0.1094,0.2549,0.1094,0.3867c0,0.252-0.082,0.4385-0.2441,0.5586
				s-0.3574,0.1797-0.584,0.1797c-0.2285,0-0.4219-0.0479-0.5762-0.1436c-0.3613-0.2041-0.6543-0.5342-0.8828-0.9902
				s-0.3418-1.1279-0.3418-2.0166c0-0.5996-0.1797-1.0439-0.5391-1.332c-0.3613-0.2871-0.8281-0.4316-1.4043-0.4316h-3.6367v4.0498
				c0,0.252-0.0723,0.459-0.2168,0.6211c-0.1426,0.1621-0.3301,0.2432-0.5566,0.2432c-0.2773,0-0.5137-0.084-0.7109-0.252
				c-0.1992-0.168-0.2969-0.3721-0.2969-0.6123V23.9663c0-0.2393,0.083-0.4434,0.252-0.6113c0.168-0.168,0.3711-0.252,0.6113-0.252
				h5.0586c0.6484,0,1.2422,0.1592,1.7813,0.4766c0.541,0.3184,0.9727,0.7559,1.2969,1.3145
				c0.3242,0.5576,0.4863,1.1846,0.4863,1.8809c0,0.6719-0.1816,1.2988-0.541,1.8809s-0.8223,1.0166-1.3867,1.3047
				c0.4453,0.2285,0.7949,0.5459,1.0547,0.9541c0.2578,0.4082,0.3984,0.8818,0.4219,1.4219
				c0.0488,0.6846,0.1016,1.1494,0.1621,1.3955s0.1914,0.4229,0.3965,0.5303C268.6973,34.3472,268.793,34.4517,268.8652,34.5776z
				 M265.7246,28.9351c0.2695-0.2168,0.4883-0.5068,0.6563-0.873s0.252-0.7773,0.252-1.2334c0-0.5762-0.1758-1.0645-0.5293-1.4668
				c-0.3555-0.4023-0.7832-0.6035-1.2871-0.6035h-4.0508v4.5361h4.1035C265.1699,29.271,265.4551,29.1509,265.7246,28.9351z"/>
		</g>
		<g id="Shape_536_copy_8">
			<rect x="250" y="60.6597" class="st3" width="1" height="40"/>
		</g>
		<g id="Shape_537_copy_4">
			<path class="st0" d="M243.5,97.6597l6,6l6-6"/>
			<polygon class="st3" points="249.5,104.3667 243.1465,98.0132 243.8535,97.3062 249.5,102.9526 255.1465,97.3062 
				255.8535,98.0132 			"/>
		</g>
		<g id="Shape_537_copy_10">
			<path class="st0" d="M244.1899,64.6597L250,58.9897l5.8,5.6699"/>
			<polygon class="st3" points="244.5391,65.0171 243.8398,64.3022 250,58.2905 256.1494,64.3022 255.4502,65.0171 250,59.689 			
				"/>
		</g>
	</g>
	<g id="Shape_536_copy_5">
		<rect x="249" y="164.6597" class="st3" width="1" height="66"/>
	</g>
	<g id="Shape_537_copy_7">
		<path class="st0" d="M243.5,224.6597l6,6l6-6"/>
		<polygon class="st3" points="249.5,231.3667 243.1465,225.0132 243.8535,224.3062 249.5,229.9526 255.1465,224.3062 
			255.8535,225.0132 		"/>
	</g>
	<g id="Shape_537_copy_12">
		<path class="st0" d="M243.1899,168.6597L249,162.9897l5.8,5.6699"/>
		<polygon class="st3" points="243.5391,169.0171 242.8398,168.3022 249,162.2905 255.1494,168.3022 254.4502,169.0171 249,163.689 
					"/>
	</g>
	<g id="Shape_537_copy_15">
		<path class="st0" d="M72.1899,168.6597L78,162.9897l5.8,5.6699"/>
		<polygon class="st3" points="72.5391,169.0171 71.8398,168.3022 78,162.2905 84.1494,168.3022 83.4502,169.0171 78,163.689 		"/>
	</g>
	<g id="Shape_537_copy_16">
		<path class="st0" d="M417.1899,168.6597L423,162.9897l5.8,5.6699"/>
		<polygon class="st3" points="417.5391,169.0171 416.8398,168.3022 423,162.2905 429.1494,168.3022 428.4502,169.0171 423,163.689 
					"/>
	</g>
</g>
<g>
	<g id="Rounded_Rectangle_519_copy_14">
		<path class="st0" d="M380.67,121.6396h82.46c11.0015,0.0308,19.8949,8.9741,19.8641,19.9756
			c-0.0306,10.958-8.9063,19.8335-19.8641,19.8643h-82.46c-11.0015-0.0308-19.8949-8.9741-19.8641-19.9756
			C360.8365,130.5459,369.7122,121.6704,380.67,121.6396z"/>
		<path class="st1" d="M463.1309,161.98h-82.4609c-11.2607-0.0322-20.3955-9.2188-20.3643-20.4775
			c0.0322-11.1973,9.167-20.3311,20.3633-20.3623h82.4609c5.4561,0.0146,10.5781,2.1533,14.4238,6.0205
			c3.8467,3.8682,5.9561,9.001,5.9404,14.4551C483.4629,152.813,474.3281,161.9478,463.1309,161.98z M380.6709,122.1401
			c-10.6475,0.0293-19.335,8.7168-19.3652,19.3643c-0.0293,10.709,8.6582,19.4453,19.3652,19.4756h82.459
			c10.6475-0.0303,19.335-8.7178,19.3643-19.3662c0.0146-5.1875-1.9912-10.0693-5.6494-13.748
			c-3.6572-3.6777-8.5283-5.7109-13.7158-5.7256h-82.459H380.6709z"/>
	</g>
	<g id="BROKER_copy" class="st2">
		<path d="M403.4824,142.0854c0.2988,0.3652,0.4473,0.8418,0.4473,1.4297c0,0.9326-0.2705,1.5986-0.8125,1.9971
			c-0.542,0.3994-1.2031,0.5986-1.9844,0.5986h-3.2383c-0.168,0-0.3105-0.0586-0.4277-0.1768
			c-0.1182-0.1172-0.1768-0.2598-0.1768-0.4277v-7.6104c0-0.168,0.0586-0.3105,0.1768-0.4287
			c0.1172-0.1172,0.2598-0.1768,0.4277-0.1768h3.2383c0.7646,0,1.3457,0.1895,1.7451,0.5674s0.5986,0.9238,0.5986,1.6377
			c0,0.4033-0.0967,0.7627-0.29,1.0771c-0.1934,0.3154-0.4746,0.5566-0.8438,0.7246
			C402.8047,141.4575,403.1846,141.7202,403.4824,142.0854z M401.8574,138.7837c-0.2139-0.2051-0.5146-0.3086-0.9014-0.3086h-2.3809
			v2.457h2.4063c0.3447-0.0078,0.6299-0.1191,0.8574-0.334c0.2266-0.2139,0.3398-0.5186,0.3398-0.9131
			S402.0713,138.9897,401.8574,138.7837z M402.2295,144.5923c0.2764-0.2393,0.415-0.5986,0.415-1.0771
			c0-0.9326-0.5283-1.3984-1.5869-1.3984h-2.4824v2.835h2.5449C401.582,144.9517,401.9521,144.8315,402.2295,144.5923z"/>
		<path d="M412.4346,145.3237c0.0508,0.0879,0.0762,0.1777,0.0762,0.2705c0,0.1768-0.0566,0.3066-0.1699,0.3906
			c-0.1143,0.084-0.25,0.126-0.4102,0.126c-0.1592,0-0.2939-0.0332-0.4033-0.1006c-0.252-0.1426-0.458-0.374-0.6172-0.6934
			s-0.2393-0.7891-0.2393-1.4111c0-0.4199-0.126-0.7305-0.3779-0.9326c-0.252-0.2012-0.5801-0.3018-0.9824-0.3018h-2.5459v2.835
			c0,0.1758-0.0498,0.3213-0.1514,0.4346c-0.1006,0.1133-0.2305,0.1699-0.3906,0.1699c-0.1934,0-0.3584-0.0586-0.4971-0.1768
			c-0.1387-0.1172-0.208-0.2598-0.208-0.4277v-7.6104c0-0.168,0.0586-0.3105,0.1768-0.4287
			c0.1172-0.1172,0.2598-0.1768,0.4277-0.1768h3.541c0.4531,0,0.8691,0.1113,1.2471,0.334s0.6807,0.5293,0.9072,0.9199
			s0.3398,0.8301,0.3398,1.3164c0,0.4707-0.126,0.9102-0.3779,1.3174s-0.5752,0.7119-0.9697,0.9131
			c0.3105,0.1602,0.5566,0.3828,0.7373,0.668s0.2793,0.6172,0.2959,0.9951c0.0332,0.4795,0.0713,0.8047,0.1133,0.9766
			c0.042,0.1729,0.1348,0.2959,0.2773,0.3721C412.3174,145.1616,412.3848,145.2349,412.4346,145.3237z M410.2363,141.3735
			c0.1885-0.1514,0.3418-0.3555,0.46-0.6113c0.1172-0.2559,0.1758-0.5439,0.1758-0.8633c0-0.4033-0.124-0.7451-0.3711-1.0264
			c-0.248-0.2822-0.5479-0.4229-0.9014-0.4229h-2.835v3.1758h2.873C409.8477,141.6089,410.0469,141.5249,410.2363,141.3735z"/>
		<path d="M421.4258,144.0063c-0.3662,0.6895-0.8721,1.2334-1.5186,1.6318c-0.6475,0.3994-1.3779,0.5986-2.1924,0.5986
			c-0.8154,0-1.5459-0.1992-2.1924-0.5986c-0.6475-0.3984-1.1533-0.9424-1.5186-1.6318c-0.3652-0.6885-0.5479-1.457-0.5479-2.3057
			s0.1826-1.6172,0.5479-2.3057s0.8711-1.2324,1.5186-1.6318c0.6465-0.3984,1.377-0.5986,2.1924-0.5986
			c0.8145,0,1.5449,0.2002,2.1924,0.5986c0.6465,0.3994,1.1523,0.9434,1.5186,1.6318c0.3652,0.6885,0.5479,1.457,0.5479,2.3057
			S421.791,143.3179,421.4258,144.0063z M420.2979,139.9937c-0.252-0.5078-0.6025-0.9072-1.0527-1.1973
			c-0.4492-0.29-0.959-0.4346-1.5303-0.4346s-1.082,0.1426-1.5313,0.4287c-0.4492,0.2852-0.7998,0.6826-1.0518,1.1904
			c-0.252,0.5088-0.3779,1.082-0.3779,1.7197c0,0.6299,0.126,1.1992,0.3779,1.707c0.252,0.5088,0.6025,0.9072,1.0518,1.1973
			s0.96,0.4346,1.5313,0.4346s1.0811-0.1445,1.5303-0.4346c0.4502-0.29,0.8008-0.6885,1.0527-1.1973
			c0.252-0.5078,0.3779-1.0771,0.3779-1.707S420.5498,140.5015,420.2979,139.9937z"/>
		<path d="M430.4023,145.5063c0,0.1846-0.0693,0.3359-0.208,0.4531c-0.1387,0.1182-0.2959,0.1768-0.4727,0.1768
			c-0.168,0-0.3145-0.0762-0.4404-0.2266l-3.0625-3.9443l-1.4111,1.3359v2.1924c0,0.1758-0.0586,0.3232-0.1758,0.4404
			c-0.1182,0.1182-0.2695,0.1768-0.4541,0.1768s-0.334-0.0586-0.4473-0.1768c-0.1133-0.1172-0.1699-0.2646-0.1699-0.4404v-7.5977
			c0-0.168,0.0586-0.3105,0.1768-0.4287c0.1172-0.1172,0.2686-0.1768,0.4531-0.1768s0.334,0.0566,0.4473,0.1709
			c0.1133,0.1133,0.1699,0.2578,0.1699,0.4346v3.918l4.4736-4.334c0.1592-0.1426,0.3184-0.2139,0.4785-0.2139
			c0.1514,0,0.2813,0.0625,0.3906,0.1885s0.1641,0.2607,0.1641,0.4033c0,0.126-0.0596,0.2559-0.1768,0.3906l-2.9863,2.8223
			l3.1123,4.0195C430.3564,145.2075,430.4023,145.3462,430.4023,145.5063z"/>
		<path d="M437.3389,145.1284c0.1143,0.1172,0.1709,0.2559,0.1709,0.415c0,0.1689-0.0566,0.3047-0.1709,0.4102
			c-0.1133,0.1045-0.2578,0.1572-0.4346,0.1572h-4.3848c-0.168,0-0.3105-0.0586-0.4277-0.1768
			c-0.1182-0.1172-0.1768-0.2598-0.1768-0.4277v-7.6104c0-0.168,0.0586-0.3105,0.1768-0.4287
			c0.1172-0.1172,0.2598-0.1768,0.4277-0.1768h4.3848c0.1768,0,0.3213,0.0547,0.4346,0.1641
			c0.1143,0.1094,0.1709,0.252,0.1709,0.4287c0,0.168-0.0566,0.3047-0.1709,0.4092c-0.1133,0.1055-0.2578,0.1572-0.4346,0.1572
			h-3.7422v2.5703h3.1758c0.1758,0,0.3213,0.0547,0.4346,0.1641s0.1699,0.248,0.1699,0.416c0,0.1768-0.0566,0.3154-0.1699,0.416
			s-0.2588,0.1514-0.4346,0.1514h-3.1758v2.7842h3.7422C437.0811,144.9517,437.2256,145.0103,437.3389,145.1284z"/>
		<path d="M446.0137,145.3237c0.0508,0.0879,0.0762,0.1777,0.0762,0.2705c0,0.1768-0.0566,0.3066-0.1699,0.3906
			c-0.1143,0.084-0.25,0.126-0.4102,0.126c-0.1592,0-0.2939-0.0332-0.4033-0.1006c-0.252-0.1426-0.458-0.374-0.6172-0.6934
			s-0.2393-0.7891-0.2393-1.4111c0-0.4199-0.126-0.7305-0.3779-0.9326c-0.252-0.2012-0.5801-0.3018-0.9824-0.3018h-2.5459v2.835
			c0,0.1758-0.0498,0.3213-0.1514,0.4346c-0.1006,0.1133-0.2305,0.1699-0.3906,0.1699c-0.1934,0-0.3584-0.0586-0.4971-0.1768
			c-0.1387-0.1172-0.208-0.2598-0.208-0.4277v-7.6104c0-0.168,0.0586-0.3105,0.1768-0.4287
			c0.1172-0.1172,0.2598-0.1768,0.4277-0.1768h3.541c0.4531,0,0.8691,0.1113,1.2471,0.334s0.6807,0.5293,0.9072,0.9199
			s0.3398,0.8301,0.3398,1.3164c0,0.4707-0.126,0.9102-0.3779,1.3174s-0.5752,0.7119-0.9697,0.9131
			c0.3105,0.1602,0.5566,0.3828,0.7373,0.668s0.2793,0.6172,0.2959,0.9951c0.0332,0.4795,0.0713,0.8047,0.1133,0.9766
			c0.042,0.1729,0.1348,0.2959,0.2773,0.3721C445.8965,145.1616,445.9639,145.2349,446.0137,145.3237z M443.8154,141.3735
			c0.1885-0.1514,0.3418-0.3555,0.46-0.6113c0.1172-0.2559,0.1758-0.5439,0.1758-0.8633c0-0.4033-0.124-0.7451-0.3711-1.0264
			c-0.248-0.2822-0.5479-0.4229-0.9014-0.4229h-2.835v3.1758h2.873C443.4268,141.6089,443.626,141.5249,443.8154,141.3735z"/>
	</g>
	<g id="Rounded_Rectangle_519_copy_14-2">
		<path class="st0" d="M360.4,57.1797h23.8c8.6985,0,15.75,7.0518,15.75,15.75s-7.0515,15.75-15.75,15.75h-23.8
			c-8.6985,0-15.75-7.0513-15.75-15.75C344.65,64.2314,351.7015,57.1797,360.4,57.1797L360.4,57.1797z"/>
		<path class="st1" d="M384.2002,89.1792h-23.7998c-8.96,0-16.25-7.29-16.25-16.25s7.29-16.25,16.25-16.25h23.7998
			c8.96,0,16.25,7.29,16.25,16.25S393.1602,89.1792,384.2002,89.1792z M360.4004,57.6792c-8.4092,0-15.25,6.8408-15.25,15.25
			s6.8408,15.25,15.25,15.25h23.7998c8.4092,0,15.25-6.8408,15.25-15.25s-6.8408-15.25-15.25-15.25H360.4004z"/>
	</g>
	<g id="USER_copy_11" class="st2">
		<path d="M365.0957,69.6655c0.0791,0.0898,0.1191,0.2041,0.1191,0.3438v3.8291c0,0.5254-0.1113,0.9971-0.333,1.416
			s-0.5273,0.7461-0.917,0.9824s-0.8291,0.3535-1.3164,0.3535c-0.4941,0-0.9375-0.1172-1.3311-0.3535
			c-0.3926-0.2363-0.7002-0.5635-0.9219-0.9824s-0.332-0.8906-0.332-1.416v-3.8291c0-0.1396,0.0439-0.2539,0.1328-0.3438
			s0.2031-0.1348,0.3418-0.1348c0.1211,0,0.2266,0.0469,0.3184,0.1396s0.1387,0.2061,0.1387,0.3389v3.8291
			c0,0.3457,0.0752,0.6572,0.2275,0.9326s0.3545,0.4902,0.6084,0.6436c0.2529,0.1523,0.5254,0.2285,0.8174,0.2285
			c0.3037,0,0.5859-0.0762,0.8457-0.2285c0.2598-0.1533,0.4668-0.3682,0.623-0.6436c0.1543-0.2754,0.2324-0.5869,0.2324-0.9326
			v-3.8291c0-0.1396,0.0381-0.2539,0.1143-0.3438s0.1807-0.1348,0.3135-0.1348S365.0166,69.5757,365.0957,69.6655z"/>
		<path d="M367.4863,76.4165c-0.3555-0.1367-0.6943-0.3574-1.0176-0.6631c-0.1328-0.1201-0.1992-0.2559-0.1992-0.4092
			c0-0.1191,0.0439-0.2275,0.1328-0.3242c0.0889-0.0957,0.1934-0.1445,0.3135-0.1445c0.1074,0,0.2002,0.0371,0.2754,0.1094
			c0.2539,0.2461,0.5156,0.4277,0.7842,0.5439c0.2695,0.1162,0.5752,0.1748,0.918,0.1748c0.3984,0,0.7363-0.0967,1.0117-0.2891
			c0.2754-0.1934,0.4131-0.4355,0.4131-0.7285c-0.0059-0.3457-0.1436-0.6133-0.4131-0.8027s-0.6797-0.3477-1.2305-0.4736
			c-0.6533-0.1396-1.1553-0.3691-1.5068-0.6885c-0.3516-0.3184-0.5273-0.7607-0.5273-1.3262c0-0.3916,0.0986-0.7363,0.2949-1.0313
			c0.1963-0.2959,0.4688-0.5244,0.8174-0.6836c0.3477-0.1592,0.7412-0.2393,1.1777-0.2393c0.3936,0,0.7637,0.0664,1.1123,0.1992
			s0.6309,0.3096,0.8457,0.5283c0.1455,0.1338,0.2188,0.2764,0.2188,0.4287c0,0.1201-0.043,0.2266-0.1279,0.3193
			c-0.0859,0.0938-0.1885,0.1396-0.3096,0.1396c-0.0889,0-0.1611-0.0264-0.2178-0.0791c-0.165-0.1729-0.3936-0.3193-0.6846-0.4395
			c-0.292-0.1191-0.5703-0.1797-0.8369-0.1797c-0.4238,0-0.7617,0.0918-1.0117,0.2744c-0.25,0.1836-0.375,0.4238-0.375,0.7236
			c0,0.3252,0.125,0.5742,0.375,0.7471s0.6221,0.3193,1.1162,0.4395c0.4951,0.1133,0.8984,0.2461,1.2119,0.3984
			c0.3135,0.1533,0.5566,0.3662,0.7275,0.6387s0.2568,0.6279,0.2568,1.0664c0,0.3857-0.1035,0.7285-0.3096,1.0273
			s-0.4863,0.5322-0.8408,0.6982s-0.7441,0.249-1.1689,0.249C368.249,76.6206,367.8408,76.5522,367.4863,76.4165z"/>
		<path d="M376.3193,75.7437c0.0859,0.0928,0.1289,0.2021,0.1289,0.3281c0,0.1338-0.043,0.2412-0.1289,0.3242
			c-0.085,0.084-0.1943,0.125-0.3271,0.125h-3.3076c-0.127,0-0.2344-0.0469-0.3232-0.1396s-0.1328-0.2061-0.1328-0.3389V70.019
			c0-0.1328,0.0439-0.2461,0.1328-0.3389s0.1963-0.1396,0.3232-0.1396h3.3076c0.1328,0,0.2422,0.043,0.3271,0.1299
			c0.0859,0.0859,0.1289,0.1992,0.1289,0.3389c0,0.1328-0.043,0.2412-0.1289,0.3242c-0.085,0.083-0.1943,0.125-0.3271,0.125h-2.8232
			v2.0342h2.3955c0.1328,0,0.2422,0.043,0.3271,0.1289c0.0859,0.0869,0.1289,0.1963,0.1289,0.3291
			c0,0.1396-0.043,0.25-0.1289,0.3291c-0.085,0.0801-0.1943,0.1201-0.3271,0.1201h-2.3955v2.2041h2.8232
			C376.125,75.604,376.2344,75.6499,376.3193,75.7437z"/>
		<path d="M382.8633,75.8979c0.0381,0.0693,0.0566,0.1416,0.0566,0.2139c0,0.1396-0.043,0.2432-0.1279,0.3096
			c-0.0859,0.0664-0.1885,0.0996-0.3096,0.0996c-0.1201,0-0.2217-0.0264-0.3037-0.0801c-0.1904-0.1123-0.3457-0.2959-0.4658-0.5479
			c-0.1201-0.2529-0.1807-0.625-0.1807-1.1172c0-0.332-0.0947-0.5781-0.2852-0.7383c-0.1895-0.1592-0.4365-0.2393-0.7412-0.2393
			h-1.9199v2.2441c0,0.1396-0.0381,0.2539-0.1143,0.3438c-0.0752,0.0898-0.1738,0.1348-0.2939,0.1348
			c-0.1465,0-0.2715-0.0469-0.376-0.1396s-0.1563-0.2061-0.1563-0.3389V70.019c0-0.1328,0.0439-0.2461,0.1328-0.3389
			s0.1963-0.1396,0.3232-0.1396h2.6709c0.3418,0,0.6553,0.0879,0.9404,0.2646c0.2852,0.1758,0.5137,0.4189,0.6846,0.7275
			c0.1709,0.3096,0.2568,0.6563,0.2568,1.042c0,0.373-0.0957,0.7197-0.2852,1.042c-0.1904,0.3232-0.4346,0.5635-0.7324,0.7236
			c0.2344,0.126,0.4199,0.3018,0.5566,0.5283c0.1357,0.2256,0.21,0.4883,0.2227,0.7871c0.0254,0.3799,0.0537,0.6367,0.0859,0.7734
			c0.0313,0.1357,0.1016,0.2344,0.209,0.2939C382.7744,75.77,382.8252,75.8276,382.8633,75.8979z M381.2041,72.772
			c0.1426-0.1201,0.2588-0.2813,0.3477-0.4844c0.0879-0.2021,0.1328-0.4297,0.1328-0.6826c0-0.3193-0.0938-0.5898-0.2803-0.8125
			c-0.1875-0.2227-0.4141-0.334-0.6797-0.334h-2.1387v2.5127h2.167C380.9111,72.9575,381.0615,72.8911,381.2041,72.772z"/>
	</g>
	<g id="Rounded_Rectangle_519_copy_14-3">
		<path class="st0" d="M459.8,57.1797h23.8c8.6985,0,15.75,7.0518,15.75,15.75s-7.0515,15.75-15.75,15.75h-23.8
			c-8.6985,0-15.75-7.0518-15.75-15.75S451.1016,57.1797,459.8,57.1797z"/>
		<path class="st1" d="M483.5996,89.1792h-23.7998c-8.96,0-16.25-7.29-16.25-16.25s7.29-16.25,16.25-16.25h23.7998
			c8.96,0,16.25,7.29,16.25,16.25S492.5596,89.1792,483.5996,89.1792z M459.7998,57.6792c-8.4092,0-15.25,6.8408-15.25,15.25
			s6.8408,15.25,15.25,15.25h23.7998c8.4092,0,15.25-6.8408,15.25-15.25s-6.8408-15.25-15.25-15.25H459.7998z"/>
	</g>
	<g id="USER_copy_11-2" class="st2">
		<path d="M464.4932,69.6655c0.0791,0.0898,0.1191,0.2041,0.1191,0.3438v3.8291c0,0.5254-0.1113,0.9971-0.333,1.416
			s-0.5273,0.7461-0.917,0.9824s-0.8291,0.3535-1.3164,0.3535c-0.4941,0-0.9375-0.1172-1.3311-0.3535
			c-0.3926-0.2363-0.7002-0.5635-0.9219-0.9824s-0.332-0.8906-0.332-1.416v-3.8291c0-0.1396,0.0439-0.2539,0.1328-0.3438
			s0.2031-0.1348,0.3418-0.1348c0.1211,0,0.2266,0.0469,0.3184,0.1396s0.1387,0.2061,0.1387,0.3389v3.8291
			c0,0.3457,0.0752,0.6572,0.2275,0.9326s0.3545,0.4902,0.6084,0.6436c0.2529,0.1523,0.5254,0.2285,0.8174,0.2285
			c0.3037,0,0.5859-0.0762,0.8457-0.2285c0.2598-0.1533,0.4668-0.3682,0.623-0.6436c0.1543-0.2754,0.2324-0.5869,0.2324-0.9326
			v-3.8291c0-0.1396,0.0381-0.2539,0.1143-0.3438s0.1807-0.1348,0.3135-0.1348S464.4141,69.5757,464.4932,69.6655z"/>
		<path d="M466.8838,76.4165c-0.3555-0.1367-0.6943-0.3574-1.0176-0.6631c-0.1328-0.1201-0.1992-0.2559-0.1992-0.4092
			c0-0.1191,0.0439-0.2275,0.1328-0.3242c0.0889-0.0957,0.1934-0.1445,0.3135-0.1445c0.1074,0,0.2002,0.0371,0.2754,0.1094
			c0.2539,0.2461,0.5156,0.4277,0.7842,0.5439c0.2695,0.1162,0.5752,0.1748,0.918,0.1748c0.3984,0,0.7363-0.0967,1.0117-0.2891
			c0.2754-0.1934,0.4131-0.4355,0.4131-0.7285c-0.0059-0.3457-0.1436-0.6133-0.4131-0.8027s-0.6797-0.3477-1.2305-0.4736
			c-0.6533-0.1396-1.1553-0.3691-1.5068-0.6885c-0.3516-0.3184-0.5273-0.7607-0.5273-1.3262c0-0.3916,0.0986-0.7363,0.2949-1.0313
			c0.1963-0.2959,0.4688-0.5244,0.8174-0.6836c0.3477-0.1592,0.7412-0.2393,1.1777-0.2393c0.3936,0,0.7637,0.0664,1.1123,0.1992
			s0.6309,0.3096,0.8457,0.5283c0.1455,0.1338,0.2188,0.2764,0.2188,0.4287c0,0.1201-0.043,0.2266-0.1279,0.3193
			c-0.0859,0.0938-0.1885,0.1396-0.3096,0.1396c-0.0889,0-0.1611-0.0264-0.2178-0.0791c-0.165-0.1729-0.3936-0.3193-0.6846-0.4395
			c-0.292-0.1191-0.5703-0.1797-0.8369-0.1797c-0.4238,0-0.7617,0.0918-1.0117,0.2744c-0.25,0.1836-0.375,0.4238-0.375,0.7236
			c0,0.3252,0.125,0.5742,0.375,0.7471s0.6221,0.3193,1.1162,0.4395c0.4951,0.1133,0.8984,0.2461,1.2119,0.3984
			c0.3135,0.1533,0.5566,0.3662,0.7275,0.6387s0.2568,0.6279,0.2568,1.0664c0,0.3857-0.1035,0.7285-0.3096,1.0273
			s-0.4863,0.5322-0.8408,0.6982s-0.7441,0.249-1.1689,0.249C467.6465,76.6206,467.2383,76.5522,466.8838,76.4165z"/>
		<path d="M475.7168,75.7437c0.0859,0.0928,0.1289,0.2021,0.1289,0.3281c0,0.1338-0.043,0.2412-0.1289,0.3242
			c-0.085,0.084-0.1943,0.125-0.3271,0.125h-3.3076c-0.127,0-0.2344-0.0469-0.3232-0.1396s-0.1328-0.2061-0.1328-0.3389V70.019
			c0-0.1328,0.0439-0.2461,0.1328-0.3389s0.1963-0.1396,0.3232-0.1396h3.3076c0.1328,0,0.2422,0.043,0.3271,0.1299
			c0.0859,0.0859,0.1289,0.1992,0.1289,0.3389c0,0.1328-0.043,0.2412-0.1289,0.3242c-0.085,0.083-0.1943,0.125-0.3271,0.125h-2.8232
			v2.0342h2.3955c0.1328,0,0.2422,0.043,0.3271,0.1289c0.0859,0.0869,0.1289,0.1963,0.1289,0.3291
			c0,0.1396-0.043,0.25-0.1289,0.3291c-0.085,0.0801-0.1943,0.1201-0.3271,0.1201h-2.3955v2.2041h2.8232
			C475.5225,75.604,475.6318,75.6499,475.7168,75.7437z"/>
		<path d="M482.2607,75.8979c0.0381,0.0693,0.0566,0.1416,0.0566,0.2139c0,0.1396-0.043,0.2432-0.1279,0.3096
			c-0.0859,0.0664-0.1885,0.0996-0.3096,0.0996c-0.1201,0-0.2217-0.0264-0.3037-0.0801c-0.1904-0.1123-0.3457-0.2959-0.4658-0.5479
			c-0.1201-0.2529-0.1807-0.625-0.1807-1.1172c0-0.332-0.0947-0.5781-0.2852-0.7383c-0.1895-0.1592-0.4365-0.2393-0.7412-0.2393
			h-1.9199v2.2441c0,0.1396-0.0381,0.2539-0.1143,0.3438c-0.0752,0.0898-0.1738,0.1348-0.2939,0.1348
			c-0.1465,0-0.2715-0.0469-0.376-0.1396s-0.1563-0.2061-0.1563-0.3389V70.019c0-0.1328,0.0439-0.2461,0.1328-0.3389
			s0.1963-0.1396,0.3232-0.1396h2.6709c0.3418,0,0.6553,0.0879,0.9404,0.2646c0.2852,0.1758,0.5137,0.4189,0.6846,0.7275
			c0.1709,0.3096,0.2568,0.6563,0.2568,1.042c0,0.373-0.0957,0.7197-0.2852,1.042c-0.1904,0.3232-0.4346,0.5635-0.7324,0.7236
			c0.2344,0.126,0.4199,0.3018,0.5566,0.5283c0.1357,0.2256,0.21,0.4883,0.2227,0.7871c0.0254,0.3799,0.0537,0.6367,0.0859,0.7734
			c0.0313,0.1357,0.1016,0.2344,0.209,0.2939C482.1719,75.77,482.2227,75.8276,482.2607,75.8979z M480.6016,72.772
			c0.1426-0.1201,0.2588-0.2813,0.3477-0.4844c0.0879-0.2021,0.1328-0.4297,0.1328-0.6826c0-0.3193-0.0938-0.5898-0.2803-0.8125
			c-0.1875-0.2227-0.4141-0.334-0.6797-0.334h-2.1387v2.5127h2.167C480.3086,72.9575,480.459,72.8911,480.6016,72.772z"/>
	</g>
	<g id="Shape_536_copy_4">
		<rect x="379.8496" y="91.6792" class="st3" width="1" height="26.2012"/>
	</g>
	<g id="Shape_537_copy_9">
		<path class="st0" d="M375.45,116.6797l4.2,4.2002l4.2-4.2002"/>
		<polygon class="st3" points="379.6504,121.5874 375.0967,117.0327 375.8037,116.3257 379.6504,120.1733 383.4961,116.3257 
			384.2031,117.0327 		"/>
	</g>
	<g id="Shape_537_copy_9-2">
		<path class="st0" d="M375.9399,93.5796L380,89.6094l4.0601,3.9702"/>
		<polygon class="st3" points="383.7109,93.937 380,90.3081 376.2891,93.937 375.5898,93.2222 380,88.9097 384.4102,93.2222 		"/>
	</g>
	<g id="Shape_536_copy_10">
		<rect x="462.4502" y="91.6792" class="st3" width="1" height="26.2012"/>
	</g>
	<g id="Shape_537_copy_17">
		<path class="st0" d="M458.05,116.6797l4.2,4.2002l4.2-4.2002"/>
		<polygon class="st3" points="462.25,121.5874 457.6963,117.0327 458.4033,116.3257 462.25,120.1733 466.0967,116.3257 
			466.8037,117.0327 		"/>
	</g>
	<g id="Shape_537_copy_17-2">
		<path class="st0" d="M458.54,93.5796l4.0601-3.9702l4.0601,3.9702"/>
		<polygon class="st3" points="466.3105,93.937 462.5996,90.3081 458.8896,93.937 458.1904,93.2222 462.5996,88.9097 
			467.0098,93.2222 		"/>
	</g>
	<g id="Rounded_Rectangle_519_copy_14-4">
		<path class="st0" d="M405.87,48.8398h33.46c11.0015,0.0308,19.8949,8.9741,19.8641,19.9756
			c-0.0306,10.958-8.9063,19.8335-19.8641,19.8643h-33.46c-11.0015,0.0308-19.9449-8.8628-19.9757-19.8643
			s8.8627-19.9448,19.8641-19.9756C405.7957,48.8398,405.8328,48.8398,405.87,48.8398z"/>
		<path class="st1" d="M405.8105,89.1792c-5.4316,0-10.541-2.1074-14.3955-5.9404c-3.8672-3.8457-6.0059-8.9678-6.0205-14.4219
			c-0.0156-5.4541,2.0938-10.5879,5.9404-14.4561c3.8457-3.8672,8.9678-6.0059,14.4229-6.0215h33.5723
			c11.2607,0.0322,20.3955,9.2188,20.3643,20.4775c-0.0322,11.1973-9.167,20.3311-20.3633,20.3623h-33.4609
			C405.8506,89.1792,405.8301,89.1792,405.8105,89.1792z M405.7588,49.3394c-5.1865,0.0146-10.0576,2.0488-13.7148,5.7266
			c-3.6582,3.6787-5.6641,8.5615-5.6494,13.749c0.0146,5.1865,2.0479,10.0576,5.7256,13.7148
			c3.665,3.6445,8.5254,5.6494,13.6914,5.6494c0.0195,0,0.0381,0,0.0576,0h33.4609c10.6465-0.0293,19.334-8.7168,19.3643-19.3643
			c0.0293-10.709-8.6582-19.4453-19.3652-19.4756H405.7588z"/>
	</g>
	<g id="USER_copy_11-3" class="st2">
		<path d="M412.3525,64.644c0.1045,0.1133,0.1572,0.2578,0.1572,0.4346v4.8379c0,0.6641-0.1475,1.2598-0.4414,1.7891
			s-0.6992,0.9434-1.2158,1.2412c-0.5166,0.2988-1.0977,0.4473-1.7451,0.4473c-0.6553,0-1.2432-0.1484-1.7637-0.4473
			c-0.5205-0.2979-0.9287-0.7119-1.2227-1.2412s-0.4404-1.125-0.4404-1.7891v-4.8379c0-0.1768,0.0586-0.3213,0.1768-0.4346
			c0.1172-0.1143,0.2686-0.1709,0.4531-0.1709c0.1592,0,0.2998,0.0596,0.4219,0.1768c0.1221,0.1182,0.1826,0.2607,0.1826,0.4287
			v4.8379c0,0.4375,0.1016,0.8301,0.3027,1.1787s0.4707,0.6191,0.8066,0.8125s0.6973,0.29,1.083,0.29
			c0.4033,0,0.7773-0.0967,1.1221-0.29c0.3438-0.1934,0.6191-0.4639,0.8252-0.8125c0.2051-0.3486,0.3086-0.7412,0.3086-1.1787
			v-4.8379c0-0.1768,0.0498-0.3213,0.1514-0.4346c0.1006-0.1143,0.2393-0.1709,0.415-0.1709
			C412.1064,64.4731,412.2471,64.5298,412.3525,64.644z"/>
		<path d="M415.5215,73.1743c-0.4707-0.1729-0.9199-0.4521-1.3486-0.8379c-0.1758-0.1514-0.2646-0.3242-0.2646-0.5166
			c0-0.1514,0.0586-0.2881,0.1768-0.4102c0.1172-0.1211,0.2559-0.1826,0.416-0.1826c0.1426,0,0.2646,0.0459,0.3652,0.1387
			c0.3359,0.3105,0.6826,0.54,1.0391,0.6865c0.3574,0.1475,0.7627,0.2207,1.2158,0.2207c0.5293,0,0.9766-0.1221,1.3428-0.3652
			c0.3652-0.2441,0.5479-0.5498,0.5479-0.9199c-0.0088-0.4365-0.1914-0.7754-0.5479-1.0146
			c-0.3574-0.2393-0.9014-0.4385-1.6318-0.5986c-0.8652-0.1758-1.5313-0.4658-1.9971-0.8691
			c-0.4668-0.4033-0.6992-0.9619-0.6992-1.6758c0-0.4951,0.1299-0.9297,0.3906-1.3037c0.2598-0.374,0.6211-0.6621,1.083-0.8633
			s0.9834-0.3027,1.5625-0.3027c0.5205,0,1.0117,0.084,1.4746,0.252c0.4619,0.1689,0.835,0.3906,1.1211,0.668
			c0.1934,0.168,0.29,0.3486,0.29,0.542c0,0.1514-0.0566,0.2852-0.1709,0.4033c-0.1133,0.1172-0.25,0.1758-0.4092,0.1758
			c-0.1172,0-0.2139-0.0332-0.29-0.1006c-0.2178-0.2178-0.5205-0.4033-0.9072-0.5537c-0.3857-0.1514-0.7559-0.2275-1.1084-0.2275
			c-0.5625,0-1.0098,0.1162-1.3418,0.3467c-0.332,0.2314-0.498,0.5352-0.498,0.9141c0,0.4111,0.166,0.7266,0.498,0.9443
			c0.332,0.2188,0.8252,0.4033,1.4805,0.5547c0.6553,0.1426,1.1904,0.3105,1.6064,0.5039s0.7373,0.4619,0.9639,0.8066
			s0.3398,0.7939,0.3398,1.3477c0,0.4873-0.1367,0.9199-0.4092,1.2979c-0.2734,0.3779-0.6445,0.6729-1.1152,0.8818
			c-0.4707,0.21-0.9873,0.3154-1.5498,0.3154C416.5332,73.4321,415.9912,73.3462,415.5215,73.1743z"/>
		<path d="M427.2324,72.3237c0.1143,0.1172,0.1709,0.2559,0.1709,0.415c0,0.1689-0.0566,0.3047-0.1709,0.4102
			c-0.1133,0.1045-0.2578,0.1572-0.4346,0.1572h-4.3848c-0.168,0-0.3105-0.0586-0.4277-0.1768
			c-0.1182-0.1172-0.1768-0.2598-0.1768-0.4277v-7.6104c0-0.168,0.0586-0.3105,0.1768-0.4287
			c0.1172-0.1172,0.2598-0.1768,0.4277-0.1768h4.3848c0.1768,0,0.3213,0.0547,0.4346,0.1641
			c0.1143,0.1094,0.1709,0.252,0.1709,0.4287c0,0.168-0.0566,0.3047-0.1709,0.4092c-0.1133,0.1055-0.2578,0.1572-0.4346,0.1572
			h-3.7422v2.5703h3.1758c0.1758,0,0.3213,0.0547,0.4346,0.1641s0.1699,0.248,0.1699,0.416c0,0.1768-0.0566,0.3154-0.1699,0.416
			s-0.2588,0.1514-0.4346,0.1514h-3.1758v2.7842h3.7422C426.9746,72.147,427.1191,72.2056,427.2324,72.3237z"/>
		<path d="M435.9072,72.519c0.0508,0.0879,0.0762,0.1777,0.0762,0.2705c0,0.1768-0.0566,0.3066-0.1699,0.3906
			c-0.1143,0.084-0.25,0.126-0.4102,0.126c-0.1592,0-0.2939-0.0332-0.4033-0.1006c-0.252-0.1426-0.458-0.374-0.6172-0.6934
			s-0.2393-0.7891-0.2393-1.4111c0-0.4199-0.126-0.7305-0.3779-0.9326c-0.252-0.2012-0.5801-0.3018-0.9824-0.3018h-2.5459v2.835
			c0,0.1758-0.0498,0.3213-0.1514,0.4346c-0.1006,0.1133-0.2305,0.1699-0.3906,0.1699c-0.1934,0-0.3584-0.0586-0.4971-0.1768
			c-0.1387-0.1172-0.208-0.2598-0.208-0.4277v-7.6104c0-0.168,0.0586-0.3105,0.1768-0.4287
			c0.1172-0.1172,0.2598-0.1768,0.4277-0.1768h3.541c0.4531,0,0.8691,0.1113,1.2471,0.334s0.6807,0.5293,0.9072,0.9199
			s0.3398,0.8301,0.3398,1.3164c0,0.4707-0.126,0.9102-0.3779,1.3174s-0.5752,0.7119-0.9697,0.9131
			c0.3105,0.1602,0.5566,0.3828,0.7373,0.668s0.2793,0.6172,0.2959,0.9951c0.0332,0.4795,0.0713,0.8047,0.1133,0.9766
			c0.042,0.1729,0.1348,0.2959,0.2773,0.3721C435.79,72.3569,435.8574,72.4302,435.9072,72.519z M433.709,68.5688
			c0.1885-0.1514,0.3418-0.3555,0.46-0.6113c0.1172-0.2559,0.1758-0.5439,0.1758-0.8633c0-0.4033-0.124-0.7451-0.3711-1.0264
			c-0.248-0.2822-0.5479-0.4229-0.9014-0.4229h-2.835v3.1758h2.873C433.3203,68.8042,433.5195,68.7202,433.709,68.5688z"/>
	</g>
	<g id="Shape_536_copy_10-2">
		<rect x="422.5498" y="91.6792" class="st3" width="1" height="26.2012"/>
	</g>
	<g id="Shape_537_copy_9-3">
		<path class="st0" d="M418.15,116.6797l4.2,4.2002l4.2-4.2002"/>
		<polygon class="st3" points="422.3496,121.5874 417.7969,117.0327 418.5039,116.3257 422.3496,120.1733 426.1963,116.3257 
			426.9033,117.0327 		"/>
	</g>
	<g id="Shape_537_copy_17-3">
		<path class="st0" d="M418.64,93.5796l4.0601-3.9702l4.0601,3.9702"/>
		<polygon class="st3" points="418.9893,93.937 418.29,93.2222 422.7002,88.9097 427.1094,93.2222 426.4102,93.937 
			422.7002,90.3081 		"/>
	</g>
</g>
<g id="Group_7_copy">
	<g id="Rounded_Rectangle_519_copy_14-5">
		<path class="st0" d="M36.67,121.6396h82.46c11.0015,0.0308,19.8949,8.9741,19.8641,19.9756
			c-0.0306,10.958-8.9063,19.8335-19.8641,19.8643H36.67c-11.0015-0.0308-19.8949-8.9741-19.8641-19.9756
			C16.8365,130.5459,25.7122,121.6704,36.67,121.6396z"/>
		<path class="st1" d="M119.1309,161.98H36.6699c-11.2607-0.0322-20.3955-9.2188-20.3643-20.4775
			c0.0322-11.1973,9.167-20.3311,20.3633-20.3623h82.4609c5.4561,0.0146,10.5781,2.1533,14.4238,6.0205
			c3.8467,3.8682,5.9561,9.001,5.9404,14.4551C139.4629,152.813,130.3281,161.9478,119.1309,161.98z M36.6709,122.1401
			c-10.6475,0.0293-19.335,8.7168-19.3652,19.3643c-0.0293,10.709,8.6582,19.4453,19.3652,19.4756h82.459
			c10.6475-0.0303,19.335-8.7178,19.3643-19.3662c0.0146-5.1875-1.9912-10.0693-5.6494-13.748
			c-3.6572-3.6777-8.5283-5.7109-13.7158-5.7256h-82.459H36.6709z"/>
	</g>
	<g id="BROKER_copy-2" class="st2">
		<path d="M59.4824,142.0854c0.2988,0.3652,0.4473,0.8418,0.4473,1.4297c0,0.9326-0.2705,1.5986-0.8125,1.9971
			c-0.542,0.3994-1.2031,0.5986-1.9844,0.5986h-3.2383c-0.168,0-0.3105-0.0586-0.4277-0.1768
			c-0.1182-0.1172-0.1768-0.2598-0.1768-0.4277v-7.6104c0-0.168,0.0586-0.3105,0.1768-0.4287
			c0.1172-0.1172,0.2598-0.1768,0.4277-0.1768h3.2383c0.7646,0,1.3457,0.1895,1.7451,0.5674s0.5986,0.9238,0.5986,1.6377
			c0,0.4033-0.0967,0.7627-0.29,1.0771c-0.1934,0.3154-0.4746,0.5566-0.8438,0.7246
			C58.8047,141.4575,59.1846,141.7202,59.4824,142.0854z M57.8574,138.7837c-0.2139-0.2051-0.5146-0.3086-0.9014-0.3086h-2.3809
			v2.457h2.4063c0.3447-0.0078,0.6299-0.1191,0.8574-0.334c0.2266-0.2139,0.3398-0.5186,0.3398-0.9131
			S58.0713,138.9897,57.8574,138.7837z M58.2295,144.5923c0.2764-0.2393,0.415-0.5986,0.415-1.0771
			c0-0.9326-0.5283-1.3984-1.5869-1.3984h-2.4824v2.835h2.5449C57.582,144.9517,57.9521,144.8315,58.2295,144.5923z"/>
		<path d="M68.4346,145.3237c0.0508,0.0879,0.0762,0.1777,0.0762,0.2705c0,0.1768-0.0566,0.3066-0.1699,0.3906
			c-0.1143,0.084-0.25,0.126-0.4102,0.126c-0.1592,0-0.2939-0.0332-0.4033-0.1006c-0.252-0.1426-0.458-0.374-0.6172-0.6934
			s-0.2393-0.7891-0.2393-1.4111c0-0.4199-0.126-0.7305-0.3779-0.9326c-0.252-0.2012-0.5801-0.3018-0.9824-0.3018h-2.5459v2.835
			c0,0.1758-0.0498,0.3213-0.1514,0.4346c-0.1006,0.1133-0.2305,0.1699-0.3906,0.1699c-0.1934,0-0.3584-0.0586-0.4971-0.1768
			c-0.1387-0.1172-0.208-0.2598-0.208-0.4277v-7.6104c0-0.168,0.0586-0.3105,0.1768-0.4287
			c0.1172-0.1172,0.2598-0.1768,0.4277-0.1768h3.541c0.4531,0,0.8691,0.1113,1.2471,0.334s0.6807,0.5293,0.9072,0.9199
			s0.3398,0.8301,0.3398,1.3164c0,0.4707-0.126,0.9102-0.3779,1.3174s-0.5752,0.7119-0.9697,0.9131
			c0.3105,0.1602,0.5566,0.3828,0.7373,0.668s0.2793,0.6172,0.2959,0.9951c0.0332,0.4795,0.0713,0.8047,0.1133,0.9766
			c0.042,0.1729,0.1348,0.2959,0.2773,0.3721C68.3174,145.1616,68.3848,145.2349,68.4346,145.3237z M66.2363,141.3735
			c0.1885-0.1514,0.3418-0.3555,0.46-0.6113c0.1172-0.2559,0.1758-0.5439,0.1758-0.8633c0-0.4033-0.124-0.7451-0.3711-1.0264
			c-0.248-0.2822-0.5479-0.4229-0.9014-0.4229h-2.835v3.1758h2.873C65.8477,141.6089,66.0469,141.5249,66.2363,141.3735z"/>
		<path d="M77.4258,144.0063c-0.3662,0.6895-0.8721,1.2334-1.5186,1.6318c-0.6475,0.3994-1.3779,0.5986-2.1924,0.5986
			c-0.8154,0-1.5459-0.1992-2.1924-0.5986c-0.6475-0.3984-1.1533-0.9424-1.5186-1.6318c-0.3652-0.6885-0.5479-1.457-0.5479-2.3057
			s0.1826-1.6172,0.5479-2.3057s0.8711-1.2324,1.5186-1.6318c0.6465-0.3984,1.377-0.5986,2.1924-0.5986
			c0.8145,0,1.5449,0.2002,2.1924,0.5986c0.6465,0.3994,1.1523,0.9434,1.5186,1.6318c0.3652,0.6885,0.5479,1.457,0.5479,2.3057
			S77.791,143.3179,77.4258,144.0063z M76.2979,139.9937c-0.252-0.5078-0.6025-0.9072-1.0527-1.1973
			c-0.4492-0.29-0.959-0.4346-1.5303-0.4346s-1.082,0.1426-1.5313,0.4287c-0.4492,0.2852-0.7998,0.6826-1.0518,1.1904
			c-0.252,0.5088-0.3779,1.082-0.3779,1.7197c0,0.6299,0.126,1.1992,0.3779,1.707c0.252,0.5088,0.6025,0.9072,1.0518,1.1973
			s0.96,0.4346,1.5313,0.4346s1.0811-0.1445,1.5303-0.4346c0.4502-0.29,0.8008-0.6885,1.0527-1.1973
			c0.252-0.5078,0.3779-1.0771,0.3779-1.707S76.5498,140.5015,76.2979,139.9937z"/>
		<path d="M86.4023,145.5063c0,0.1846-0.0693,0.3359-0.208,0.4531c-0.1387,0.1182-0.2959,0.1768-0.4727,0.1768
			c-0.168,0-0.3145-0.0762-0.4404-0.2266l-3.0625-3.9443l-1.4111,1.3359v2.1924c0,0.1758-0.0586,0.3232-0.1758,0.4404
			c-0.1182,0.1182-0.2695,0.1768-0.4541,0.1768s-0.334-0.0586-0.4473-0.1768c-0.1133-0.1172-0.1699-0.2646-0.1699-0.4404v-7.5977
			c0-0.168,0.0586-0.3105,0.1768-0.4287c0.1172-0.1172,0.2686-0.1768,0.4531-0.1768s0.334,0.0566,0.4473,0.1709
			c0.1133,0.1133,0.1699,0.2578,0.1699,0.4346v3.918l4.4736-4.334c0.1592-0.1426,0.3184-0.2139,0.4785-0.2139
			c0.1514,0,0.2813,0.0625,0.3906,0.1885s0.1641,0.2607,0.1641,0.4033c0,0.126-0.0596,0.2559-0.1768,0.3906l-2.9863,2.8223
			l3.1123,4.0195C86.3564,145.2075,86.4023,145.3462,86.4023,145.5063z"/>
		<path d="M93.3389,145.1284c0.1143,0.1172,0.1709,0.2559,0.1709,0.415c0,0.1689-0.0566,0.3047-0.1709,0.4102
			c-0.1133,0.1045-0.2578,0.1572-0.4346,0.1572h-4.3848c-0.168,0-0.3105-0.0586-0.4277-0.1768
			c-0.1182-0.1172-0.1768-0.2598-0.1768-0.4277v-7.6104c0-0.168,0.0586-0.3105,0.1768-0.4287
			c0.1172-0.1172,0.2598-0.1768,0.4277-0.1768h4.3848c0.1768,0,0.3213,0.0547,0.4346,0.1641
			c0.1143,0.1094,0.1709,0.252,0.1709,0.4287c0,0.168-0.0566,0.3047-0.1709,0.4092c-0.1133,0.1055-0.2578,0.1572-0.4346,0.1572
			h-3.7422v2.5703h3.1758c0.1758,0,0.3213,0.0547,0.4346,0.1641s0.1699,0.248,0.1699,0.416c0,0.1768-0.0566,0.3154-0.1699,0.416
			s-0.2588,0.1514-0.4346,0.1514h-3.1758v2.7842h3.7422C93.0811,144.9517,93.2256,145.0103,93.3389,145.1284z"/>
		<path d="M102.0137,145.3237c0.0508,0.0879,0.0762,0.1777,0.0762,0.2705c0,0.1768-0.0566,0.3066-0.1699,0.3906
			c-0.1143,0.084-0.25,0.126-0.4102,0.126c-0.1592,0-0.2939-0.0332-0.4033-0.1006c-0.252-0.1426-0.458-0.374-0.6172-0.6934
			s-0.2393-0.7891-0.2393-1.4111c0-0.4199-0.126-0.7305-0.3779-0.9326c-0.252-0.2012-0.5801-0.3018-0.9824-0.3018h-2.5459v2.835
			c0,0.1758-0.0498,0.3213-0.1514,0.4346c-0.1006,0.1133-0.2305,0.1699-0.3906,0.1699c-0.1934,0-0.3584-0.0586-0.4971-0.1768
			c-0.1387-0.1172-0.208-0.2598-0.208-0.4277v-7.6104c0-0.168,0.0586-0.3105,0.1768-0.4287
			c0.1172-0.1172,0.2598-0.1768,0.4277-0.1768h3.541c0.4531,0,0.8691,0.1113,1.2471,0.334s0.6807,0.5293,0.9072,0.9199
			s0.3398,0.8301,0.3398,1.3164c0,0.4707-0.126,0.9102-0.3779,1.3174s-0.5752,0.7119-0.9697,0.9131
			c0.3105,0.1602,0.5566,0.3828,0.7373,0.668s0.2793,0.6172,0.2959,0.9951c0.0332,0.4795,0.0713,0.8047,0.1133,0.9766
			c0.042,0.1729,0.1348,0.2959,0.2773,0.3721C101.8965,145.1616,101.9639,145.2349,102.0137,145.3237z M99.8154,141.3735
			c0.1885-0.1514,0.3418-0.3555,0.46-0.6113c0.1172-0.2559,0.1758-0.5439,0.1758-0.8633c0-0.4033-0.124-0.7451-0.3711-1.0264
			c-0.248-0.2822-0.5479-0.4229-0.9014-0.4229h-2.835v3.1758h2.873C99.4268,141.6089,99.626,141.5249,99.8154,141.3735z"/>
	</g>
	<g id="Rounded_Rectangle_519_copy_14-6">
		<path class="st0" d="M16.4,57.1797h23.8c8.6985,0,15.75,7.0518,15.75,15.75s-7.0515,15.75-15.75,15.75H16.4
			c-8.6985,0-15.75-7.0518-15.75-15.75S7.7015,57.1797,16.4,57.1797z"/>
		<path class="st1" d="M40.2002,89.1792H16.4004c-8.96,0-16.25-7.29-16.25-16.25s7.29-16.25,16.25-16.25h23.7998
			c8.96,0,16.25,7.29,16.25,16.25S49.1602,89.1792,40.2002,89.1792z M16.4004,57.6792c-8.4092,0-15.25,6.8408-15.25,15.25
			s6.8408,15.25,15.25,15.25h23.7998c8.4092,0,15.25-6.8408,15.25-15.25s-6.8408-15.25-15.25-15.25H16.4004z"/>
	</g>
	<g id="USER_copy_11-4" class="st2">
		<path d="M21.0928,69.6655c0.0791,0.0898,0.1191,0.2041,0.1191,0.3438v3.8291c0,0.5254-0.1113,0.9971-0.333,1.416
			s-0.5273,0.7461-0.917,0.9824s-0.8291,0.3535-1.3164,0.3535c-0.4941,0-0.9375-0.1172-1.3311-0.3535
			c-0.3926-0.2363-0.7002-0.5635-0.9219-0.9824s-0.332-0.8906-0.332-1.416v-3.8291c0-0.1396,0.0439-0.2539,0.1328-0.3438
			s0.2031-0.1348,0.3418-0.1348c0.1211,0,0.2266,0.0469,0.3184,0.1396s0.1387,0.2061,0.1387,0.3389v3.8291
			c0,0.3457,0.0752,0.6572,0.2275,0.9326s0.3545,0.4902,0.6084,0.6436c0.2529,0.1523,0.5254,0.2285,0.8174,0.2285
			c0.3037,0,0.5859-0.0762,0.8457-0.2285c0.2598-0.1533,0.4668-0.3682,0.623-0.6436c0.1543-0.2754,0.2324-0.5869,0.2324-0.9326
			v-3.8291c0-0.1396,0.0381-0.2539,0.1143-0.3438s0.1807-0.1348,0.3135-0.1348S21.0137,69.5757,21.0928,69.6655z"/>
		<path d="M23.4834,76.4165c-0.3555-0.1367-0.6943-0.3574-1.0176-0.6631c-0.1328-0.1201-0.1992-0.2559-0.1992-0.4092
			c0-0.1191,0.0439-0.2275,0.1328-0.3242c0.0889-0.0957,0.1934-0.1445,0.3135-0.1445c0.1074,0,0.2002,0.0371,0.2754,0.1094
			c0.2539,0.2461,0.5156,0.4277,0.7842,0.5439c0.2695,0.1162,0.5752,0.1748,0.918,0.1748c0.3984,0,0.7363-0.0967,1.0117-0.2891
			c0.2754-0.1934,0.4131-0.4355,0.4131-0.7285c-0.0059-0.3457-0.1436-0.6133-0.4131-0.8027s-0.6797-0.3477-1.2305-0.4736
			c-0.6533-0.1396-1.1553-0.3691-1.5068-0.6885c-0.3516-0.3184-0.5273-0.7607-0.5273-1.3262c0-0.3916,0.0986-0.7363,0.2949-1.0313
			c0.1963-0.2959,0.4688-0.5244,0.8174-0.6836c0.3477-0.1592,0.7412-0.2393,1.1777-0.2393c0.3936,0,0.7637,0.0664,1.1123,0.1992
			s0.6309,0.3096,0.8457,0.5283c0.1455,0.1338,0.2188,0.2764,0.2188,0.4287c0,0.1201-0.043,0.2266-0.1279,0.3193
			c-0.0859,0.0938-0.1885,0.1396-0.3096,0.1396c-0.0889,0-0.1611-0.0264-0.2178-0.0791c-0.165-0.1729-0.3936-0.3193-0.6846-0.4395
			c-0.292-0.1191-0.5703-0.1797-0.8369-0.1797c-0.4238,0-0.7617,0.0918-1.0117,0.2744c-0.25,0.1836-0.375,0.4238-0.375,0.7236
			c0,0.3252,0.125,0.5742,0.375,0.7471s0.6221,0.3193,1.1162,0.4395c0.4951,0.1133,0.8984,0.2461,1.2119,0.3984
			c0.3135,0.1533,0.5566,0.3662,0.7275,0.6387s0.2568,0.6279,0.2568,1.0664c0,0.3857-0.1035,0.7285-0.3096,1.0273
			s-0.4863,0.5322-0.8408,0.6982s-0.7441,0.249-1.1689,0.249C24.2461,76.6206,23.8379,76.5522,23.4834,76.4165z"/>
		<path d="M32.3164,75.7437c0.0859,0.0928,0.1289,0.2021,0.1289,0.3281c0,0.1338-0.043,0.2412-0.1289,0.3242
			c-0.085,0.084-0.1943,0.125-0.3271,0.125h-3.3076c-0.127,0-0.2344-0.0469-0.3232-0.1396s-0.1328-0.2061-0.1328-0.3389V70.019
			c0-0.1328,0.0439-0.2461,0.1328-0.3389s0.1963-0.1396,0.3232-0.1396h3.3076c0.1328,0,0.2422,0.043,0.3271,0.1299
			c0.0859,0.0859,0.1289,0.1992,0.1289,0.3389c0,0.1328-0.043,0.2412-0.1289,0.3242c-0.085,0.083-0.1943,0.125-0.3271,0.125H29.166
			v2.0342h2.3955c0.1328,0,0.2422,0.043,0.3271,0.1289c0.0859,0.0869,0.1289,0.1963,0.1289,0.3291
			c0,0.1396-0.043,0.25-0.1289,0.3291c-0.085,0.0801-0.1943,0.1201-0.3271,0.1201H29.166v2.2041h2.8232
			C32.1221,75.604,32.2314,75.6499,32.3164,75.7437z"/>
		<path d="M38.8604,75.8979c0.0381,0.0693,0.0566,0.1416,0.0566,0.2139c0,0.1396-0.043,0.2432-0.1279,0.3096
			c-0.0859,0.0664-0.1885,0.0996-0.3096,0.0996c-0.1201,0-0.2217-0.0264-0.3037-0.0801c-0.1904-0.1123-0.3457-0.2959-0.4658-0.5479
			c-0.1201-0.2529-0.1807-0.625-0.1807-1.1172c0-0.332-0.0947-0.5781-0.2852-0.7383c-0.1895-0.1592-0.4365-0.2393-0.7412-0.2393
			H34.583v2.2441c0,0.1396-0.0381,0.2539-0.1143,0.3438c-0.0752,0.0898-0.1738,0.1348-0.2939,0.1348
			c-0.1465,0-0.2715-0.0469-0.376-0.1396s-0.1563-0.2061-0.1563-0.3389V70.019c0-0.1328,0.0439-0.2461,0.1328-0.3389
			s0.1963-0.1396,0.3232-0.1396h2.6709c0.3418,0,0.6553,0.0879,0.9404,0.2646c0.2852,0.1758,0.5137,0.4189,0.6846,0.7275
			c0.1709,0.3096,0.2568,0.6563,0.2568,1.042c0,0.373-0.0957,0.7197-0.2852,1.042c-0.1904,0.3232-0.4346,0.5635-0.7324,0.7236
			c0.2344,0.126,0.4199,0.3018,0.5566,0.5283c0.1357,0.2256,0.21,0.4883,0.2227,0.7871c0.0254,0.3799,0.0537,0.6367,0.0859,0.7734
			c0.0313,0.1357,0.1016,0.2344,0.209,0.2939C38.7715,75.77,38.8223,75.8276,38.8604,75.8979z M37.2012,72.772
			c0.1426-0.1201,0.2588-0.2813,0.3477-0.4844c0.0879-0.2021,0.1328-0.4297,0.1328-0.6826c0-0.3193-0.0938-0.5898-0.2803-0.8125
			c-0.1875-0.2227-0.4141-0.334-0.6797-0.334H34.583v2.5127h2.167C36.9082,72.9575,37.0586,72.8911,37.2012,72.772z"/>
	</g>
	<g id="Rounded_Rectangle_519_copy_14-7">
		<path class="st0" d="M115.8,57.1797h23.8c8.6985,0,15.75,7.0513,15.75,15.75c0,8.6982-7.0515,15.75-15.75,15.75l0,0h-23.8
			c-8.6985,0-15.75-7.0518-15.75-15.75S107.1016,57.1797,115.8,57.1797z"/>
		<path class="st1" d="M139.5996,89.1792h-23.7998c-8.96,0-16.25-7.29-16.25-16.25s7.29-16.25,16.25-16.25h23.7998
			c8.96,0,16.25,7.29,16.25,16.25S148.5596,89.1792,139.5996,89.1792z M115.7998,57.6792c-8.4092,0-15.25,6.8408-15.25,15.25
			s6.8408,15.25,15.25,15.25h23.7998c8.4092,0,15.25-6.8408,15.25-15.25s-6.8408-15.25-15.25-15.25H115.7998z"/>
	</g>
	<g id="USER_copy_11-5" class="st2">
		<path d="M120.4951,69.6655c0.0791,0.0898,0.1191,0.2041,0.1191,0.3438v3.8291c0,0.5254-0.1113,0.9971-0.333,1.416
			s-0.5273,0.7461-0.917,0.9824s-0.8291,0.3535-1.3164,0.3535c-0.4941,0-0.9375-0.1172-1.3311-0.3535
			c-0.3926-0.2363-0.7002-0.5635-0.9219-0.9824s-0.332-0.8906-0.332-1.416v-3.8291c0-0.1396,0.0439-0.2539,0.1328-0.3438
			s0.2031-0.1348,0.3418-0.1348c0.1211,0,0.2266,0.0469,0.3184,0.1396s0.1387,0.2061,0.1387,0.3389v3.8291
			c0,0.3457,0.0752,0.6572,0.2275,0.9326s0.3545,0.4902,0.6084,0.6436c0.2529,0.1523,0.5254,0.2285,0.8174,0.2285
			c0.3037,0,0.5859-0.0762,0.8457-0.2285c0.2598-0.1533,0.4668-0.3682,0.623-0.6436c0.1543-0.2754,0.2324-0.5869,0.2324-0.9326
			v-3.8291c0-0.1396,0.0381-0.2539,0.1143-0.3438s0.1807-0.1348,0.3135-0.1348S120.416,69.5757,120.4951,69.6655z"/>
		<path d="M122.8857,76.4165c-0.3555-0.1367-0.6943-0.3574-1.0176-0.6631c-0.1328-0.1201-0.1992-0.2559-0.1992-0.4092
			c0-0.1191,0.0439-0.2275,0.1328-0.3242c0.0889-0.0957,0.1934-0.1445,0.3135-0.1445c0.1074,0,0.2002,0.0371,0.2754,0.1094
			c0.2539,0.2461,0.5156,0.4277,0.7842,0.5439c0.2695,0.1162,0.5752,0.1748,0.918,0.1748c0.3984,0,0.7363-0.0967,1.0117-0.2891
			c0.2754-0.1934,0.4131-0.4355,0.4131-0.7285c-0.0059-0.3457-0.1436-0.6133-0.4131-0.8027s-0.6797-0.3477-1.2305-0.4736
			c-0.6533-0.1396-1.1553-0.3691-1.5068-0.6885c-0.3516-0.3184-0.5273-0.7607-0.5273-1.3262c0-0.3916,0.0986-0.7363,0.2949-1.0313
			c0.1963-0.2959,0.4688-0.5244,0.8174-0.6836c0.3477-0.1592,0.7412-0.2393,1.1777-0.2393c0.3936,0,0.7637,0.0664,1.1123,0.1992
			s0.6309,0.3096,0.8457,0.5283c0.1455,0.1338,0.2188,0.2764,0.2188,0.4287c0,0.1201-0.043,0.2266-0.1279,0.3193
			c-0.0859,0.0938-0.1885,0.1396-0.3096,0.1396c-0.0889,0-0.1611-0.0264-0.2178-0.0791c-0.165-0.1729-0.3936-0.3193-0.6846-0.4395
			c-0.292-0.1191-0.5703-0.1797-0.8369-0.1797c-0.4238,0-0.7617,0.0918-1.0117,0.2744c-0.25,0.1836-0.375,0.4238-0.375,0.7236
			c0,0.3252,0.125,0.5742,0.375,0.7471s0.6221,0.3193,1.1162,0.4395c0.4951,0.1133,0.8984,0.2461,1.2119,0.3984
			c0.3135,0.1533,0.5566,0.3662,0.7275,0.6387s0.2568,0.6279,0.2568,1.0664c0,0.3857-0.1035,0.7285-0.3096,1.0273
			s-0.4863,0.5322-0.8408,0.6982s-0.7441,0.249-1.1689,0.249C123.6484,76.6206,123.2402,76.5522,122.8857,76.4165z"/>
		<path d="M131.7188,75.7437c0.0859,0.0928,0.1289,0.2021,0.1289,0.3281c0,0.1338-0.043,0.2412-0.1289,0.3242
			c-0.085,0.084-0.1943,0.125-0.3271,0.125h-3.3076c-0.127,0-0.2344-0.0469-0.3232-0.1396s-0.1328-0.2061-0.1328-0.3389V70.019
			c0-0.1328,0.0439-0.2461,0.1328-0.3389s0.1963-0.1396,0.3232-0.1396h3.3076c0.1328,0,0.2422,0.043,0.3271,0.1299
			c0.0859,0.0859,0.1289,0.1992,0.1289,0.3389c0,0.1328-0.043,0.2412-0.1289,0.3242c-0.085,0.083-0.1943,0.125-0.3271,0.125h-2.8232
			v2.0342h2.3955c0.1328,0,0.2422,0.043,0.3271,0.1289c0.0859,0.0869,0.1289,0.1963,0.1289,0.3291
			c0,0.1396-0.043,0.25-0.1289,0.3291c-0.085,0.0801-0.1943,0.1201-0.3271,0.1201h-2.3955v2.2041h2.8232
			C131.5244,75.604,131.6338,75.6499,131.7188,75.7437z"/>
		<path d="M138.2627,75.8979c0.0381,0.0693,0.0566,0.1416,0.0566,0.2139c0,0.1396-0.043,0.2432-0.1279,0.3096
			c-0.0859,0.0664-0.1885,0.0996-0.3096,0.0996c-0.1201,0-0.2217-0.0264-0.3037-0.0801c-0.1904-0.1123-0.3457-0.2959-0.4658-0.5479
			c-0.1201-0.2529-0.1807-0.625-0.1807-1.1172c0-0.332-0.0947-0.5781-0.2852-0.7383c-0.1895-0.1592-0.4365-0.2393-0.7412-0.2393
			h-1.9199v2.2441c0,0.1396-0.0381,0.2539-0.1143,0.3438c-0.0752,0.0898-0.1738,0.1348-0.2939,0.1348
			c-0.1465,0-0.2715-0.0469-0.376-0.1396s-0.1563-0.2061-0.1563-0.3389V70.019c0-0.1328,0.0439-0.2461,0.1328-0.3389
			s0.1963-0.1396,0.3232-0.1396h2.6709c0.3418,0,0.6553,0.0879,0.9404,0.2646c0.2852,0.1758,0.5137,0.4189,0.6846,0.7275
			c0.1709,0.3096,0.2568,0.6563,0.2568,1.042c0,0.373-0.0957,0.7197-0.2852,1.042c-0.1904,0.3232-0.4346,0.5635-0.7324,0.7236
			c0.2344,0.126,0.4199,0.3018,0.5566,0.5283c0.1357,0.2256,0.21,0.4883,0.2227,0.7871c0.0254,0.3799,0.0537,0.6367,0.0859,0.7734
			c0.0313,0.1357,0.1016,0.2344,0.209,0.2939C138.1738,75.77,138.2246,75.8276,138.2627,75.8979z M136.6035,72.772
			c0.1426-0.1201,0.2588-0.2813,0.3477-0.4844c0.0879-0.2021,0.1328-0.4297,0.1328-0.6826c0-0.3193-0.0938-0.5898-0.2803-0.8125
			c-0.1875-0.2227-0.4141-0.334-0.6797-0.334h-2.1387v2.5127h2.167C136.3105,72.9575,136.4609,72.8911,136.6035,72.772z"/>
	</g>
	<g id="Shape_536_copy_4-2">
		<rect x="35.8496" y="90.6792" class="st3" width="1" height="28.2012"/>
	</g>
	<g id="Shape_537_copy_9-4">
		<path class="st0" d="M31.45,116.6797l4.2,4.2002l4.2-4.2002"/>
		<polygon class="st3" points="35.6504,121.5874 31.0967,117.0327 31.8037,116.3257 35.6504,120.1733 39.4961,116.3257 
			40.2031,117.0327 		"/>
	</g>
	<g id="Shape_537_copy_9-5">
		<path class="st0" d="M31.9399,93.5796L36,89.6094l4.0601,3.9702"/>
		<polygon class="st3" points="39.7109,93.937 36,90.3081 32.2891,93.937 31.5898,93.2222 36,88.9097 40.4102,93.2222 		"/>
	</g>
	<g id="Shape_536_copy_10-3">
		<rect x="118.4502" y="91.6792" class="st3" width="1" height="27.2012"/>
	</g>
	<g id="Shape_537_copy_17-4">
		<path class="st0" d="M114.05,116.6797l4.2,4.2002l4.2-4.2002"/>
		<polygon class="st3" points="118.25,121.5874 113.6963,117.0327 114.4033,116.3257 118.25,120.1733 122.0967,116.3257 
			122.8037,117.0327 		"/>
	</g>
	<g id="Shape_537_copy_17-5">
		<path class="st0" d="M114.54,93.5796l4.0601-3.9702l4.0601,3.9702"/>
		<polygon class="st3" points="122.3105,93.937 118.5996,90.3081 114.8896,93.937 114.1904,93.2222 118.5996,88.9097 
			123.0098,93.2222 		"/>
	</g>
	<g id="Rounded_Rectangle_519_copy_14-8">
		<path class="st0" d="M61.87,48.8398h33.46c11.0015,0.0308,19.8949,8.9741,19.8641,19.9756
			c-0.0306,10.958-8.9063,19.8335-19.8641,19.8643H61.87c-11.0015,0.0308-19.9449-8.8628-19.9757-19.8643
			s8.8627-19.9448,19.8641-19.9756C61.7957,48.8398,61.8328,48.8398,61.87,48.8398z"/>
		<path class="st1" d="M61.8105,89.1792c-5.4316,0-10.541-2.1074-14.3955-5.9404c-3.8672-3.8457-6.0059-8.9678-6.0205-14.4219
			c-0.0156-5.4541,2.0938-10.5879,5.9404-14.4561c3.8457-3.8672,8.9678-6.0059,14.4229-6.0215h33.5723
			c11.2607,0.0322,20.3955,9.2188,20.3643,20.4775c-0.0322,11.1973-9.167,20.3311-20.3633,20.3623H61.8701
			C61.8506,89.1792,61.8301,89.1792,61.8105,89.1792z M61.7588,49.3394c-5.1865,0.0146-10.0576,2.0488-13.7148,5.7266
			c-3.6582,3.6787-5.6641,8.5615-5.6494,13.749c0.0146,5.1865,2.0479,10.0576,5.7256,13.7148
			c3.665,3.6445,8.5254,5.6494,13.6914,5.6494c0.0195,0,0.0381,0,0.0576,0h33.4609c10.6465-0.0293,19.334-8.7168,19.3643-19.3643
			c0.0293-10.709-8.6582-19.4453-19.3652-19.4756H61.7588z"/>
	</g>
	<g id="USER_copy_11-6" class="st2">
		<path d="M68.3486,64.644c0.1045,0.1133,0.1572,0.2578,0.1572,0.4346v4.8379c0,0.6641-0.1475,1.2598-0.4414,1.7891
			s-0.6992,0.9434-1.2158,1.2412c-0.5166,0.2988-1.0977,0.4473-1.7451,0.4473c-0.6553,0-1.2432-0.1484-1.7637-0.4473
			c-0.5205-0.2979-0.9287-0.7119-1.2227-1.2412s-0.4404-1.125-0.4404-1.7891v-4.8379c0-0.1768,0.0586-0.3213,0.1768-0.4346
			c0.1172-0.1143,0.2686-0.1709,0.4531-0.1709c0.1592,0,0.2998,0.0596,0.4219,0.1768c0.1221,0.1182,0.1826,0.2607,0.1826,0.4287
			v4.8379c0,0.4375,0.1016,0.8301,0.3027,1.1787s0.4707,0.6191,0.8066,0.8125s0.6973,0.29,1.083,0.29
			c0.4033,0,0.7773-0.0967,1.1221-0.29c0.3438-0.1934,0.6191-0.4639,0.8252-0.8125c0.2051-0.3486,0.3086-0.7412,0.3086-1.1787
			v-4.8379c0-0.1768,0.0498-0.3213,0.1514-0.4346c0.1006-0.1143,0.2393-0.1709,0.415-0.1709
			C68.1025,64.4731,68.2432,64.5298,68.3486,64.644z"/>
		<path d="M71.5176,73.1743c-0.4707-0.1729-0.9199-0.4521-1.3486-0.8379c-0.1758-0.1514-0.2646-0.3242-0.2646-0.5166
			c0-0.1514,0.0586-0.2881,0.1768-0.4102c0.1172-0.1211,0.2559-0.1826,0.416-0.1826c0.1426,0,0.2646,0.0459,0.3652,0.1387
			c0.3359,0.3105,0.6826,0.54,1.0391,0.6865c0.3574,0.1475,0.7627,0.2207,1.2158,0.2207c0.5293,0,0.9766-0.1221,1.3428-0.3652
			c0.3652-0.2441,0.5479-0.5498,0.5479-0.9199c-0.0088-0.4365-0.1914-0.7754-0.5479-1.0146
			c-0.3574-0.2393-0.9014-0.4385-1.6318-0.5986c-0.8652-0.1758-1.5313-0.4658-1.9971-0.8691
			c-0.4668-0.4033-0.6992-0.9619-0.6992-1.6758c0-0.4951,0.1299-0.9297,0.3906-1.3037c0.2598-0.374,0.6211-0.6621,1.083-0.8633
			s0.9834-0.3027,1.5625-0.3027c0.5205,0,1.0117,0.084,1.4746,0.252c0.4619,0.1689,0.835,0.3906,1.1211,0.668
			c0.1934,0.168,0.29,0.3486,0.29,0.542c0,0.1514-0.0566,0.2852-0.1709,0.4033c-0.1133,0.1172-0.25,0.1758-0.4092,0.1758
			c-0.1172,0-0.2139-0.0332-0.29-0.1006c-0.2178-0.2178-0.5205-0.4033-0.9072-0.5537c-0.3857-0.1514-0.7559-0.2275-1.1084-0.2275
			c-0.5625,0-1.0098,0.1162-1.3418,0.3467c-0.332,0.2314-0.498,0.5352-0.498,0.9141c0,0.4111,0.166,0.7266,0.498,0.9443
			c0.332,0.2188,0.8252,0.4033,1.4805,0.5547c0.6553,0.1426,1.1904,0.3105,1.6064,0.5039s0.7373,0.4619,0.9639,0.8066
			s0.3398,0.7939,0.3398,1.3477c0,0.4873-0.1367,0.9199-0.4092,1.2979c-0.2734,0.3779-0.6445,0.6729-1.1152,0.8818
			c-0.4707,0.21-0.9873,0.3154-1.5498,0.3154C72.5293,73.4321,71.9873,73.3462,71.5176,73.1743z"/>
		<path d="M83.2285,72.3237c0.1143,0.1172,0.1709,0.2559,0.1709,0.415c0,0.1689-0.0566,0.3047-0.1709,0.4102
			c-0.1133,0.1045-0.2578,0.1572-0.4346,0.1572h-4.3848c-0.168,0-0.3105-0.0586-0.4277-0.1768
			c-0.1182-0.1172-0.1768-0.2598-0.1768-0.4277v-7.6104c0-0.168,0.0586-0.3105,0.1768-0.4287
			c0.1172-0.1172,0.2598-0.1768,0.4277-0.1768h4.3848c0.1768,0,0.3213,0.0547,0.4346,0.1641
			c0.1143,0.1094,0.1709,0.252,0.1709,0.4287c0,0.168-0.0566,0.3047-0.1709,0.4092c-0.1133,0.1055-0.2578,0.1572-0.4346,0.1572
			h-3.7422v2.5703h3.1758c0.1758,0,0.3213,0.0547,0.4346,0.1641s0.1699,0.248,0.1699,0.416c0,0.1768-0.0566,0.3154-0.1699,0.416
			s-0.2588,0.1514-0.4346,0.1514h-3.1758v2.7842h3.7422C82.9707,72.147,83.1152,72.2056,83.2285,72.3237z"/>
		<path d="M91.9033,72.519c0.0508,0.0879,0.0762,0.1777,0.0762,0.2705c0,0.1768-0.0566,0.3066-0.1699,0.3906
			c-0.1143,0.084-0.25,0.126-0.4102,0.126c-0.1592,0-0.2939-0.0332-0.4033-0.1006c-0.252-0.1426-0.458-0.374-0.6172-0.6934
			s-0.2393-0.7891-0.2393-1.4111c0-0.4199-0.126-0.7305-0.3779-0.9326c-0.252-0.2012-0.5801-0.3018-0.9824-0.3018h-2.5459v2.835
			c0,0.1758-0.0498,0.3213-0.1514,0.4346c-0.1006,0.1133-0.2305,0.1699-0.3906,0.1699c-0.1934,0-0.3584-0.0586-0.4971-0.1768
			c-0.1387-0.1172-0.208-0.2598-0.208-0.4277v-7.6104c0-0.168,0.0586-0.3105,0.1768-0.4287
			c0.1172-0.1172,0.2598-0.1768,0.4277-0.1768h3.541c0.4531,0,0.8691,0.1113,1.2471,0.334s0.6807,0.5293,0.9072,0.9199
			s0.3398,0.8301,0.3398,1.3164c0,0.4707-0.126,0.9102-0.3779,1.3174s-0.5752,0.7119-0.9697,0.9131
			c0.3105,0.1602,0.5566,0.3828,0.7373,0.668s0.2793,0.6172,0.2959,0.9951c0.0332,0.4795,0.0713,0.8047,0.1133,0.9766
			c0.042,0.1729,0.1348,0.2959,0.2773,0.3721C91.7861,72.3569,91.8535,72.4302,91.9033,72.519z M89.7051,68.5688
			c0.1885-0.1514,0.3418-0.3555,0.46-0.6113c0.1172-0.2559,0.1758-0.5439,0.1758-0.8633c0-0.4033-0.124-0.7451-0.3711-1.0264
			c-0.248-0.2822-0.5479-0.4229-0.9014-0.4229h-2.835v3.1758h2.873C89.3164,68.8042,89.5156,68.7202,89.7051,68.5688z"/>
	</g>
	<g id="Shape_536_copy_10-4">
		<rect x="78.5498" y="90.6792" class="st3" width="1" height="28.2012"/>
	</g>
	<g id="Shape_537_copy_9-6">
		<path class="st0" d="M74.15,116.6797l4.2,4.2002l4.2-4.2002"/>
		<polygon class="st3" points="78.3496,121.5874 73.7969,117.0327 74.5039,116.3257 78.3496,120.1733 82.1963,116.3257 
			82.9033,117.0327 		"/>
	</g>
	<g id="Shape_537_copy_17-6">
		<path class="st0" d="M74.64,93.5796l4.0601-3.9702l4.0601,3.9702"/>
		<polygon class="st3" points="74.9893,93.937 74.29,93.2222 78.7002,88.9097 83.1094,93.2222 82.4102,93.937 78.7002,90.3081 		"/>
	</g>
</g>
</svg>
